;TYPE=PLATED
;Layer: PTH_Through
;EasyEDA Pro Client v2.2.34.8, 2025-02-19 17:22:18
;Gerber Generator version 0.3
M48
METRIC,LZ,0000.00000
;Hole size 1 = 0.30480 METRIC
T01C0.30480
;Hole size 2 = 0.60000 METRIC
T02C0.60000
;Hole size 3 = 1.20000 METRIC
T03C1.20000
;Hole size 4 = 2.10000 METRIC
T04C2.10000
%
G05
G90
T01
X150.368Y63.119
X141.986Y62.96406
X160.63585Y37.719
X161.43585Y36.957
X162.23585Y37.719
X163.03585Y36.957
X163.83585Y37.719
X167.55891Y39.497
X169.98689Y40.259
X149.225Y32.385
X147.701Y34.925
X146.43099Y31.95139
X141.98601Y39.624
X183.134Y45.593
X146.21394Y59.74601
X154.305Y51.80782
X145.44104Y51.689
X145.44104Y52.50709
X154.305Y50.927
X146.431Y60.833
X140.58405Y54.35105
X151.638Y42.291
X156.845Y57.15
X156.845Y55.88
X157.353Y54.737
X157.353Y61.595
X156.59955Y61.595
X163.449Y53.467
X162.687Y52.07
X162.052Y50.8
X161.417Y49.53
X160.782Y48.26
X152.4Y32.1595
X169.926Y46.101
X146.55799Y35.8526
X184.785Y57.15
X184.785Y56.261
X180.086Y69.469
X181.356Y69.469
X182.753Y69.469
X184.277Y50.546
X184.277Y49.53
X183.388Y50.038
X179.324Y48.641
X179.324Y47.371
X184.023Y38.227
X184.023Y37.338
X184.023Y36.449
X184.023Y35.56
X178.054Y32.512
X178.943Y32.512
X179.832Y32.512
X180.721Y32.512
X172.847Y32.512
X173.736Y32.512
X174.625Y32.512
X175.514Y32.512
X173.355Y51.308
X173.355Y50.419
X173.355Y49.53
X173.355Y48.641
X172.085Y51.308
X172.085Y50.419
X172.085Y49.53
X172.085Y48.641
X155.067Y32.512
X155.956Y32.512
X156.845Y32.512
X157.734Y32.512
X138.811Y39.497
X138.811Y38.608
X138.811Y37.719
X138.811Y36.83
X138.811Y44.069
X138.811Y43.18
X138.811Y42.291
X138.811Y41.402
X154.051Y48.895
X180.975Y56.134
X180.34Y55.499
X182.28707Y60.60181
X154.01539Y69.94704
X154.90439Y69.94704
X155.79339Y69.94704
X156.68239Y69.94704
X157.226Y63.5
X157.226Y64.389
X157.226Y65.278
X166.624Y61.214
X167.513Y61.214
X168.402Y61.214
X169.291Y61.214
X138.811Y62.357
X138.811Y63.246
X138.811Y64.135
X138.811Y65.024
X138.811Y57.15
X138.811Y58.039
X138.811Y58.928
X138.811Y59.817
X147.447Y54.61
X155.702Y44.577
X155.067Y45.212
X153.67Y41.402
X153.67Y40.386
X147.447Y55.626
X180.721Y64.008
T02
X150.76395Y64.78897G85X150.76395Y65.68897
X142.11393Y64.78899G85X142.11393Y65.68901
X150.764Y69.13904G85X150.764Y69.73904
X142.11403Y69.13904G85X142.11403Y69.73904
T03
X181.483Y66.675
X184.023Y66.675
T04
X180.467Y35.941
X155.321Y67.31
M30