G04 Layer: InnerLayer2*
G04 EasyEDA Pro v2.2.34.8, 2025-02-19 17:22:18*
G04 Gerber Generator version 0.3*
G04 Scale: 100 percent, Rotated: No, Reflected: No*
G04 Dimensions in millimeters*
G04 Leading zeros omitted, absolute positions, 4 integers and 5 decimals*
%FSLAX45Y45*%
%MOMM*%
%ADD10C,0.2032*%
%ADD11C,3.0*%
%ADD12O,1.1X2.0*%
%ADD13O,1.2X1.8*%
%ADD14R,2.0X2.0*%
%ADD15C,2.0080*%
%ADD16C,2.0*%
%ADD17C,0.6096*%
%ADD18C,0.762*%
G75*


G04 Copper Start*
G36*
G01X13777214Y3399300D02*
G01X13777214Y5450586D01*
G01X13881559Y5450586D01*
G01X13992809Y5339336D01*
G03X14000173Y5336286I7364J7364D01*
G01X14841986Y5336286D01*
G01X15296136Y4882136D01*
G03X15303500Y4879086I7364J7364D01*
G01X15339629Y4879086D01*
G03X15470571Y4879086I65471J10414D01*
G01X15481300Y4879086D01*
G03X15488664Y4882136I0J10414D01*
G01X15564864Y4958336D01*
G03X15567914Y4965700I-7364J7364D01*
G01X15567914Y6256786D01*
G01X15612614Y6301486D01*
G01X15677419Y6301486D01*
G03X15722600Y6283706I45181J48514D01*
G03X15767781Y6301486I0J66294D01*
G01X15815334Y6301486D01*
G03X15849600Y6276086I34266J10414D01*
G01X17729200Y6276086D01*
G03X17765014Y6311900I0J35814D01*
G01X17765014Y7063486D01*
G01X18441328Y7063486D01*
G02X18705514Y6799237I0J-264186D01*
G01X18705337Y6062800D01*
G01X18705337Y4384114D01*
G01X18566150Y4384114D01*
G03X18530336Y4348300I0J-35814D01*
G01X18530336Y4008300D01*
G03X18566150Y3972486I35814J0D01*
G01X18705337Y3972486D01*
G01X18705337Y3399300D01*
G02X18441151Y3135114I-264186J0D01*
G01X14041400Y3135114D01*
G02X13777214Y3399300I0J264186D01*
G37*
%LPC*%
G36*
G01X13831916Y3816350D02*
G03X13814806Y3771900I49184J-44450D01*
G03X13831916Y3727450I66294J0D01*
G03X13881100Y3616706I49184J-44450D01*
G03X13930284Y3727450I0J66294D01*
G03X13947394Y3771900I-49184J44450D01*
G03X13930284Y3816350I-66294J0D01*
G03X13930284Y3905250I-49184J44450D01*
G03X13881100Y4015994I-49184J44450D01*
G03X13831916Y3905250I0J-66294D01*
G03X13831916Y3816350I49184J-44450D01*
G37*
G36*
G01X13881100Y4073906D02*
G03X13930284Y4184650I0J66294D01*
G03X13930284Y4273550I-49184J44450D01*
G03X13930284Y4362450I-49184J44450D01*
G03X13881100Y4473194I-49184J44450D01*
G03X13831916Y4362450I0J-66294D01*
G03X13831916Y4273550I49184J-44450D01*
G03X13831916Y4184650I49184J-44450D01*
G03X13881100Y4073906I49184J-44450D01*
G37*
G36*
G01X14589505Y3585260D02*
G03X14722093Y3585260I66294J0D01*
G03X14589505Y3585260I-66294J0D01*
G37*
G36*
G01X14703806Y3492500D02*
G03X14836394Y3492500I66294J0D01*
G03X14703806Y3492500I-66294J0D01*
G37*
G36*
G01X14856206Y3238500D02*
G03X14988794Y3238500I66294J0D01*
G03X14856206Y3238500I-66294J0D01*
G37*
G36*
G01X15367000Y3972306D02*
G03X15409594Y4089400I0J66294D01*
G03X15367000Y4206494I-42594J50800D01*
G03X15324406Y4089400I0J-66294D01*
G03X15367000Y3972306I42594J-50800D01*
G37*
G36*
G01X15459823Y4568077D02*
G03X15503963Y4454963I46877J-46877D01*
G03X15617077Y4410823I66237J2737D01*
G03X15572937Y4523937I-46877J46877D01*
G03X15459823Y4568077I-66237J-2737D01*
G37*
G36*
G01X15440406Y3251200D02*
G03X15551150Y3202016I66294J0D01*
G03X15640050Y3202016I44450J49184D01*
G03X15728950Y3202016I44450J49184D01*
G03X15839694Y3251200I44450J49184D01*
G03X15728950Y3300384I-66294J0D01*
G03X15640050Y3300384I-44450J-49184D01*
G03X15551150Y3300384I-44450J-49184D01*
G03X15440406Y3251200I-44450J-49184D01*
G37*
G36*
G01X15619346Y5575758D02*
G03X15689804Y5521919I65154J12242D01*
G03X15762225Y5413120I45496J-48219D01*
G03X15729996Y5539781I-26925J60580D01*
G03X15703543Y5651500I-45496J48219D01*
G03X15684500Y5781294I-19043J63500D01*
G03X15665457Y5651500I0J-66294D01*
G03X15619346Y5575758I19043J-63500D01*
G37*
G36*
G01X16143585Y3629406D02*
G03X16208863Y3707261I0J66294D01*
G03X16238307Y3707261I14722J64639D01*
G03X16303585Y3629406I65278J-11561D01*
G03X16368863Y3707261I0J66294D01*
G03X16431588Y3817623I14722J64639D01*
G03X16318307Y3760339I-48003J-45723D01*
G03X16288863Y3760339I-14722J-64639D01*
G03X16223585Y3838194I-65278J11561D01*
G03X16158307Y3760339I0J-66294D01*
G03X16128863Y3760339I-14722J-64639D01*
G03X16015582Y3817623I-65278J11561D01*
G03X16078307Y3707261I48003J-45723D01*
G03X16143585Y3629406I65278J-11561D01*
G37*
G36*
G01X16011906Y4826000D02*
G03X16144494Y4826000I66294J0D01*
G03X16011906Y4826000I-66294J0D01*
G37*
G36*
G01X16075406Y4953000D02*
G03X16207994Y4953000I66294J0D01*
G03X16075406Y4953000I-66294J0D01*
G37*
G36*
G01X16138906Y5080000D02*
G03X16271494Y5080000I66294J0D01*
G03X16138906Y5080000I-66294J0D01*
G37*
G36*
G01X16202406Y5207000D02*
G03X16334994Y5207000I66294J0D01*
G03X16202406Y5207000I-66294J0D01*
G37*
G36*
G01X16278606Y5346700D02*
G03X16411194Y5346700I66294J0D01*
G03X16278606Y5346700I-66294J0D01*
G37*
G36*
G01X16596106Y6121400D02*
G03X16706850Y6072216I66294J0D01*
G03X16795750Y6072216I44450J49184D01*
G03X16884650Y6072216I44450J49184D01*
G03X16995394Y6121400I44450J49184D01*
G03X16884650Y6170584I-66294J0D01*
G03X16795750Y6170584I-44450J-49184D01*
G03X16706850Y6170584I-44450J-49184D01*
G03X16596106Y6121400I-44450J-49184D01*
G37*
G36*
G01X16926306Y4610100D02*
G03X17058894Y4610100I66294J0D01*
G03X16926306Y4610100I-66294J0D01*
G37*
G36*
G01X16932395Y4025900D02*
G03X17064983Y4025900I66294J0D01*
G03X16932395Y4025900I-66294J0D01*
G37*
G36*
G01X17384684Y4997450D02*
G03X17384684Y5086350I-49184J44450D01*
G03X17368044Y5188556I-49184J44450D01*
G03X17272000Y5149843I-32544J-57756D01*
G03X17175956Y5188556I-63500J-19043D01*
G03X17159316Y5086350I32544J-57756D01*
G03X17159316Y4997450I49184J-44450D01*
G03X17159316Y4908550I49184J-44450D01*
G03X17175956Y4806344I49184J-44450D01*
G03X17272000Y4845057I32544J57756D01*
G03X17368044Y4806344I63500J19043D01*
G03X17384684Y4908550I-32544J57756D01*
G03X17384684Y4997450I-49184J44450D01*
G37*
G36*
G01X17218406Y3251200D02*
G03X17329150Y3202016I66294J0D01*
G03X17418050Y3202016I44450J49184D01*
G03X17506950Y3202016I44450J49184D01*
G03X17617694Y3251200I44450J49184D01*
G03X17506950Y3300384I-66294J0D01*
G03X17418050Y3300384I-44450J-49184D01*
G03X17329150Y3300384I-44450J-49184D01*
G03X17218406Y3251200I-44450J-49184D01*
G37*
G36*
G01X17849850Y3300384D02*
G03X17739106Y3251200I-44450J-49184D01*
G03X17849850Y3202016I66294J0D01*
G03X17938750Y3202016I44450J49184D01*
G03X18027650Y3202016I44450J49184D01*
G03X18138394Y3251200I44450J49184D01*
G03X18027650Y3300384I-66294J0D01*
G03X17938750Y3300384I-44450J-49184D01*
G03X17849850Y3300384I-44450J-49184D01*
G37*
G36*
G01X17860886Y3594100D02*
G03X18232514Y3594100I185814J0D01*
G03X17860886Y3594100I-185814J0D01*
G37*
G36*
G01X17932400Y4670806D02*
G03X17951443Y4800600I0J66294D01*
G03X17932400Y4930394I-19043J63500D01*
G03X17913357Y4800600I0J-66294D01*
G03X17932400Y4670806I19043J-63500D01*
G37*
G36*
G01X17942306Y6946900D02*
G03X18072100Y6927857I66294J0D01*
G03X18201894Y6946900I63500J19043D01*
G03X18072100Y6965943I-66294J0D01*
G03X17942306Y6946900I-63500J-19043D01*
G37*
G36*
G01X17987123Y5503023D02*
G03X18100237Y5547163I46877J46877D01*
G03X18144377Y5660277I-2737J66237D01*
G03X18031263Y5616137I-46877J-46877D01*
G03X17987123Y5503023I2737J-66237D01*
G37*
G36*
G01X18005806Y6400800D02*
G03X18138394Y6400800I66294J0D01*
G03X18005806Y6400800I-66294J0D01*
G37*
G36*
G01X18284114Y6767500D02*
G03X18248300Y6803314I-35814J0D01*
G01X18048300Y6803314D01*
G03X18012486Y6767500I0J-35814D01*
G01X18012486Y6567500D01*
G03X18048300Y6531686I35814J0D01*
G01X18248300Y6531686D01*
G03X18284114Y6567500I0J35814D01*
G01X18284114Y6600587D01*
G03X18538114Y6667500I118186J66913D01*
G03X18284114Y6734413I-135814J0D01*
G01X18284114Y6767500D01*
G37*
G36*
G01X18162413Y6060181D02*
G03X18295001Y6060181I66294J0D01*
G03X18162413Y6060181I-66294J0D01*
G37*
G36*
G01X18209006Y6946900D02*
G03X18341594Y6946900I66294J0D01*
G03X18209006Y6946900I-66294J0D01*
G37*
G36*
G01X18272506Y5003800D02*
G03X18362354Y4941831I66294J0D01*
G03X18460707Y4895507I65346J11169D01*
G03X18470294Y5003800I-33007J57493D01*
G03X18460707Y5112093I-42594J50800D01*
G03X18362354Y5065769I-33007J-57493D01*
G03X18272506Y5003800I-23554J-61969D01*
G37*
G36*
G01X18353116Y3600450D02*
G03X18402300Y3489706I49184J-44450D01*
G03X18451484Y3600450I0J66294D01*
G03X18451484Y3689350I-49184J44450D01*
G03X18451484Y3778250I-49184J44450D01*
G03X18402300Y3888994I-49184J44450D01*
G03X18353116Y3778250I0J-66294D01*
G03X18353116Y3689350I49184J-44450D01*
G03X18353116Y3600450I49184J-44450D01*
G37*
G36*
G01X18478500Y5559806D02*
G03X18527684Y5670550I0J66294D01*
G03X18478500Y5781294I-49184J44450D01*
G03X18429316Y5670550I0J-66294D01*
G03X18478500Y5559806I49184J-44450D01*
G37*
%LPD*%
G54D10*
G01X13777214Y3399300D02*
G01X13777214Y5450586D01*
G01X13881559Y5450586D01*
G01X13992809Y5339336D01*
G03X14000173Y5336286I7364J7364D01*
G01X14841986Y5336286D01*
G01X15296136Y4882136D01*
G03X15303500Y4879086I7364J7364D01*
G01X15339629Y4879086D01*
G03X15470571Y4879086I65471J10414D01*
G01X15481300Y4879086D01*
G03X15488664Y4882136I0J10414D01*
G01X15564864Y4958336D01*
G03X15567914Y4965700I-7364J7364D01*
G01X15567914Y6256786D01*
G01X15612614Y6301486D01*
G01X15677419Y6301486D01*
G03X15722600Y6283706I45181J48514D01*
G03X15767781Y6301486I0J66294D01*
G01X15815334Y6301486D01*
G03X15849600Y6276086I34266J10414D01*
G01X17729200Y6276086D01*
G03X17765014Y6311900I0J35814D01*
G01X17765014Y7063486D01*
G01X18441328Y7063486D01*
G02X18705514Y6799237I0J-264186D01*
G01X18705337Y6062800D01*
G01X18705337Y4384114D01*
G01X18566150Y4384114D01*
G03X18530336Y4348300I0J-35814D01*
G01X18530336Y4008300D01*
G03X18566150Y3972486I35814J0D01*
G01X18705337Y3972486D01*
G01X18705337Y3399300D01*
G02X18441151Y3135114I-264186J0D01*
G01X14041400Y3135114D01*
G02X13777214Y3399300I0J264186D01*
G01X13831916Y3816350D02*
G03X13814806Y3771900I49184J-44450D01*
G03X13831916Y3727450I66294J0D01*
G03X13881100Y3616706I49184J-44450D01*
G03X13930284Y3727450I0J66294D01*
G03X13947394Y3771900I-49184J44450D01*
G03X13930284Y3816350I-66294J0D01*
G03X13930284Y3905250I-49184J44450D01*
G03X13881100Y4015994I-49184J44450D01*
G03X13831916Y3905250I0J-66294D01*
G03X13831916Y3816350I49184J-44450D01*
G01X13881100Y4073906D02*
G03X13930284Y4184650I0J66294D01*
G03X13930284Y4273550I-49184J44450D01*
G03X13930284Y4362450I-49184J44450D01*
G03X13881100Y4473194I-49184J44450D01*
G03X13831916Y4362450I0J-66294D01*
G03X13831916Y4273550I49184J-44450D01*
G03X13831916Y4184650I49184J-44450D01*
G03X13881100Y4073906I49184J-44450D01*
G01X14589505Y3585260D02*
G03X14722093Y3585260I66294J0D01*
G03X14589505Y3585260I-66294J0D01*
G01X14703806Y3492500D02*
G03X14836394Y3492500I66294J0D01*
G03X14703806Y3492500I-66294J0D01*
G01X14856206Y3238500D02*
G03X14988794Y3238500I66294J0D01*
G03X14856206Y3238500I-66294J0D01*
G01X15367000Y3972306D02*
G03X15409594Y4089400I0J66294D01*
G03X15367000Y4206494I-42594J50800D01*
G03X15324406Y4089400I0J-66294D01*
G03X15367000Y3972306I42594J-50800D01*
G01X15459823Y4568077D02*
G03X15503963Y4454963I46877J-46877D01*
G03X15617077Y4410823I66237J2737D01*
G03X15572937Y4523937I-46877J46877D01*
G03X15459823Y4568077I-66237J-2737D01*
G01X15440406Y3251200D02*
G03X15551150Y3202016I66294J0D01*
G03X15640050Y3202016I44450J49184D01*
G03X15728950Y3202016I44450J49184D01*
G03X15839694Y3251200I44450J49184D01*
G03X15728950Y3300384I-66294J0D01*
G03X15640050Y3300384I-44450J-49184D01*
G03X15551150Y3300384I-44450J-49184D01*
G03X15440406Y3251200I-44450J-49184D01*
G01X15619346Y5575758D02*
G03X15689804Y5521919I65154J12242D01*
G03X15762225Y5413120I45496J-48219D01*
G03X15729996Y5539781I-26925J60580D01*
G03X15703543Y5651500I-45496J48219D01*
G03X15684500Y5781294I-19043J63500D01*
G03X15665457Y5651500I0J-66294D01*
G03X15619346Y5575758I19043J-63500D01*
G01X16143585Y3629406D02*
G03X16208863Y3707261I0J66294D01*
G03X16238307Y3707261I14722J64639D01*
G03X16303585Y3629406I65278J-11561D01*
G03X16368863Y3707261I0J66294D01*
G03X16431588Y3817623I14722J64639D01*
G03X16318307Y3760339I-48003J-45723D01*
G03X16288863Y3760339I-14722J-64639D01*
G03X16223585Y3838194I-65278J11561D01*
G03X16158307Y3760339I0J-66294D01*
G03X16128863Y3760339I-14722J-64639D01*
G03X16015582Y3817623I-65278J11561D01*
G03X16078307Y3707261I48003J-45723D01*
G03X16143585Y3629406I65278J-11561D01*
G01X16011906Y4826000D02*
G03X16144494Y4826000I66294J0D01*
G03X16011906Y4826000I-66294J0D01*
G01X16075406Y4953000D02*
G03X16207994Y4953000I66294J0D01*
G03X16075406Y4953000I-66294J0D01*
G01X16138906Y5080000D02*
G03X16271494Y5080000I66294J0D01*
G03X16138906Y5080000I-66294J0D01*
G01X16202406Y5207000D02*
G03X16334994Y5207000I66294J0D01*
G03X16202406Y5207000I-66294J0D01*
G01X16278606Y5346700D02*
G03X16411194Y5346700I66294J0D01*
G03X16278606Y5346700I-66294J0D01*
G01X16596106Y6121400D02*
G03X16706850Y6072216I66294J0D01*
G03X16795750Y6072216I44450J49184D01*
G03X16884650Y6072216I44450J49184D01*
G03X16995394Y6121400I44450J49184D01*
G03X16884650Y6170584I-66294J0D01*
G03X16795750Y6170584I-44450J-49184D01*
G03X16706850Y6170584I-44450J-49184D01*
G03X16596106Y6121400I-44450J-49184D01*
G01X16926306Y4610100D02*
G03X17058894Y4610100I66294J0D01*
G03X16926306Y4610100I-66294J0D01*
G01X16932395Y4025900D02*
G03X17064983Y4025900I66294J0D01*
G03X16932395Y4025900I-66294J0D01*
G01X17384684Y4997450D02*
G03X17384684Y5086350I-49184J44450D01*
G03X17368044Y5188556I-49184J44450D01*
G03X17272000Y5149843I-32544J-57756D01*
G03X17175956Y5188556I-63500J-19043D01*
G03X17159316Y5086350I32544J-57756D01*
G03X17159316Y4997450I49184J-44450D01*
G03X17159316Y4908550I49184J-44450D01*
G03X17175956Y4806344I49184J-44450D01*
G03X17272000Y4845057I32544J57756D01*
G03X17368044Y4806344I63500J19043D01*
G03X17384684Y4908550I-32544J57756D01*
G03X17384684Y4997450I-49184J44450D01*
G01X17218406Y3251200D02*
G03X17329150Y3202016I66294J0D01*
G03X17418050Y3202016I44450J49184D01*
G03X17506950Y3202016I44450J49184D01*
G03X17617694Y3251200I44450J49184D01*
G03X17506950Y3300384I-66294J0D01*
G03X17418050Y3300384I-44450J-49184D01*
G03X17329150Y3300384I-44450J-49184D01*
G03X17218406Y3251200I-44450J-49184D01*
G01X17849850Y3300384D02*
G03X17739106Y3251200I-44450J-49184D01*
G03X17849850Y3202016I66294J0D01*
G03X17938750Y3202016I44450J49184D01*
G03X18027650Y3202016I44450J49184D01*
G03X18138394Y3251200I44450J49184D01*
G03X18027650Y3300384I-66294J0D01*
G03X17938750Y3300384I-44450J-49184D01*
G03X17849850Y3300384I-44450J-49184D01*
G01X17860886Y3594100D02*
G03X18232514Y3594100I185814J0D01*
G03X17860886Y3594100I-185814J0D01*
G01X17932400Y4670806D02*
G03X17951443Y4800600I0J66294D01*
G03X17932400Y4930394I-19043J63500D01*
G03X17913357Y4800600I0J-66294D01*
G03X17932400Y4670806I19043J-63500D01*
G01X17942306Y6946900D02*
G03X18072100Y6927857I66294J0D01*
G03X18201894Y6946900I63500J19043D01*
G03X18072100Y6965943I-66294J0D01*
G03X17942306Y6946900I-63500J-19043D01*
G01X17987123Y5503023D02*
G03X18100237Y5547163I46877J46877D01*
G03X18144377Y5660277I-2737J66237D01*
G03X18031263Y5616137I-46877J-46877D01*
G03X17987123Y5503023I2737J-66237D01*
G01X18005806Y6400800D02*
G03X18138394Y6400800I66294J0D01*
G03X18005806Y6400800I-66294J0D01*
G01X18284114Y6767500D02*
G03X18248300Y6803314I-35814J0D01*
G01X18048300Y6803314D01*
G03X18012486Y6767500I0J-35814D01*
G01X18012486Y6567500D01*
G03X18048300Y6531686I35814J0D01*
G01X18248300Y6531686D01*
G03X18284114Y6567500I0J35814D01*
G01X18284114Y6600587D01*
G03X18538114Y6667500I118186J66913D01*
G03X18284114Y6734413I-135814J0D01*
G01X18284114Y6767500D01*
G01X18162413Y6060181D02*
G03X18295001Y6060181I66294J0D01*
G03X18162413Y6060181I-66294J0D01*
G01X18209006Y6946900D02*
G03X18341594Y6946900I66294J0D01*
G03X18209006Y6946900I-66294J0D01*
G01X18272506Y5003800D02*
G03X18362354Y4941831I66294J0D01*
G03X18460707Y4895507I65346J11169D01*
G03X18470294Y5003800I-33007J57493D01*
G03X18460707Y5112093I-42594J50800D01*
G03X18362354Y5065769I-33007J-57493D01*
G03X18272506Y5003800I-23554J-61969D01*
G01X18353116Y3600450D02*
G03X18402300Y3489706I49184J-44450D01*
G03X18451484Y3600450I0J66294D01*
G03X18451484Y3689350I-49184J44450D01*
G03X18451484Y3778250I-49184J44450D01*
G03X18402300Y3888994I-49184J44450D01*
G03X18353116Y3778250I0J-66294D01*
G03X18353116Y3689350I49184J-44450D01*
G03X18353116Y3600450I49184J-44450D01*
G01X18478500Y5559806D02*
G03X18527684Y5670550I0J66294D01*
G03X18478500Y5781294I-49184J44450D01*
G03X18429316Y5670550I0J-66294D01*
G03X18478500Y5559806I49184J-44450D01*
G04 Copper End*

G04 PolygonModel Start*
G36*
G01X14611148Y6114890D02*
G01X14611148Y6032500D01*
G01X14569974Y5991326D01*
G01X14618508Y5942792D01*
G01X14929932Y5942792D01*
G01X14974499Y5987360D01*
G01X14846969Y6114890D01*
G01X14611148Y6114890D01*
G37*

G04 TearDrop Start*
G36*
G01X14609755Y5932573D02*
G01X14552425Y5983007D01*
G01X14554449Y5984355D01*
G01X14556850Y5984862D01*
G01X14559560Y5984655D01*
G01X14562508Y5983861D01*
G01X14568836Y5981019D01*
G01X14575276Y5977349D01*
G01X14581264Y5973867D01*
G01X14586241Y5971587D01*
G01X14588174Y5971215D01*
G01X14589644Y5971524D01*
G01X14590581Y5972641D01*
G01X14590914Y5974692D01*
G01X14627718Y5944784D01*
G01X14622549Y5942966D01*
G01X14617969Y5940091D01*
G01X14613773Y5936510D01*
G01X14609755Y5932573D01*
G37*
G36*
G01X14621718Y6012701D02*
G03X14806659Y6056359I0J413544D01*
G01X14942299Y5974601D01*
G01X14980399Y5882619D01*
G03X14697918Y5936501I-282481J-713532D01*
G01X14621718Y6012701D01*
G37*
G04 TearDrop End*

G04 Pad Start*
G54D11*
G01X18046700Y3594100D03*
G01X15532100Y6731000D03*
G54D12*
G01X15076400Y6523890D03*
G01X14211403Y6523890D03*
G54D13*
G01X15076400Y6943904D03*
G01X14211403Y6943904D03*
G54D14*
G01X18148300Y6667500D03*
G54D16*
G01X18402300Y6667500D03*
G04 Pad End*

G04 Via Start*
G54D17*
G01X15036800Y6311900D03*
G01X14198600Y6296406D03*
G01X16063585Y3771900D03*
G01X16143585Y3695700D03*
G01X16223585Y3771900D03*
G01X16303585Y3695700D03*
G01X16383585Y3771900D03*
G01X16755891Y3949700D03*
G01X16998689Y4025900D03*
G01X14922500Y3238500D03*
G01X14770100Y3492500D03*
G01X14643099Y3195139D03*
G01X14198601Y3962400D03*
G01X18313400Y4559300D03*
G01X14621394Y5974601D03*
G01X15430500Y5180782D03*
G01X14544104Y5168900D03*
G01X14544104Y5250709D03*
G01X15430500Y5092700D03*
G01X14643100Y6083300D03*
G01X14058405Y5435105D03*
G01X15163800Y4229100D03*
G01X15684500Y5715000D03*
G01X15684500Y5588000D03*
G01X15735300Y5473700D03*
G01X15735300Y6159500D03*
G01X15659955Y6159500D03*
G01X16344900Y5346700D03*
G01X16268700Y5207000D03*
G01X16205200Y5080000D03*
G01X16141700Y4953000D03*
G01X16078200Y4826000D03*
G01X15240000Y3215950D03*
G01X16992600Y4610100D03*
G01X14655799Y3585260D03*
G01X18478500Y5715000D03*
G01X18478500Y5626100D03*
G01X18008600Y6946900D03*
G01X18135600Y6946900D03*
G01X18275300Y6946900D03*
G01X18427700Y5054600D03*
G01X18427700Y4953000D03*
G01X18338800Y5003800D03*
G01X17932400Y4864100D03*
G01X17932400Y4737100D03*
G01X18402300Y3822700D03*
G01X18402300Y3733800D03*
G01X18402300Y3644900D03*
G01X18402300Y3556000D03*
G01X17805400Y3251200D03*
G01X17894300Y3251200D03*
G01X17983200Y3251200D03*
G01X18072100Y3251200D03*
G01X17284700Y3251200D03*
G01X17373600Y3251200D03*
G01X17462500Y3251200D03*
G01X17551400Y3251200D03*
G01X17335500Y5130800D03*
G01X17335500Y5041900D03*
G01X17335500Y4953000D03*
G01X17335500Y4864100D03*
G01X17208500Y5130800D03*
G01X17208500Y5041900D03*
G01X17208500Y4953000D03*
G01X17208500Y4864100D03*
G01X15506700Y3251200D03*
G01X15595600Y3251200D03*
G01X15684500Y3251200D03*
G01X15773400Y3251200D03*
G01X13881100Y3949700D03*
G01X13881100Y3860800D03*
G01X13881100Y3771900D03*
G01X13881100Y3683000D03*
G01X13881100Y4406900D03*
G01X13881100Y4318000D03*
G01X13881100Y4229100D03*
G01X13881100Y4140200D03*
G01X15405100Y4889500D03*
G01X18097500Y5613400D03*
G01X18034000Y5549900D03*
G01X18228707Y6060181D03*
G01X15401539Y6994704D03*
G01X15490439Y6994704D03*
G01X15579339Y6994704D03*
G01X15668239Y6994704D03*
G01X15722600Y6350000D03*
G01X15722600Y6438900D03*
G01X15722600Y6527800D03*
G01X16662400Y6121400D03*
G01X16751300Y6121400D03*
G01X16840200Y6121400D03*
G01X16929100Y6121400D03*
G01X13881100Y6235700D03*
G01X13881100Y6324600D03*
G01X13881100Y6413500D03*
G01X13881100Y6502400D03*
G01X13881100Y5715000D03*
G01X13881100Y5803900D03*
G01X13881100Y5892800D03*
G01X13881100Y5981700D03*
G01X14744700Y5461000D03*
G01X15570200Y4457700D03*
G01X15506700Y4521200D03*
G01X15367000Y4140200D03*
G01X15367000Y4038600D03*
G01X14744700Y5562600D03*
G01X18072100Y6400800D03*
G04 Via End*

G04 Track Start*
G54D18*
G01X14058405Y5435105D02*
G01X14597901Y5974601D01*
G01X14621394Y5974601D01*
G01X15430500Y5180782D02*
G01X15138400Y5472882D01*
G01X15138400Y5778500D01*
G01X14942299Y5974601D01*
G01X14621394Y5974601D01*
G01X15036800Y6311900D02*
G01X15151100Y6311900D01*
G01X15227300Y6388100D01*
G01X14033500Y6375400D02*
G01X14112494Y6296406D01*
G01X14198600Y6296406D01*
G01X15430500Y5092700D02*
G01X15430500Y5180782D01*
G01X14643100Y6083300D02*
G01X14833600Y6083300D01*
G01X14942299Y5974601D01*
G01X15227300Y6388100D02*
G01X15227300Y6642100D01*
G01X15138400Y6731000D01*
G01X14122400Y6731000D01*
G01X14033500Y6642100D01*
G01X14033500Y6375400D01*
G04 Track End*

M02*

