G04 Layer: TopSolderMaskLayer*
G04 EasyEDA Pro v2.2.34.8, 2025-02-19 17:22:18*
G04 Gerber Generator version 0.3*
G04 Scale: 100 percent, Rotated: No, Reflected: No*
G04 Dimensions in millimeters*
G04 Leading zeros omitted, absolute positions, 4 integers and 5 decimals*
%FSLAX45Y45*%
%MOMM*%
%AMRoundRect*1,1,$1,$2,$3*1,1,$1,$4,$5*1,1,$1,0-$2,0-$3*1,1,$1,0-$4,0-$5*20,1,$1,$2,$3,$4,$5,0*20,1,$1,$4,$5,0-$2,0-$3,0*20,1,$1,0-$2,0-$3,0-$4,0-$5,0*20,1,$1,0-$4,0-$5,$2,$3,0*4,1,4,$2,$3,$4,$5,0-$2,0-$3,0-$4,0-$5,$2,$3,0*%
%ADD10C,3.1016*%
%ADD11RoundRect,0.49645X-0.25257X-0.20257X-0.25257X0.20257*%
%ADD12RoundRect,0.25388X-0.19386X-0.31891X-0.19386X0.31891*%
%ADD13RoundRect,0.29304X0.20428X0.10428X0.20428X-0.10428*%
%ADD14RoundRect,0.29304X0.10428X-0.20428X-0.10428X-0.20428*%
%ADD15RoundRect,0.29304X-0.10428X0.20428X0.10428X0.20428*%
%ADD16RoundRect,0.08771X-0.40199X0.27695X0.40199X0.27695*%
%ADD17RoundRect,0.08771X0.40199X-0.27695X-0.40199X-0.27695*%
%ADD18RoundRect,0.29304X-0.20428X-0.10428X-0.20428X0.10428*%
%ADD19RoundRect,0.08771X0.27695X0.40199X0.27695X-0.40199*%
%ADD20RoundRect,0.19677X-0.21842X0.48842X0.21842X0.48842*%
%ADD21RoundRect,0.09302X-0.50429X-0.52929X-0.50429X0.52929*%
%ADD22RoundRect,0.08449X0.20856X-0.30856X-0.20856X-0.30856*%
%ADD23RoundRect,0.08449X-0.30856X-0.20856X-0.30856X0.20856*%
%ADD24RoundRect,0.08449X0.30856X0.20856X0.30856X-0.20856*%
%ADD25RoundRect,0.08671X0.25244X-0.58594X-0.25244X-0.58594*%
%ADD26RoundRect,0.08671X0.25244X-0.59495X-0.25244X-0.59495*%
%ADD27RoundRect,0.09017X0.35571X0.40571X0.35571X-0.40571*%
%ADD28RoundRect,0.09017X0.35571X-0.35571X-0.35571X-0.35571*%
%ADD29RoundRect,0.08692X-0.25734X-0.47533X-0.25734X0.47533*%
%ADD30RoundRect,0.08449X-0.30853X0.20856X0.30853X0.20856*%
%ADD31RoundRect,0.09618X0.85271X0.85271X0.85271X-0.85271*%
%ADD32RoundRect,0.076X0.4128X0.1128X0.4128X-0.1128*%
%ADD33RoundRect,0.076X0.1128X-0.4128X-0.1128X-0.4128*%
%ADD34RoundRect,0.076X-0.4128X-0.1128X-0.4128X0.1128*%
%ADD35O,1.7936X0.46561*%
%ADD36O,0.5016X3.1016*%
%ADD37RoundRect,0.08449X-0.20856X0.30856X0.20856X0.30856*%
%ADD38RoundRect,0.08669X0.28168X-0.55667X-0.28168X-0.55667*%
%ADD39RoundRect,0.08002X0.16X-0.56X-0.16X-0.56*%
%ADD40O,1.20002X2.10002*%
%ADD41O,1.30002X1.90002*%
%ADD42RoundRect,0.09093X-0.75455X0.45455X0.75455X0.45455*%
%ADD43RoundRect,0.09093X-0.45455X-0.75455X-0.45455X0.75455*%
%ADD44RoundRect,0.09093X0.75455X-0.45455X-0.75455X-0.45455*%
%ADD45RoundRect,0.09224X-0.45468X-0.45468X-0.45468X0.45468*%
%ADD46RoundRect,0.08752X-0.30625X-0.35625X-0.30625X0.35625*%
%ADD47RoundRect,0.08949X-0.93027X-0.38027X-0.93027X0.38027*%
%ADD48RoundRect,0.08891X0.85556X0.35556X0.85556X-0.35556*%
%ADD49RoundRect,0.09502X1.2525X0.9025X1.2525X-0.9025*%
%ADD50RoundRect,0.09691X-1.00234X1.00234X1.00234X1.00234*%
%ADD51C,2.1016*%
G75*


G04 Pad Start*
G54D10*
G01X18046700Y3594100D03*
G01X15532100Y6731000D03*
G54D11*
G01X15354300Y6127902D03*
G01X15354300Y5987898D03*
G54D12*
G01X15506700Y6125108D03*
G01X15506700Y6016092D03*
G54D13*
G01X15633700Y5922600D03*
G01X15633700Y5837600D03*
G54D14*
G01X14596700Y5854700D03*
G01X14511700Y5854700D03*
G54D15*
G01X14459104Y5341994D03*
G01X14544104Y5341994D03*
G54D12*
G01X18379773Y4256618D03*
G01X18379773Y4147602D03*
G54D16*
G01X16632598Y3878174D03*
G01X16523582Y3878174D03*
G54D15*
G01X16535590Y3763874D03*
G01X16620590Y3763874D03*
G54D14*
G01X14541222Y3651762D03*
G01X14456222Y3651762D03*
G01X14541222Y3746819D03*
G01X14456222Y3746819D03*
G54D17*
G01X15030242Y3330249D03*
G01X15139259Y3330249D03*
G54D14*
G01X15127250Y3444549D03*
G01X15042250Y3444549D03*
G54D17*
G01X14192042Y3571549D03*
G01X14301059Y3571549D03*
G54D14*
G01X14289050Y3685849D03*
G01X14204050Y3685849D03*
G01X14541222Y3849181D03*
G01X14456222Y3849181D03*
G54D18*
G01X14662383Y4031068D03*
G01X14662383Y4116068D03*
G54D19*
G01X14668500Y4974692D03*
G01X14668500Y5083708D03*
G54D18*
G01X14752722Y4030739D03*
G01X14752722Y4115739D03*
G01X14842942Y4030832D03*
G01X14842942Y4115832D03*
G54D19*
G01X14827135Y4273822D03*
G01X14827135Y4382839D03*
G01X14668500Y4669892D03*
G01X14668500Y4778908D03*
G54D18*
G01X14933398Y4030907D03*
G01X14933398Y4115907D03*
G54D19*
G01X14941435Y4274409D03*
G01X14941435Y4383426D03*
G54D18*
G01X15023618Y4031191D03*
G01X15023618Y4116191D03*
G54D13*
G01X15033950Y4591949D03*
G01X15033950Y4506949D03*
G54D19*
G01X15023431Y5168381D03*
G01X15023431Y5277397D03*
G01X15143550Y5168761D03*
G01X15143550Y5277778D03*
G54D18*
G01X15250479Y5180689D03*
G01X15250479Y5265689D03*
G54D13*
G01X15341152Y5265782D03*
G01X15341152Y5180782D03*
G54D20*
G01X14751304Y5841390D03*
G01X14846300Y5841390D03*
G01X14941296Y5841390D03*
G01X14941296Y6071210D03*
G01X14846300Y6071210D03*
G01X14751304Y6071210D03*
G54D21*
G01X14363700Y6296406D03*
G01X14363700Y5946394D03*
G54D22*
G01X15129846Y3215950D03*
G01X15044846Y3215950D03*
G54D23*
G01X14198601Y3780200D03*
G01X14198601Y3865200D03*
G01X14300201Y3780200D03*
G01X14300201Y3865200D03*
G54D24*
G01X15114973Y4115488D03*
G01X15114973Y4030488D03*
G54D25*
G01X14547596Y5703367D03*
G01X14452600Y5703367D03*
G01X14357604Y5703367D03*
G54D26*
G01X14357604Y5472633D03*
G01X14547596Y5472633D03*
G54D27*
G01X18645553Y4761662D03*
G01X18645553Y4581652D03*
G54D28*
G01X14297071Y3233754D03*
G01X14297071Y3426743D03*
G01X14196030Y3426743D03*
G01X14196030Y3233754D03*
G54D29*
G01X16998689Y3904463D03*
G01X16868691Y3904463D03*
G01X16933690Y3724885D03*
G54D24*
G01X15633699Y6087700D03*
G01X15633699Y6002700D03*
G54D23*
G01X18376901Y4377100D03*
G01X18376901Y4462100D03*
G54D22*
G01X18637253Y4874858D03*
G01X18552253Y4874858D03*
G54D23*
G01X16755891Y3772174D03*
G01X16755891Y3857174D03*
G54D24*
G01X14770099Y3420700D03*
G01X14770099Y3335700D03*
G01X14643099Y3420700D03*
G01X14643099Y3335700D03*
G54D23*
G01X14871701Y3335700D03*
G01X14871701Y3420700D03*
G54D22*
G01X15280294Y3556699D03*
G01X15195294Y3556699D03*
G01X15280294Y3645982D03*
G01X15195294Y3645982D03*
G01X15280294Y3735182D03*
G01X15195294Y3735182D03*
G01X15280294Y3824244D03*
G01X15195294Y3824244D03*
G54D23*
G01X14830751Y4506949D03*
G01X14830751Y4591949D03*
G01X14932351Y4506949D03*
G01X14932351Y4591949D03*
G01X15135551Y4506949D03*
G01X15135551Y4591949D03*
G54D30*
G01X14516100Y5974601D03*
G36*
G01X14486100Y6065180D02*
G01X14546100Y6065180D01*
G02X14551180Y6060100I0J-5080D01*
G01X14551180Y6019099D01*
G02X14546100Y6014019I-5080J0D01*
G01X14496100Y6014019D01*
G02X14492926Y6015132I0J5080D01*
G01X14482926Y6023133D01*
G02X14481020Y6027100I3174J3967D01*
G01X14481020Y6060100D01*
G02X14486100Y6065180I5080J0D01*
G37*
G54D31*
G01X14877819Y3733296D03*
G54D32*
G01X14727806Y3653311D03*
G01X14727806Y3693316D03*
G01X14727806Y3733321D03*
G01X14727806Y3773301D03*
G01X14727806Y3813306D03*
G54D33*
G01X14797809Y3883308D03*
G01X14837814Y3883308D03*
G01X14877819Y3883308D03*
G01X14917824Y3883308D03*
G01X14957829Y3883308D03*
G54D34*
G01X15027806Y3813280D03*
G01X15027806Y3773275D03*
G01X15027806Y3733296D03*
G01X15027806Y3693291D03*
G01X15027806Y3653286D03*
G54D33*
G01X14957829Y3583309D03*
G01X14917824Y3583309D03*
G01X14877819Y3583309D03*
G01X14837814Y3583309D03*
G01X14797809Y3583309D03*
G54D35*
G01X15264105Y4779289D03*
G01X15264105Y4844313D03*
G01X15264105Y4909312D03*
G01X15264105Y4974311D03*
G01X14834895Y4779289D03*
G01X14834895Y4844313D03*
G01X14834895Y4909312D03*
G01X14834895Y4974311D03*
G54D36*
G01X16863585Y3378200D03*
G01X16783585Y3378200D03*
G01X16703585Y3378200D03*
G01X16623585Y3378200D03*
G01X16543585Y3378200D03*
G01X16463585Y3378200D03*
G01X16383585Y3378200D03*
G01X16303585Y3378200D03*
G01X16223585Y3378200D03*
G01X16143585Y3378200D03*
G01X16063585Y3378200D03*
G01X15983585Y3378200D03*
G54D24*
G01X14516099Y6227400D03*
G01X14516099Y6142400D03*
G54D37*
G01X14778400Y6286499D03*
G01X14863400Y6286499D03*
G54D38*
G01X14963903Y6468899D03*
G01X14883893Y6468899D03*
G54D39*
G01X14818895Y6468899D03*
G01X14768882Y6468899D03*
G01X14718895Y6468899D03*
G01X14668908Y6468899D03*
G01X14618895Y6468899D03*
G01X14568908Y6468899D03*
G01X14518895Y6468899D03*
G01X14468883Y6468899D03*
G54D38*
G01X14403884Y6468899D03*
G01X14323899Y6468899D03*
G54D40*
G01X15076400Y6523890D03*
G01X14211403Y6523890D03*
G54D41*
G01X15076400Y6943904D03*
G01X14211403Y6943904D03*
G54D42*
G01X15914395Y6198095D03*
G01X15914395Y6071095D03*
G01X15914395Y5944095D03*
G01X15914395Y5817095D03*
G01X15914395Y5690095D03*
G01X15914395Y5563095D03*
G01X15914395Y5436095D03*
G01X15914395Y5309095D03*
G01X15914395Y5182095D03*
G01X15914395Y5055095D03*
G01X15914395Y4928095D03*
G01X15914395Y4801095D03*
G01X15914395Y4674095D03*
G01X15914395Y4547095D03*
G54D43*
G01X16090900Y4419105D03*
G01X16217900Y4419105D03*
G01X16344900Y4419105D03*
G01X16471900Y4419105D03*
G01X16598900Y4419105D03*
G01X16725900Y4419105D03*
G01X16852900Y4419105D03*
G01X16979900Y4419105D03*
G01X17106900Y4419105D03*
G01X17233900Y4419105D03*
G01X17360900Y4419105D03*
G01X17487900Y4422102D03*
G54D44*
G01X17664405Y4547095D03*
G01X17664405Y4674095D03*
G01X17664405Y4801095D03*
G01X17664405Y4928095D03*
G01X17664405Y5055095D03*
G01X17664405Y5182095D03*
G01X17664405Y5309095D03*
G01X17664405Y5436095D03*
G01X17664405Y5563095D03*
G01X17664405Y5690095D03*
G01X17664405Y5817095D03*
G01X17664405Y5944095D03*
G01X17664405Y6071095D03*
G01X17664405Y6198095D03*
G54D45*
G01X16779392Y5286083D03*
G01X16639388Y5286083D03*
G01X16499383Y5286083D03*
G01X16499383Y5566093D03*
G01X16639388Y5566093D03*
G01X16779392Y5566093D03*
G01X16779392Y5426088D03*
G01X16499383Y5426088D03*
G01X16639388Y5426088D03*
G54D46*
G01X18511149Y4263301D03*
G01X18511149Y4093299D03*
G54D47*
G01X18623646Y3945801D03*
G01X18623646Y4410799D03*
G54D48*
G01X14475341Y4938079D03*
G01X14475341Y4813085D03*
G54D49*
G01X14225329Y5183087D03*
G01X14225329Y4568077D03*
G54D50*
G01X18148300Y6667500D03*
G54D51*
G01X18402300Y6667500D03*
G04 Pad End*

M02*

