G04 Layer: TopLayer*
G04 EasyEDA Pro v2.2.34.8, 2025-02-19 17:22:18*
G04 Gerber Generator version 0.3*
G04 Scale: 100 percent, Rotated: No, Reflected: No*
G04 Dimensions in millimeters*
G04 Leading zeros omitted, absolute positions, 4 integers and 5 decimals*
%FSLAX45Y45*%
%MOMM*%
%AMRoundRect*1,1,$1,$2,$3*1,1,$1,$4,$5*1,1,$1,0-$2,0-$3*1,1,$1,0-$4,0-$5*20,1,$1,$2,$3,$4,$5,0*20,1,$1,$4,$5,0-$2,0-$3,0*20,1,$1,0-$2,0-$3,0-$4,0-$5,0*20,1,$1,0-$4,0-$5,$2,$3,0*4,1,4,$2,$3,$4,$5,0-$2,0-$3,0-$4,0-$5,$2,$3,0*%
%AMPolygonMacro1*4,1,5,0.3,-0.205,-0.2,-0.205,-0.3,-0.12499,-0.3,0.205,0.3,0.205,0.3,-0.205,0*%
%ADD10C,0.2032*%
%ADD11C,3.0*%
%ADD12RoundRect,0.4X-0.25X-0.2X-0.25X0.2*%
%ADD13RoundRect,0.162X-0.189X-0.31405X-0.189X0.31405*%
%ADD14RoundRect,0.2X0.2X0.1X0.2X-0.1*%
%ADD15RoundRect,0.2033X0.1X-0.2X-0.1X-0.2*%
%ADD16RoundRect,0.2X0.1X-0.2X-0.1X-0.2*%
%ADD17RoundRect,0.2X-0.1X0.2X0.1X0.2*%
%ADD18R,0.79009X0.54*%
%ADD19R,0.79009X0.54*%
%ADD20RoundRect,0.2X-0.2X-0.1X-0.2X0.1*%
%ADD21R,0.54X0.79009*%
%ADD22RoundRect,0.1064X-0.2128X0.4828X0.2128X0.4828*%
%ADD23R,1.0X1.05001*%
%ADD24R,0.4X0.6*%
%ADD25R,0.6X0.4*%
%ADD26R,0.6X0.4*%
%ADD27R,0.48999X1.157*%
%ADD28R,0.48999X1.175*%
%ADD29R,0.7X0.8*%
%ADD30R,0.7X0.7*%
%ADD31R,0.5X0.93599*%
%ADD32R,0.59995X0.4*%
%ADD33PolygonMacro1*%
%ADD34R,1.7X1.7*%
%ADD35R,0.8X0.2*%
%ADD36R,0.2X0.8*%
%ADD37R,0.8X0.2*%
%ADD38O,1.692X0.36401*%
%ADD39O,0.4X3.0*%
%ADD40R,0.4X0.6*%
%ADD41R,0.55001X1.1*%
%ADD42R,0.3X1.1*%
%ADD43O,1.1X2.0*%
%ADD44O,1.2X1.8*%
%ADD45R,1.5X0.9*%
%ADD46R,0.9X1.5*%
%ADD47R,1.5X0.9*%
%ADD48R,0.9X0.9*%
%ADD49R,0.6X0.7*%
%ADD50R,1.85001X0.75001*%
%ADD51R,1.7X0.7*%
%ADD52R,2.49999X1.8*%
%ADD53R,2.0X2.0*%
%ADD54C,2.0*%
%ADD55C,0.6096*%
%ADD56C,0.508*%
%ADD57C,0.254*%
%ADD58C,0.29972*%
%ADD59C,0.39878*%
%ADD60C,0.381*%
%ADD61C,0.50038*%
%ADD62C,0.20066*%
%ADD63C,0.49022*%
%ADD64C,0.635*%
G75*


G04 Copper Start*
G36*
G01X14579175Y3177571D02*
G03X14614959Y3135114I63924J17568D01*
G01X14041400Y3135114D01*
G02X13777214Y3399300I0J264186D01*
G01X13777214Y6799300D01*
G02X14041300Y7063486I264099J87D01*
G01X15813786Y7063486D01*
G01X15813786Y6311900D01*
G03X15849600Y6276086I35814J0D01*
G01X17729200Y6276086D01*
G03X17765014Y6311900I0J35814D01*
G01X17765014Y7063486D01*
G01X18441328Y7063486D01*
G02X18705514Y6799237I0J-264186D01*
G01X18705337Y6062800D01*
G01X18705337Y4827515D01*
G03X18692734Y4835341I-24784J-25853D01*
G01X18692244Y4837223D01*
G03X18693067Y4844858I-34991J7636D01*
G01X18693067Y4904858D01*
G03X18657253Y4940672I-35814J0D01*
G01X18617253Y4940672D01*
G03X18581439Y4904858I0J-35814D01*
G01X18581439Y4844858D01*
G03X18585867Y4827609I35814J0D01*
G03X18574739Y4801662I24686J-25947D01*
G01X18574739Y4721662D01*
G03X18610553Y4685848I35814J0D01*
G01X18680553Y4685848D01*
G03X18705337Y4695809I0J35814D01*
G01X18705337Y4647505D01*
G03X18680553Y4657466I-24784J-25853D01*
G01X18610553Y4657466D01*
G03X18576208Y4631802I0J-35814D01*
G01X18118609Y5089400D01*
G03X18084305Y5103609I-34305J-34305D01*
G01X17777504Y5103609D01*
G01X17775019Y5103874D01*
G03X17770070Y5118595I-35614J-3779D01*
G03X17775218Y5137095I-30666J18500D01*
G01X17775218Y5227095D01*
G03X17770070Y5245595I-35814J0D01*
G03X17775218Y5264095I-30666J18500D01*
G01X17775218Y5354095D01*
G03X17770070Y5372595I-35814J0D01*
G03X17775218Y5391095I-30666J18500D01*
G01X17775218Y5481095D01*
G03X17770070Y5499595I-35814J0D01*
G03X17775218Y5518095I-30666J18500D01*
G01X17775218Y5608095D01*
G03X17774244Y5616394I-35814J0D01*
G02X17834654Y5622036I60411J-320580D01*
G01X17957800Y5622036D01*
G03X18005575Y5641825I0J67564D01*
G01X18119875Y5756125D01*
G03X18139664Y5803900I-47775J47775D01*
G01X18139664Y6245814D01*
G01X18413299Y6519449D01*
G01X18416586Y6522231D01*
G01X18421116Y6525225D01*
G01X18427623Y6528871D01*
G01X18435397Y6532783D01*
G01X18452804Y6540989D01*
G01X18453201Y6541179D01*
G01X18461321Y6545130D01*
G01X18462635Y6545803D01*
G01X18463152Y6546082D01*
G03X18500733Y6761075I-60852J121418D01*
G03X18284114Y6734413I-98433J-93575D01*
G01X18284114Y6767500D01*
G03X18248300Y6803314I-35814J0D01*
G01X18048300Y6803314D01*
G03X18012486Y6767500I0J-35814D01*
G01X18012486Y6580654D01*
G02X17958935Y6522885I-799091J687046D01*
G01X17846525Y6410475D01*
G03X17826736Y6362700I47775J-47775D01*
G01X17826736Y5920786D01*
G01X17792285Y5886334D01*
G02X17773917Y5889527I26311J205786D01*
G03X17775218Y5899095I-34512J9568D01*
G01X17775218Y5989095D01*
G03X17770070Y6007595I-35814J0D01*
G03X17775218Y6026095I-30666J18500D01*
G01X17775218Y6116095D01*
G03X17739404Y6151909I-35814J0D01*
G01X17589405Y6151909D01*
G03X17553591Y6116095I0J-35814D01*
G01X17553591Y6026095D01*
G03X17558739Y6007595I35814J0D01*
G03X17553591Y5989095I30666J-18500D01*
G01X17553591Y5899095D01*
G03X17558739Y5880595I35814J0D01*
G03X17553591Y5862095I30666J-18500D01*
G01X17553591Y5772095D01*
G03X17558739Y5753595I35814J0D01*
G03X17553591Y5735095I30666J-18500D01*
G01X17553591Y5645095D01*
G03X17558739Y5626595I35814J0D01*
G03X17553591Y5608095I30666J-18500D01*
G01X17553591Y5518095D01*
G03X17558739Y5499595I35814J0D01*
G03X17553591Y5481095I30666J-18500D01*
G01X17553591Y5391095D01*
G03X17558739Y5372595I35814J0D01*
G03X17553591Y5354095I30666J-18500D01*
G01X17553591Y5264095D01*
G03X17558739Y5245595I35814J0D01*
G03X17553591Y5227095I30666J-18500D01*
G01X17553591Y5137095D01*
G03X17558739Y5118595I35814J0D01*
G03X17553591Y5100095I30666J-18500D01*
G01X17553591Y5010095D01*
G03X17558739Y4991595I35814J0D01*
G03X17553591Y4973095I30666J-18500D01*
G01X17553591Y4883095D01*
G03X17558739Y4864595I35814J0D01*
G03X17553591Y4846095I30666J-18500D01*
G01X17553591Y4756095D01*
G03X17558739Y4737595I35814J0D01*
G03X17553591Y4719095I30666J-18500D01*
G01X17553591Y4629095D01*
G03X17558739Y4610595I35814J0D01*
G03X17553591Y4592095I30666J-18500D01*
G01X17553591Y4526334D01*
G03X17532900Y4532916I-20691J-29232D01*
G01X17442900Y4532916D01*
G03X17421927Y4526132I0J-35814D01*
G03X17405900Y4529919I-16027J-32028D01*
G01X17315900Y4529919D01*
G03X17297400Y4524770I0J-35814D01*
G03X17278900Y4529919I-18500J-30666D01*
G01X17188900Y4529919D01*
G03X17170400Y4524770I0J-35814D01*
G03X17151900Y4529919I-18500J-30666D01*
G01X17061900Y4529919D01*
G03X17043400Y4524770I0J-35814D01*
G03X17024900Y4529919I-18500J-30666D01*
G01X16934900Y4529919D01*
G03X16916400Y4524770I0J-35814D01*
G03X16897900Y4529919I-18500J-30666D01*
G01X16807900Y4529919D01*
G03X16789400Y4524770I0J-35814D01*
G03X16770900Y4529919I-18500J-30666D01*
G01X16680900Y4529919D01*
G03X16662400Y4524770I0J-35814D01*
G03X16643900Y4529919I-18500J-30666D01*
G01X16553900Y4529919D01*
G03X16535400Y4524770I0J-35814D01*
G03X16516900Y4529919I-18500J-30666D01*
G01X16426900Y4529919D01*
G03X16408400Y4524770I0J-35814D01*
G03X16389900Y4529919I-18500J-30666D01*
G01X16299900Y4529919D01*
G03X16281400Y4524770I0J-35814D01*
G03X16262900Y4529919I-18500J-30666D01*
G01X16172900Y4529919D01*
G03X16167873Y4529564I0J-35814D01*
G01X16199895Y4561586D01*
G01X16947164Y4561586D01*
G01X16949560Y4559677D01*
G03X17058894Y4610100I43040J50423D01*
G03X16949560Y4660523I-66294J0D01*
G01X16947164Y4658614D01*
G01X16179800Y4658614D01*
G03X16145495Y4644405I0J-48514D01*
G01X16056595Y4555505D01*
G03X16043157Y4529813I34305J-34305D01*
G03X16025209Y4523337I2743J-35709D01*
G01X16025209Y4592095D01*
G03X16020061Y4610595I-35814J0D01*
G03X16025209Y4629095I-30666J18500D01*
G01X16025209Y4719095D01*
G03X16020061Y4737595I-35814J0D01*
G03X16025209Y4756095I-30666J18500D01*
G01X16025209Y4786164D01*
G03X16136300Y4794073I52991J39836D01*
G03X16083416Y4892088I-58100J31927D01*
G01X16080376Y4892433D01*
G01X16034693Y4938116D01*
G02X16025209Y4952466I30830J30685D01*
G01X16025209Y4973095D01*
G03X16020061Y4991595I-35814J0D01*
G03X16024246Y5001845I-30666J18500D01*
G01X16075267Y4950824D01*
G01X16075612Y4947784D01*
G03X16188577Y4906123I66088J5216D01*
G03X16146916Y5019088I-46877J46877D01*
G01X16143876Y5019433D01*
G01X16073909Y5089400D01*
G03X16039605Y5103609I-34305J-34305D01*
G01X16027495Y5103609D01*
G01X16025009Y5103874D01*
G03X16020061Y5118595I-35614J-3779D01*
G03X16025009Y5133317I-30666J18500D01*
G01X16027495Y5133581D01*
G01X16083010Y5133581D01*
G01X16138767Y5077824D01*
G01X16139112Y5074784D01*
G03X16252077Y5033123I66088J5216D01*
G03X16210416Y5146088I-46877J46877D01*
G01X16207376Y5146433D01*
G01X16137409Y5216400D01*
G03X16103105Y5230609I-34305J-34305D01*
G01X16027495Y5230609D01*
G01X16025009Y5230874D01*
G03X16020061Y5245595I-35614J-3779D01*
G03X16025009Y5260317I-30666J18500D01*
G01X16027495Y5260581D01*
G01X16141067Y5260581D01*
G03X16146995Y5260096I6915J48019D01*
G01X16202267Y5204824D01*
G01X16202612Y5201784D01*
G03X16315577Y5160123I66088J5216D01*
G03X16273916Y5273088I-46877J46877D01*
G01X16270876Y5273433D01*
G01X16201405Y5342905D01*
G03X16167100Y5357114I-34305J-34305D01*
G01X16154401Y5357114D01*
G03X16147486Y5357609I-6915J-48019D01*
G01X16027495Y5357609D01*
G01X16025009Y5357874D01*
G03X16020061Y5372595I-35614J-3779D01*
G03X16025009Y5387317I-30666J18500D01*
G01X16027495Y5387581D01*
G01X16235410Y5387581D01*
G01X16278467Y5344524D01*
G01X16278812Y5341484D01*
G03X16391777Y5299823I66088J5216D01*
G03X16350116Y5412788I-46877J46877D01*
G01X16347076Y5413133D01*
G01X16289809Y5470400D01*
G03X16255505Y5484609I-34305J-34305D01*
G01X16027495Y5484609D01*
G01X16025009Y5484874D01*
G03X16020061Y5499595I-35614J-3779D01*
G03X16025209Y5518095I-30666J18500D01*
G01X16025209Y5608095D01*
G03X16020061Y5626595I-35814J0D01*
G03X16025209Y5645095I-30666J18500D01*
G01X16025209Y5735095D01*
G03X16020061Y5753595I-35814J0D01*
G03X16025209Y5772095I-30666J18500D01*
G01X16025209Y5862095D01*
G03X16020061Y5880595I-35814J0D01*
G03X16025209Y5899095I-30666J18500D01*
G01X16025209Y5989095D01*
G03X16020061Y6007595I-35814J0D01*
G03X16025209Y6026095I-30666J18500D01*
G01X16025209Y6116095D01*
G03X16007211Y6147164I-35814J0D01*
G03X15988980Y6152151I-18230J-30827D01*
G01X15854209Y6152151D01*
G01X15785552Y6220808D01*
G03X15760227Y6231298I-25324J-25324D01*
G01X15330929Y6231298D01*
G03X15295115Y6195484I0J-35814D01*
G01X15295115Y6192022D01*
G03X15273486Y6147902I34185J-44120D01*
G01X15273486Y6107902D01*
G03X15329300Y6052088I55814J0D01*
G01X15379300Y6052088D01*
G01X15381819Y6052145D01*
G01X15473610Y6052145D01*
G03X15487800Y6049790I14189J41558D01*
G01X15525600Y6049790D01*
G03X15539790Y6052145I0J43914D01*
G01X15548401Y6052145D01*
G01X15558248Y6042298D01*
G03X15569893Y6034524I25324J25324D01*
G03X15567885Y6022700I33806J-11824D01*
G01X15567885Y5982700D01*
G03X15570422Y5969461I35814J0D01*
G02X15574696Y5956634I-110381J-43913D01*
G03X15567886Y5932600I39004J-24034D01*
G01X15567886Y5912600D01*
G03X15613700Y5866786I45814J0D01*
G01X15653700Y5866786D01*
G01X15654890Y5866806D01*
G02X15710850Y5867736I55960J-1682807D01*
G01X15782246Y5867736D01*
G02X15803923Y5867030I0J-333010D01*
G01X15803781Y5865874D01*
G01X15801296Y5865609D01*
G01X15786595Y5865609D01*
G03X15752291Y5851400I0J-48514D01*
G01X15682324Y5781433D01*
G01X15679284Y5781088D01*
G03X15618580Y5722034I5216J-66088D01*
G03X15665457Y5651500I65920J-7034D01*
G03X15619346Y5575758I19043J-63500D01*
G03X15689804Y5521919I65154J12242D01*
G03X15672783Y5451642I45496J-48219D01*
G03X15668005Y5457205I-39083J-28742D01*
G01X15439405Y5685805D01*
G03X15405100Y5700014I-34305J-34305D01*
G01X15082295Y5700014D01*
G01X15001749Y5780560D01*
G03X15003710Y5793110I-39173J12550D01*
G01X15003710Y5889671D01*
G03X14962576Y5930805I-41134J0D01*
G01X14920016Y5930805D01*
G03X14878882Y5889671I0J-41134D01*
G01X14878882Y5793110D01*
G03X14894102Y5761165I41134J0D01*
G03X14906991Y5738099I47194J11239D01*
G01X15027895Y5617195D01*
G03X15062200Y5602986I34305J34305D01*
G01X15385005Y5602986D01*
G01X15585186Y5402805D01*
G01X15585186Y4813300D01*
G03X15599395Y4778995I48514J0D01*
G01X15739095Y4639295D01*
G03X15773400Y4625086I34305J34305D01*
G01X15801296Y4625086D01*
G02X15803839Y4624809I0J-11811D01*
G03X15808730Y4610595I35557J4287D01*
G03X15803781Y4595874I30666J-18500D01*
G01X15801296Y4595609D01*
G01X15742200Y4595609D01*
G01X15555214Y4782595D01*
G01X15555214Y5359400D01*
G03X15541005Y5393705I-48514J0D01*
G01X15363205Y5571505D01*
G03X15328900Y5585714I-34305J-34305D01*
G01X15006095Y5585714D01*
G01X14811632Y5780177D01*
G03X14813718Y5793110I-39048J12933D01*
G01X14813718Y5889671D01*
G03X14801579Y5918848I-41134J0D01*
G01X14813801Y5918848D01*
G03X14853224Y5935177I0J55753D01*
G01X14885723Y5967677D01*
G03X14898608Y5987805I-39423J39423D01*
G03X14920016Y5981795I21408J35124D01*
G01X14962576Y5981795D01*
G03X15003710Y6022929I0J41134D01*
G01X15003710Y6119490D01*
G03X14994412Y6145537I-41134J0D01*
G02X14992096Y6169768I125581J24231D01*
G01X14992096Y6178804D01*
G03X14977217Y6214725I-50800J0D01*
G01X14945721Y6246221D01*
G03X14909800Y6261100I-35921J-35921D01*
G01X14834214Y6261100D01*
G01X14834214Y6316499D01*
G03X14831678Y6329737I-35814J0D01*
G02X14826914Y6354599I62498J24862D01*
G01X14826914Y6367100D01*
G03X14825629Y6378085I-48527J-111D01*
G01X14825770Y6378085D01*
G03X14840608Y6353772I58162J18813D01*
G01X14925765Y6268615D01*
G03X14969050Y6250686I43285J43285D01*
G01X14999643Y6250686D01*
G01X15004744Y6250520D01*
G01X15008899Y6250144D01*
G01X15015575Y6249096D01*
G03X15103094Y6311900I21225J62804D01*
G03X15015575Y6374704I-66294J0D01*
G01X15008899Y6373656D01*
G01X15004744Y6373280D01*
G01X14999643Y6373114D01*
G01X14994405Y6373114D01*
G01X14947208Y6420312D01*
G01X14947208Y6506556D01*
G03X14970998Y6635596I-14318J69353D01*
G03X14863952Y6559713I-38108J-59687D01*
G01X14856393Y6559713D01*
G03X14845144Y6557900I0J-35814D01*
G03X14833895Y6559713I-11249J-34002D01*
G01X14803895Y6559713D01*
G03X14793888Y6558286I0J-35814D01*
G03X14783882Y6559713I-10006J-34388D01*
G01X14769695Y6559713D01*
G01X14769695Y6559713D01*
G01X14769695Y6566305D01*
G01X14769695Y6566305D01*
G03X14754816Y6602226I-50800J0D01*
G01X14729821Y6627221D01*
G03X14693900Y6642100I-35921J-35921D01*
G01X14643100Y6642100D01*
G03X14607179Y6627221I0J-50800D01*
G01X14582974Y6603016D01*
G03X14568095Y6567095I35921J-35921D01*
G01X14568095Y6567095D01*
G01X14568095Y6559713D01*
G01X14568095Y6559713D01*
G01X14553908Y6559713D01*
G03X14543902Y6558286I0J-35814D01*
G03X14533895Y6559713I-10006J-34388D01*
G01X14503895Y6559713D01*
G03X14493889Y6558286I0J-35814D01*
G03X14483883Y6559713I-10006J-34388D01*
G01X14453883Y6559713D01*
G03X14442634Y6557900I0J-35814D01*
G03X14431385Y6559713I-11249J-34002D01*
G01X14423826Y6559713D01*
G03X14316779Y6635596I-68938J16196D01*
G03X14340569Y6506556I38108J-59687D01*
G01X14340569Y6413899D01*
G01X14340572Y6413442D01*
G01X14320415Y6393285D01*
G03X14313284Y6384718I43285J-43285D01*
G03X14291086Y6376678I416J-35812D01*
G02X14237500Y6357620I-53586J65806D01*
G01X14235757Y6357620D01*
G01X14230656Y6357786D01*
G01X14226501Y6358162D01*
G01X14219825Y6359210D01*
G03X14132306Y6296406I-21225J-62804D01*
G03X14219825Y6233602I66294J0D01*
G01X14226501Y6234650D01*
G01X14230656Y6235026D01*
G01X14235757Y6235192D01*
G01X14237500Y6235192D01*
G02X14291086Y6216134I0J-84864D01*
G03X14313700Y6208091I22614J27771D01*
G01X14413700Y6208091D01*
G03X14449514Y6243905I0J35814D01*
G01X14449514Y6309877D01*
G01X14467586Y6291805D01*
G01X14467586Y6285500D01*
G02X14462530Y6274366I-14788J0D01*
G03X14450285Y6247400I23569J-26966D01*
G01X14450285Y6207400D01*
G03X14486099Y6171586I35814J0D01*
G01X14546099Y6171586D01*
G03X14581913Y6207400I0J35814D01*
G01X14581913Y6212345D01*
G01X14644683Y6149575D01*
G03X14582734Y6110701I-1583J-66275D01*
G03X14594255Y6038478I60366J-27401D01*
G03X14581281Y6030364I12065J-33721D01*
G01X14581281Y6030364D01*
G01X14546170Y6030415D01*
G01X14546170Y6030415D01*
G01X14485946Y6030414D01*
G01X14485946Y6030414D01*
G01X14458201Y6030354D01*
G01X14458201Y6030354D01*
G03X14454256Y6030214I0J-55753D01*
G01X14431332Y6030214D01*
G03X14413733Y6034836I-17598J-31192D01*
G01X14313667Y6034836D01*
G03X14277853Y5999022I0J-35814D01*
G01X14277853Y5893684D01*
G03X14313667Y5857870I35814J0D01*
G01X14345058Y5857870D01*
G01X14314948Y5827760D01*
G03X14312529Y5825195I42656J-42656D01*
G01X14307738Y5820405D01*
G03X14297249Y5795081I25324J-25324D01*
G01X14297249Y5645666D01*
G03X14298614Y5635869I35814J0D01*
G03X14333104Y5609703I34490J9648D01*
G01X14382104Y5609703D01*
G03X14409050Y5621927I0J35814D01*
G03X14418048Y5645666I-26816J23739D01*
G01X14418048Y5759920D01*
G01X14451890Y5793762D01*
G01X14453551Y5793673D01*
G01X14487152Y5760072D01*
G01X14487152Y5645367D01*
G03X14522966Y5609553I35814J0D01*
G01X14572436Y5609553D01*
G03X14608250Y5645367I0J35814D01*
G01X14608250Y5795379D01*
G03X14597760Y5820703I-35814J0D01*
G01X14572025Y5846439D01*
G01X14572025Y5854700D01*
G03X14571742Y5860536I-60325J0D01*
G01X14571742Y5897793D01*
G01X14582531Y5908582D01*
G01X14615358Y5908582D01*
G03X14657261Y5918848I6036J66019D01*
G01X14701029Y5918848D01*
G03X14688890Y5889671I28995J-29177D01*
G01X14688890Y5793110D01*
G03X14703965Y5761283I41134J0D01*
G03X14716999Y5737591I47339J10613D01*
G01X14951695Y5502895D01*
G03X14986000Y5488686I34305J34305D01*
G01X15308805Y5488686D01*
G01X15458186Y5339305D01*
G01X15458186Y5241018D01*
G03X15407114Y5242814I-27686J-60236D01*
G01X15179986Y5242814D01*
G03X15170550Y5244079I-9436J-34549D01*
G01X15116550Y5244079D01*
G03X15113710Y5243967I0J-35814D01*
G01X14996450Y5243967D01*
G03X14960717Y5210563I0J-35814D01*
G03X14960617Y5207885I35714J-2678D01*
G01X14960617Y5128876D01*
G01X14960636Y5127708D01*
G01X14960636Y4992525D01*
G01X14954044Y4985933D01*
G03X14901295Y5028325I-52749J-11623D01*
G01X14768496Y5028325D01*
G01X14766440Y5028286D01*
G01X14761925Y5028212D01*
G03X14758763Y5028020I586J-35809D01*
G01X14753771Y5027495D01*
G03X14749456Y5026772I3748J-35617D01*
G01X14741765Y5024995D01*
G01X14741442Y5024919D01*
G01X14735717Y5023540D01*
G01X14734269Y5023360D01*
G01X14732238Y5023284D01*
G01X14730013Y5023764D01*
G03X14695500Y5050010I-34512J-9567D01*
G01X14641500Y5050010D01*
G03X14605951Y5018549I0J-35814D01*
G03X14592387Y5008996I20740J-43857D01*
G01X14583655Y5000265D01*
G03X14560341Y5008892I-23314J-27186D01*
G01X14390341Y5008892D01*
G03X14354527Y4973078I0J-35814D01*
G01X14354527Y4903079D01*
G03X14367394Y4875582I35814J0D01*
G03X14354527Y4848085I22947J-27497D01*
G01X14354527Y4778085D01*
G03X14390341Y4742271I35814J0D01*
G01X14560341Y4742271D01*
G03X14584937Y4752053I0J35814D01*
G01X14592387Y4744604D01*
G03X14605951Y4735051I34305J34305D01*
G03X14641500Y4703590I35549J4352D01*
G01X14695500Y4703590D01*
G03X14730013Y4729836I0J35814D01*
G01X14732238Y4730316D01*
G01X14734269Y4730240D01*
G01X14735717Y4730060D01*
G01X14741442Y4728681D01*
G01X14741765Y4728605D01*
G01X14749456Y4726828D01*
G03X14753771Y4726105I8063J34894D01*
G01X14758763Y4725580D01*
G03X14761925Y4725388I3748J35617D01*
G01X14766440Y4725314D01*
G01X14768496Y4725275D01*
G01X14854766Y4725275D01*
G01X14796447Y4666956D01*
G03X14783418Y4643289I34305J-34305D01*
G03X14764937Y4611949I17334J-31340D01*
G01X14764937Y4571949D01*
G03X14772888Y4549449I35814J0D01*
G03X14764937Y4526949I27864J-22500D01*
G01X14764937Y4486949D01*
G03X14779151Y4458382I35814J0D01*
G03X14778621Y4451235I47985J-7147D01*
G01X14778416Y4450820D01*
G03X14764321Y4422343I21719J-28476D01*
G01X14764321Y4343334D01*
G03X14767616Y4328330I35814J0D01*
G03X14764321Y4313327I32520J-15004D01*
G01X14764321Y4234317D01*
G03X14773695Y4210161I35814J0D01*
G02X14778621Y4197465I-13896J-12696D01*
G03X14792831Y4163160I48514J0D01*
G01X14793455Y4162535D01*
G01X14793090Y4160585D01*
G03X14777128Y4125832I29851J-34754D01*
G01X14777128Y4105832D01*
G03X14781817Y4085641I45814J0D01*
G03X14772722Y4086553I-9096J-44902D01*
G01X14732722Y4086553D01*
G03X14707803Y4079183I0J-45814D01*
G03X14682383Y4086882I-25419J-38115D01*
G01X14642383Y4086882D01*
G03X14596569Y4041068I0J-45814D01*
G01X14596569Y4021068D01*
G03X14616336Y3983379I45814J0D01*
G01X14616536Y3980969D01*
G01X14616536Y3968517D01*
G03X14629965Y3936098I45847J0D01*
G01X14706910Y3859153D01*
G01X14633385Y3859153D01*
G01X14610938Y3881599D01*
G03X14590007Y3893565I-32419J-32419D01*
G03X14551222Y3914995I-38786J-24384D01*
G01X14531222Y3914995D01*
G03X14485408Y3869181I0J-45814D01*
G01X14485408Y3829181D01*
G03X14492912Y3804055I45814J0D01*
G03X14466222Y3812633I-26691J-37236D01*
G01X14446222Y3812633D01*
G03X14407242Y3790892I0J-45814D01*
G03X14393214Y3781124I20277J-44073D01*
G01X14365333Y3753242D01*
G03X14366015Y3760200I-35132J6958D01*
G01X14366015Y3800200D01*
G03X14330201Y3836014I-35814J0D01*
G01X14270201Y3836014D01*
G03X14263016Y3835286I0J-35814D01*
G03X14264415Y3845200I-34414J9914D01*
G01X14264415Y3885200D01*
G03X14261879Y3898438I-35814J0D01*
G02X14254494Y3926750I110387J43912D01*
G03X14198601Y4028694I-55893J35650D01*
G03X14142709Y3926750I0J-66294D01*
G02X14135324Y3898438I-117771J15600D01*
G03X14132787Y3885200I33278J-13238D01*
G01X14132787Y3845200D01*
G03X14140738Y3822700I35814J0D01*
G03X14132787Y3800200I27864J-22500D01*
G01X14132787Y3760200D01*
G03X14138236Y3741210I35814J0D01*
G02X14148452Y3713300I-61020J-38160D01*
G01X14148256Y3707039D01*
G01X14148236Y3705849D01*
G01X14148236Y3665849D01*
G01X14148256Y3664658D01*
G02X14148686Y3649748I-1682807J-55960D01*
G02X14140363Y3632230I-35123J5950D01*
G01X14138838Y3631639D01*
G02X14112549Y3626413I-26289J63503D01*
G03X14073754Y3610343I0J-54864D01*
G01X14032805Y3569395D01*
G03X14016736Y3530600I38795J-38795D01*
G01X14016736Y3276600D01*
G03X14032805Y3237805I54864J0D01*
G01X14075651Y3194959D01*
G03X14096143Y3182033I38795J38795D01*
G01X14096143Y3146458D01*
G03X14106557Y3136044I10414J0D01*
G01X14385329Y3136044D01*
G03X14395743Y3146458I0J10414D01*
G01X14395743Y3191643D01*
G03X14405959Y3199449I-24089J42111D01*
G01X14490526Y3284017D01*
G03X14504736Y3318322I-34305J34305D01*
G01X14504736Y3593662D01*
G01X14504739Y3594377D01*
G03X14531222Y3585948I26482J37385D01*
G01X14551222Y3585948D01*
G03X14589100Y3605991I0J45814D01*
G03X14593036Y3606388I-2638J45771D01*
G03X14606151Y3541328I62873J-21178D01*
G03X14608268Y3539046I49648J43932D01*
G01X14609952Y3537245D01*
G01X14609952Y3476375D01*
G03X14577285Y3440700I3147J-35675D01*
G01X14577285Y3400700D01*
G03X14585235Y3378200I35814J0D01*
G03X14577285Y3355700I27864J-22500D01*
G01X14577285Y3315700D01*
G03X14579821Y3302462I35814J0D01*
G02X14588235Y3258550I-110387J-43912D01*
G01X14588235Y3232353D01*
G03X14579175Y3177571I54864J-37213D01*
G37*
%LPC*%
G36*
G01X14100329Y5308901D02*
G03X14064515Y5273087I0J-35814D01*
G01X14064515Y5093087D01*
G03X14100329Y5057273I35814J0D01*
G01X14350329Y5057273D01*
G03X14386143Y5093087I0J35814D01*
G01X14386143Y5273087D01*
G03X14350329Y5308901I-35814J0D01*
G01X14309583Y5308901D01*
G02X14292893Y5332671I8581J23770D01*
G03X14273104Y5380446I-67564J0D01*
G01X14170670Y5482880D01*
G03X14122895Y5502669I-47775J-47775D01*
G01X14058405Y5502669D01*
G03X14058405Y5367541I0J-67564D01*
G01X14094909Y5367541D01*
G01X14148954Y5313496D01*
G02X14141074Y5308901I-16461J19175D01*
G01X14100329Y5308901D01*
G37*
G36*
G01X14417918Y5531383D02*
G03X14382104Y5567197I-35814J0D01*
G01X14333104Y5567197D01*
G03X14297290Y5531383I0J-35814D01*
G01X14297290Y5413883D01*
G03X14333104Y5378069I35814J0D01*
G01X14382104Y5378069D01*
G03X14417918Y5413883I0J35814D01*
G01X14417918Y5531383D01*
G37*
G36*
G01X14480286Y5231992D02*
G03X14482683Y5219110I35814J0D01*
G01X14482725Y5218652D01*
G01X14482890Y5213551D01*
G01X14482890Y5206057D01*
G01X14482725Y5200956D01*
G01X14482348Y5196801D01*
G01X14481300Y5190125D01*
G03X14544104Y5102606I62804J-21225D01*
G03X14606909Y5190125I0J66294D01*
G01X14605860Y5196801D01*
G01X14605484Y5200956D01*
G01X14605318Y5206057D01*
G01X14605318Y5213551D01*
G01X14605484Y5218652D01*
G01X14605654Y5220527D01*
G03X14615414Y5245100I-26054J24573D01*
G01X14615414Y5537200D01*
G03X14579600Y5573014I-35814J0D01*
G01X14516100Y5573014D01*
G03X14480286Y5537200I0J-35814D01*
G01X14480286Y5268656D01*
G03X14480286Y5232761I63818J-17948D01*
G01X14480286Y5231992D01*
G37*
G36*
G01X15346286Y6731000D02*
G03X15717914Y6731000I185814J0D01*
G03X15346286Y6731000I-185814J0D01*
G37*
%LPD*%
G36*
G01X14834499Y4852079D02*
G01X14971331Y4852079D01*
G03X14983816Y4854325I0J35814D01*
G01X14943048Y4813557D01*
G03X14901295Y4833304I-41753J-34267D01*
G01X14768496Y4833304D01*
G03X14764230Y4833135I0J-54014D01*
G01X14759671Y4832872D01*
G03X14756623Y4832565I2064J-35754D01*
G01X14751630Y4831845D01*
G03X14747706Y4831053I5112J-35447D01*
G01X14740191Y4829093D01*
G01X14734783Y4827736D01*
G01X14733503Y4827576D01*
G01X14732064Y4827523D01*
G01X14730013Y4827980D01*
G03X14695500Y4854227I-34512J-9567D01*
G01X14641500Y4854227D01*
G03X14624256Y4849802I0J-35814D01*
G03X14593424Y4861801I-31956J-36502D01*
G03X14583288Y4875582I-33083J-13716D01*
G03X14593558Y4889689I-22947J27497D01*
G03X14624353Y4903744I-3480J48389D01*
G03X14641500Y4899373I17146J31443D01*
G01X14695500Y4899373D01*
G03X14714660Y4904929I0J35814D01*
G03X14768496Y4855298I53836J4383D01*
G01X14819660Y4855298D01*
G03X14834499Y4852079I14839J32595D01*
G37*
G36*
G01X18441151Y3135114D02*
G01X14671239Y3135114D01*
G03X14680312Y3140275I-28140J60025D01*
G01X14688639Y3140275D01*
G03X14727434Y3156345I0J54864D01*
G01X14808893Y3237804D01*
G03X14824962Y3276294I-38795J38795D01*
G03X14837395Y3254995I46738J13006D01*
G01X14856067Y3236324D01*
G01X14856412Y3233284D01*
G03X14916252Y3172501I66088J5216D01*
G03X14986436Y3220975I6248J65999D01*
G01X14986436Y3185714D01*
G03X15022250Y3149900I35814J0D01*
G01X15069561Y3149900D01*
G03X15089877Y3156220I0J35814D01*
G03X15109846Y3150136I19970J29730D01*
G01X15149846Y3150136D01*
G03X15163084Y3152672I0J35814D01*
G02X15202891Y3161015I43912J-110387D01*
G03X15306294Y3215950I37109J54935D01*
G03X15202891Y3270885I-66294J0D01*
G02X15163084Y3279227I4105J118729D01*
G03X15149846Y3281764I-13238J-33278D01*
G01X15109846Y3281764D01*
G03X15105375Y3281484I0J-35814D01*
G01X15105375Y3299609D01*
G03X15105560Y3303248I-35629J3640D01*
G01X15105560Y3357249D01*
G03X15105375Y3360888I-35814J0D01*
G01X15105375Y3462076D01*
G03X15094885Y3487400I-35814J0D01*
G01X15041472Y3540813D01*
G03X15016148Y3551303I-25324J-25324D01*
G01X14963671Y3551303D01*
G01X14963671Y3583309D01*
G01X14963638Y3585048D01*
G01X14963638Y3616856D01*
G03X14987806Y3607472I24168J26430D01*
G01X15006493Y3607472D01*
G02X15014129Y3602125I-11345J-24327D01*
G01X15091973Y3524281D01*
G03X15124392Y3510852I32419J32419D01*
G01X15143177Y3510852D01*
G03X15175294Y3490885I32117J15847D01*
G01X15215294Y3490885D01*
G03X15237794Y3498836I0J35814D01*
G03X15260294Y3490885I22500J27864D01*
G01X15300294Y3490885D01*
G03X15327258Y3503129I0J35814D01*
G02X15338394Y3508185I11136J-9734D01*
G01X15456599Y3508185D01*
G03X15490904Y3522395I0J48514D01*
G01X15895095Y3926586D01*
G01X16564141Y3926586D01*
G03X16556983Y3905104I28656J-21482D01*
G01X16556983Y3851302D01*
G03X16565015Y3828701I35814J0D01*
G01X16565015Y3823439D01*
G03X16564837Y3818990I55575J-4449D01*
G01X16564837Y3818990D01*
G01X16564776Y3783998D01*
G01X16564776Y3743874D01*
G03X16565262Y3737218I45814J0D01*
G02X16567832Y3684057I-548582J-53160D01*
G01X16567832Y3610918D01*
G01X16564593Y3610918D01*
G03X16554179Y3600504I0J-10414D01*
G01X16554179Y3203831D01*
G03X16564593Y3193417I10414J0D01*
G01X16602196Y3193417D01*
G03X16607370Y3194793I0J10414D01*
G03X16663585Y3209275I16215J53407D01*
G03X16743585Y3209274I40000J38925D01*
G03X16801399Y3195305I40000J38926D01*
G03X16804669Y3194779I3270J9887D01*
G01X16842272Y3194779D01*
G03X16852686Y3205193I0J10414D01*
G01X16852686Y3527740D01*
G01X16938564Y3613617D01*
G02X16979979Y3649286I259929J-259928D01*
G03X16994504Y3678085I-21289J28799D01*
G01X16994504Y3771684D01*
G03X16958690Y3807498I-35814J0D01*
G01X16908690Y3807498D01*
G03X16872876Y3771684I0J-35814D01*
G01X16872876Y3733085D01*
G02X16860231Y3692977I-69928J0D01*
G01X16752099Y3584846D01*
G01X16752099Y3589790D01*
G01X16790196Y3627887D01*
G03X16804405Y3662191I-34305J34305D01*
G01X16804405Y3714074D01*
G02X16809462Y3725209I14790J0D01*
G03X16821705Y3752174I-23570J26964D01*
G01X16821705Y3792174D01*
G03X16813917Y3814471I-35814J0D01*
G03X16821767Y3836847I-27964J22375D01*
G01X16821767Y3942266D01*
G03X16767841Y4014908I-65876J7434D01*
G03X16691660Y3966109I-11949J-65208D01*
G01X16666539Y3940988D01*
G01X16646096Y3940988D01*
G01X17013400Y4308291D01*
G01X17024900Y4308291D01*
G03X17043400Y4313439I0J35814D01*
G03X17061900Y4308291I18500J30666D01*
G01X17151900Y4308291D01*
G03X17170400Y4313439I0J35814D01*
G03X17188900Y4308291I18500J30666D01*
G01X17278900Y4308291D01*
G03X17297400Y4313439I0J35814D01*
G03X17315900Y4308291I18500J30666D01*
G01X17405900Y4308291D01*
G03X17426873Y4315074I0J35814D01*
G03X17442900Y4311288I16027J32028D01*
G01X17532900Y4311288D01*
G03X17568714Y4347102I0J35814D01*
G01X17568714Y4472863D01*
G03X17589405Y4466281I20691J29232D01*
G01X17739404Y4466281D01*
G03X17774961Y4497809I0J35814D01*
G02X17777504Y4498086I2543J-11534D01*
G01X18128205Y4498086D01*
G01X18175986Y4450305D01*
G01X18175986Y4343400D01*
G03X18190195Y4309095I48514J0D01*
G01X18276977Y4222314D01*
G03X18311282Y4208104I34305J34305D01*
G01X18314673Y4208104D01*
G02X18321301Y4206173I0J-12342D01*
G03X18360873Y4181300I39571J19041D01*
G01X18398673Y4181300D01*
G03X18438245Y4206173I0J43914D01*
G02X18444053Y4208077I6629J-10411D01*
G02X18456012Y4202791I-1004J-18442D01*
G03X18481149Y4192487I25137J25510D01*
G01X18530336Y4192487D01*
G01X18530336Y4008300D01*
G03X18566150Y3972486I35814J0D01*
G01X18705337Y3972486D01*
G01X18705337Y3399300D01*
G02X18441151Y3135114I-264186J0D01*
G37*
%LPC*%
G36*
G01X15962038Y3543528D02*
G01X15924460Y3543528D01*
G03X15914046Y3533114I0J-10414D01*
G01X15914046Y3204615D01*
G03X15924460Y3194201I10414J0D01*
G01X15962038Y3194201D01*
G03X15972452Y3204615I0J10414D01*
G01X15972452Y3533114D01*
G03X15962038Y3543528I-10414J0D01*
G37*
G36*
G01X16399847Y3194808D02*
G03X16404878Y3193512I5031J9118D01*
G01X16442482Y3193512D01*
G03X16452896Y3203926I0J10414D01*
G01X16452896Y3600492D01*
G03X16442482Y3610906I-10414J0D01*
G01X16432099Y3610906D01*
G01X16432099Y3726463D01*
G01X16434008Y3728861D01*
G03X16400988Y3835869I-50423J43039D01*
G03X16318307Y3760339I-17404J-63969D01*
G03X16288863Y3760339I-14722J-64639D01*
G03X16223585Y3838194I-65278J11561D01*
G03X16158307Y3760339I0J-66294D01*
G03X16143585Y3761994I-14722J-64639D01*
G03X16128863Y3760339I-0J-66294D01*
G03X16046181Y3835869I-65278J11561D01*
G03X16013162Y3728860I17404J-63969D01*
G01X16015071Y3726464D01*
G01X16015071Y3615788D01*
G01X16004861Y3615788D01*
G03X15994447Y3605374I0J-10414D01*
G01X15994447Y3203327D01*
G03X16004861Y3192913I10414J0D01*
G01X16042464Y3192913D01*
G03X16048108Y3194575I0J10414D01*
G03X16103585Y3209274I15477J53625D01*
G03X16183585Y3209275I40000J38926D01*
G03X16263585Y3209275I40000J38925D01*
G03X16343585Y3209274I40000J38925D01*
G03X16399847Y3194808I40000J38926D01*
G37*
G36*
G01X16522452Y3611249D02*
G01X16484848Y3611249D01*
G03X16474434Y3600835I0J-10414D01*
G01X16474434Y3204002D01*
G03X16484848Y3193588I10414J0D01*
G01X16522452Y3193588D01*
G03X16532866Y3204002I0J10414D01*
G01X16532866Y3600835D01*
G03X16522452Y3611249I-10414J0D01*
G37*
G36*
G01X16940682Y3527466D02*
G01X16889044Y3527466D01*
G03X16878630Y3517052I0J-10414D01*
G01X16878630Y3205503D01*
G03X16889044Y3195089I10414J0D01*
G01X16940682Y3195089D01*
G03X16951096Y3205503I0J10414D01*
G01X16951096Y3517052D01*
G03X16940682Y3527466I-10414J0D01*
G37*
G36*
G01X16937856Y3904463D02*
G01X16937875Y3902941D01*
G01X16937875Y3857663D01*
G03X16973689Y3821849I35814J0D01*
G01X17023689Y3821849D01*
G03X17059503Y3857663I0J35814D01*
G01X17059503Y3902941D01*
G01X17059522Y3904463D01*
G01X17059522Y3988699D01*
G01X17059696Y3993680D01*
G01X17060085Y3997676D01*
G01X17061054Y4003417D01*
G03X16998689Y4092194I-62365J22483D01*
G03X16936324Y4003417I0J-66294D01*
G01X16937293Y3997676D01*
G01X16937682Y3993680D01*
G01X16937856Y3988699D01*
G01X16937856Y3904463D01*
G37*
G36*
G01X17860886Y3594100D02*
G03X18232514Y3594100I185814J0D01*
G03X17860886Y3594100I-185814J0D01*
G37*
%LPD*%
G36*
G01X14704821Y3629879D02*
G01X14701646Y3633275D01*
G01X14701646Y3647469D01*
G01X14727806Y3647469D01*
G01X14729546Y3647502D01*
G01X14761402Y3647502D01*
G03X14751995Y3623308I26407J-24193D01*
G01X14751995Y3585048D01*
G01X14751962Y3583309D01*
G01X14751962Y3556241D01*
G03X14711286Y3461971I18242J-63781D01*
G03X14706599Y3453364I28813J-21271D01*
G03X14704967Y3457041I-33500J-12664D01*
G02X14701646Y3470799I26831J13758D01*
G01X14701646Y3537245D01*
G01X14703329Y3539046D01*
G03X14705446Y3541328I-47531J46214D01*
G03X14707548Y3626588I-49758J43882D01*
G03X14704821Y3629879I-28889J-21168D01*
G37*
G36*
G01X14803620Y3683316D02*
G01X14803620Y3703316D01*
G03X14802195Y3713318I-35814J0D01*
G03X14803620Y3723321I-34389J10003D01*
G01X14803620Y3743321D01*
G03X14802199Y3753311I-35814J0D01*
G03X14803620Y3763301I-34393J9990D01*
G01X14803620Y3783301D01*
G03X14802195Y3793303I-35814J0D01*
G03X14803620Y3803306I-34389J10003D01*
G01X14803620Y3807494D01*
G01X14807809Y3807494D01*
G03X14817811Y3808919I0J35814D01*
G03X14827814Y3807494I10003J34389D01*
G01X14847814Y3807494D01*
G03X14857816Y3808919I0J35814D01*
G03X14867819Y3807494I10003J34389D01*
G01X14887819Y3807494D01*
G03X14897821Y3808919I0J35814D01*
G03X14907824Y3807494I10003J34389D01*
G01X14927824Y3807494D01*
G03X14937826Y3808919I0J35814D01*
G03X14947829Y3807494I10003J34389D01*
G01X14961422Y3807494D01*
G03X14951992Y3783275I26383J-24219D01*
G01X14951992Y3763275D01*
G03X14953413Y3753285I35814J0D01*
G03X14951992Y3743296I34393J-9990D01*
G01X14951992Y3723296D01*
G03X14953417Y3713293I35814J0D01*
G03X14951992Y3703291I34389J-10003D01*
G01X14951992Y3683291D01*
G03X14953417Y3673288I35814J0D01*
G03X14951992Y3663286I34389J-10003D01*
G01X14951992Y3649738D01*
G03X14927824Y3659122I-24168J-26430D01*
G01X14907824Y3659122D01*
G03X14897821Y3657697I0J-35814D01*
G03X14887819Y3659122I-10003J-34389D01*
G01X14867819Y3659122D01*
G03X14857816Y3657697I0J-35814D01*
G03X14847814Y3659122I-10003J-34389D01*
G01X14827814Y3659122D01*
G03X14817811Y3657697I0J-35814D01*
G03X14807809Y3659122I-10003J-34389D01*
G01X14794213Y3659122D01*
G03X14803620Y3683316I-26407J24194D01*
G37*
G36*
G01X14999212Y4105907D02*
G01X14999212Y4125907D01*
G03X14983250Y4160660I-45814J0D01*
G02X14981997Y4170621I65925J13346D01*
G03X14989949Y4197235I-40562J26615D01*
G02X14995227Y4211138I20950J0D01*
G03X15004250Y4234905I-26792J23767D01*
G01X15004250Y4313914D01*
G03X15000955Y4328918I-35814J0D01*
G03X15004250Y4343921I-32520J15004D01*
G01X15004250Y4422931D01*
G03X14989949Y4451563I-35814J0D01*
G03X14988646Y4462634I-48514J-98D01*
G03X14998165Y4486949I-26295J24315D01*
G01X14998165Y4526949D01*
G03X14995737Y4539910I-35814J0D01*
G03X15013950Y4536135I18213J42038D01*
G01X15053950Y4536135D01*
G03X15081541Y4545375I0J45814D01*
G03X15105551Y4536135I24010J26574D01*
G01X15165551Y4536135D01*
G03X15178789Y4538671I0J35814D01*
G02X15200053Y4543338I24862J-62498D01*
G01X15497795Y4245595D01*
G03X15532100Y4231386I34305J34305D01*
G01X15732477Y4231386D01*
G01X15372305Y3871214D01*
G01X15338394Y3871214D01*
G02X15328757Y3875980I0J12125D01*
G03X15300294Y3890057I-28463J-21737D01*
G01X15260294Y3890057D01*
G03X15237794Y3882107I0J-35814D01*
G03X15215294Y3890057I-22500J-27864D01*
G01X15175294Y3890057D01*
G03X15143177Y3870091I0J-35814D01*
G01X15139944Y3870091D01*
G03X15107525Y3856662I0J-45847D01*
G01X15069985Y3819122D01*
G01X15027806Y3819122D01*
G01X15026066Y3819089D01*
G01X14994662Y3819089D01*
G03X15004093Y3843308I-26383J24219D01*
G01X15004093Y3862915D01*
G01X15004237Y3863191D01*
G01X15115536Y3974491D01*
G01X15144992Y3974491D01*
G03X15180806Y4010305I0J35814D01*
G01X15180806Y4050978D01*
G03X15173043Y4073245I-35814J0D01*
G03X15180787Y4095488I-28070J22243D01*
G01X15180787Y4135488D01*
G03X15180661Y4138492I-35814J0D01*
G01X15180661Y4152709D01*
G01X15205577Y4177626D01*
G03X15210879Y4275774I-41777J51474D01*
G03X15112689Y4271320I-47079J-46674D01*
G01X15059863Y4218494D01*
G03X15049373Y4193170I25324J-25324D01*
G01X15049373Y4139398D01*
G03X15049159Y4135488I35600J-3910D01*
G01X15049159Y4095488D01*
G03X15050231Y4086792I35814J0D01*
G01X15048029Y4086792D01*
G03X15043618Y4087005I-4411J-45601D01*
G01X15003618Y4087005D01*
G03X14999207Y4086792I0J-45814D01*
G01X14995034Y4086792D01*
G03X14999212Y4105907I-41636J19115D01*
G37*
G36*
G01X15078443Y4959190D02*
G01X15078443Y5060440D01*
G01X15111765Y5093763D01*
G03X15116550Y5093442I4785J35493D01*
G01X15170550Y5093442D01*
G03X15175461Y5093781I0J35814D01*
G01X15289871Y5093781D01*
G01X15341676Y5041976D01*
G03X15367000Y5031486I25324J25324D01*
G01X15405049Y5031486D01*
G03X15458186Y5032464I25451J61214D01*
G01X15458186Y4762500D01*
G03X15472395Y4728195I48514J0D01*
G01X15687800Y4512791D01*
G03X15722105Y4498581I34305J34305D01*
G01X15801296Y4498581D01*
G01X15803781Y4498317D01*
G03X15839396Y4466281I35614J3779D01*
G01X15989395Y4466281D01*
G03X16010086Y4472863I0J35814D01*
G01X16010086Y4344105D01*
G03X16013706Y4328414I35814J0D01*
G01X15552195Y4328414D01*
G01X15254356Y4626253D01*
G03X15220051Y4640463I-34305J-34305D01*
G01X15203651Y4640463D01*
G02X15188380Y4642219I0J67262D01*
G02X15186914Y4650049I20169J7829D01*
G01X15186914Y4704305D01*
G01X15199909Y4717300D01*
G01X15201322Y4718556D01*
G01X15202585Y4719480D01*
G01X15209222Y4723503D01*
G01X15212417Y4725275D01*
G01X15330504Y4725275D01*
G03X15373638Y4811801I0J54014D01*
G03X15373647Y4876813I-43134J32512D01*
G03X15373647Y4941811I-43143J32499D01*
G03X15330504Y5028325I-43143J32499D01*
G01X15197705Y5028325D01*
G03X15174470Y5023072I0J-54014D01*
G01X15173542Y5022929D01*
G01X15171199Y5022809D01*
G03X15138106Y5008615I1212J-48499D01*
G01X15076196Y4946705D01*
G03X15078443Y4959190I-33567J12485D01*
G37*
G36*
G01X15682214Y5422900D02*
G03X15680144Y5436921I-48514J0D01*
G03X15752001Y5409544I55156J36779D01*
G03X15801388Y5468484I-16701J64156D01*
G01X15801733Y5471524D01*
G01X15803582Y5473372D01*
G01X15803582Y5391095D01*
G03X15808730Y5372595I35814J0D01*
G03X15803582Y5354095I30666J-18500D01*
G01X15803582Y5264095D01*
G03X15808730Y5245595I35814J0D01*
G03X15803582Y5227095I30666J-18500D01*
G01X15803582Y5137095D01*
G03X15808730Y5118595I35814J0D01*
G03X15803582Y5100095I30666J-18500D01*
G01X15803582Y5010095D01*
G03X15808730Y4991595I35814J0D01*
G03X15803582Y4973095I30666J-18500D01*
G01X15803582Y4883095D01*
G03X15808730Y4864595I35814J0D01*
G03X15803582Y4846095I30666J-18500D01*
G01X15803582Y4756095D01*
G03X15808730Y4737595I35814J0D01*
G03X15803731Y4722368I30666J-18500D01*
G01X15801296Y4722114D01*
G01X15793495Y4722114D01*
G01X15682214Y4833395D01*
G01X15682214Y5422900D01*
G37*
G36*
G01X18530336Y4348300D02*
G01X18530336Y4334115D01*
G01X18481149Y4334115D01*
G03X18446071Y4305526I0J-35814D01*
G01X18443951Y4305167D01*
G02X18438245Y4307063I922J12307D01*
G03X18427109Y4321487I-39571J-19041D01*
G02X18426423Y4324365I47034J12736D01*
G02X18430472Y4330136I13783J-5365D01*
G03X18442715Y4357100I-23570J26964D01*
G01X18442715Y4397100D01*
G03X18434765Y4419600I-35814J0D01*
G03X18442715Y4442100I-27864J22500D01*
G01X18442715Y4482100D01*
G03X18421547Y4514783I-35814J0D01*
G03X18411206Y4530103I-44646J-18984D01*
G01X18379833Y4561476D01*
G01X18379488Y4564516D01*
G03X18266523Y4606177I-66088J-5216D01*
G03X18308184Y4493212I46877J-46877D01*
G01X18311224Y4492867D01*
G01X18312396Y4491694D01*
G03X18311087Y4482100I34505J-9594D01*
G01X18311087Y4442100D01*
G03X18319038Y4419600I35814J0D01*
G03X18311087Y4397100I27864J-22500D01*
G01X18311087Y4357100D01*
G03X18323331Y4330136I35814J0D01*
G02X18328003Y4322347I-9734J-11136D01*
G02X18327542Y4316615I-183529J11875D01*
G03X18324252Y4312258I33330J-28592D01*
G01X18273014Y4363495D01*
G01X18273014Y4470400D01*
G03X18258805Y4504705I-48514J0D01*
G01X18182605Y4580905D01*
G03X18148300Y4595114I-34305J-34305D01*
G01X17777504Y4595114D01*
G01X17775069Y4595368D01*
G03X17770070Y4610595I-35664J-3273D01*
G03X17775218Y4629095I-30666J18500D01*
G01X17775218Y4719095D01*
G03X17770070Y4737595I-35814J0D01*
G03X17775218Y4756095I-30666J18500D01*
G01X17775218Y4846095D01*
G03X17770070Y4864595I-35814J0D01*
G03X17775218Y4883095I-30666J18500D01*
G01X17775218Y4973095D01*
G03X17770070Y4991595I-35814J0D01*
G03X17775019Y5006317I-30666J18500D01*
G01X17777504Y5006581D01*
G01X18064210Y5006581D01*
G01X18523443Y4547347D01*
G03X18557748Y4533138I34305J34305D01*
G01X18572453Y4533138D01*
G02X18575896Y4532625I0J-11811D01*
G03X18610553Y4505838I34658J9027D01*
G01X18680553Y4505838D01*
G03X18705337Y4515799I0J35814D01*
G01X18705337Y4384114D01*
G01X18566150Y4384114D01*
G03X18530336Y4348300I0J-35814D01*
G37*
G36*
G01X17961864Y6334714D02*
G01X18119353Y6492203D01*
G02X18183862Y6531686I114738J-115023D01*
G01X18234436Y6531686D01*
G01X18024325Y6321575D01*
G03X18004536Y6273800I47775J-47775D01*
G01X18004536Y5831886D01*
G01X17929814Y5757164D01*
G01X17849790Y5757164D01*
G03X17866370Y5769320I-31195J59931D01*
G01X17942075Y5845025D01*
G03X17961864Y5892800I-47775J47775D01*
G01X17961864Y6334714D01*
G37*
G54D10*
G01X14579175Y3177571D02*
G03X14614959Y3135114I63924J17568D01*
G01X14041400Y3135114D01*
G02X13777214Y3399300I0J264186D01*
G01X13777214Y6799300D01*
G02X14041300Y7063486I264099J87D01*
G01X15813786Y7063486D01*
G01X15813786Y6311900D01*
G03X15849600Y6276086I35814J0D01*
G01X17729200Y6276086D01*
G03X17765014Y6311900I0J35814D01*
G01X17765014Y7063486D01*
G01X18441328Y7063486D01*
G02X18705514Y6799237I0J-264186D01*
G01X18705337Y6062800D01*
G01X18705337Y4827515D01*
G03X18692734Y4835341I-24784J-25853D01*
G01X18692244Y4837223D01*
G03X18693067Y4844858I-34991J7636D01*
G01X18693067Y4904858D01*
G03X18657253Y4940672I-35814J0D01*
G01X18617253Y4940672D01*
G03X18581439Y4904858I0J-35814D01*
G01X18581439Y4844858D01*
G03X18585867Y4827609I35814J0D01*
G03X18574739Y4801662I24686J-25947D01*
G01X18574739Y4721662D01*
G03X18610553Y4685848I35814J0D01*
G01X18680553Y4685848D01*
G03X18705337Y4695809I0J35814D01*
G01X18705337Y4647505D01*
G03X18680553Y4657466I-24784J-25853D01*
G01X18610553Y4657466D01*
G03X18576208Y4631802I0J-35814D01*
G01X18118609Y5089400D01*
G03X18084305Y5103609I-34305J-34305D01*
G01X17777504Y5103609D01*
G01X17775019Y5103874D01*
G03X17770070Y5118595I-35614J-3779D01*
G03X17775218Y5137095I-30666J18500D01*
G01X17775218Y5227095D01*
G03X17770070Y5245595I-35814J0D01*
G03X17775218Y5264095I-30666J18500D01*
G01X17775218Y5354095D01*
G03X17770070Y5372595I-35814J0D01*
G03X17775218Y5391095I-30666J18500D01*
G01X17775218Y5481095D01*
G03X17770070Y5499595I-35814J0D01*
G03X17775218Y5518095I-30666J18500D01*
G01X17775218Y5608095D01*
G03X17774244Y5616394I-35814J0D01*
G02X17834654Y5622036I60411J-320580D01*
G01X17957800Y5622036D01*
G03X18005575Y5641825I0J67564D01*
G01X18119875Y5756125D01*
G03X18139664Y5803900I-47775J47775D01*
G01X18139664Y6245814D01*
G01X18413299Y6519449D01*
G01X18416586Y6522231D01*
G01X18421116Y6525225D01*
G01X18427623Y6528871D01*
G01X18435397Y6532783D01*
G01X18452804Y6540989D01*
G01X18453201Y6541179D01*
G01X18461321Y6545130D01*
G01X18462635Y6545803D01*
G01X18463152Y6546082D01*
G03X18500733Y6761075I-60852J121418D01*
G03X18284114Y6734413I-98433J-93575D01*
G01X18284114Y6767500D01*
G03X18248300Y6803314I-35814J0D01*
G01X18048300Y6803314D01*
G03X18012486Y6767500I0J-35814D01*
G01X18012486Y6580654D01*
G02X17958935Y6522885I-799091J687046D01*
G01X17846525Y6410475D01*
G03X17826736Y6362700I47775J-47775D01*
G01X17826736Y5920786D01*
G01X17792285Y5886334D01*
G02X17773917Y5889527I26311J205786D01*
G03X17775218Y5899095I-34512J9568D01*
G01X17775218Y5989095D01*
G03X17770070Y6007595I-35814J0D01*
G03X17775218Y6026095I-30666J18500D01*
G01X17775218Y6116095D01*
G03X17739404Y6151909I-35814J0D01*
G01X17589405Y6151909D01*
G03X17553591Y6116095I0J-35814D01*
G01X17553591Y6026095D01*
G03X17558739Y6007595I35814J0D01*
G03X17553591Y5989095I30666J-18500D01*
G01X17553591Y5899095D01*
G03X17558739Y5880595I35814J0D01*
G03X17553591Y5862095I30666J-18500D01*
G01X17553591Y5772095D01*
G03X17558739Y5753595I35814J0D01*
G03X17553591Y5735095I30666J-18500D01*
G01X17553591Y5645095D01*
G03X17558739Y5626595I35814J0D01*
G03X17553591Y5608095I30666J-18500D01*
G01X17553591Y5518095D01*
G03X17558739Y5499595I35814J0D01*
G03X17553591Y5481095I30666J-18500D01*
G01X17553591Y5391095D01*
G03X17558739Y5372595I35814J0D01*
G03X17553591Y5354095I30666J-18500D01*
G01X17553591Y5264095D01*
G03X17558739Y5245595I35814J0D01*
G03X17553591Y5227095I30666J-18500D01*
G01X17553591Y5137095D01*
G03X17558739Y5118595I35814J0D01*
G03X17553591Y5100095I30666J-18500D01*
G01X17553591Y5010095D01*
G03X17558739Y4991595I35814J0D01*
G03X17553591Y4973095I30666J-18500D01*
G01X17553591Y4883095D01*
G03X17558739Y4864595I35814J0D01*
G03X17553591Y4846095I30666J-18500D01*
G01X17553591Y4756095D01*
G03X17558739Y4737595I35814J0D01*
G03X17553591Y4719095I30666J-18500D01*
G01X17553591Y4629095D01*
G03X17558739Y4610595I35814J0D01*
G03X17553591Y4592095I30666J-18500D01*
G01X17553591Y4526334D01*
G03X17532900Y4532916I-20691J-29232D01*
G01X17442900Y4532916D01*
G03X17421927Y4526132I0J-35814D01*
G03X17405900Y4529919I-16027J-32028D01*
G01X17315900Y4529919D01*
G03X17297400Y4524770I0J-35814D01*
G03X17278900Y4529919I-18500J-30666D01*
G01X17188900Y4529919D01*
G03X17170400Y4524770I0J-35814D01*
G03X17151900Y4529919I-18500J-30666D01*
G01X17061900Y4529919D01*
G03X17043400Y4524770I0J-35814D01*
G03X17024900Y4529919I-18500J-30666D01*
G01X16934900Y4529919D01*
G03X16916400Y4524770I0J-35814D01*
G03X16897900Y4529919I-18500J-30666D01*
G01X16807900Y4529919D01*
G03X16789400Y4524770I0J-35814D01*
G03X16770900Y4529919I-18500J-30666D01*
G01X16680900Y4529919D01*
G03X16662400Y4524770I0J-35814D01*
G03X16643900Y4529919I-18500J-30666D01*
G01X16553900Y4529919D01*
G03X16535400Y4524770I0J-35814D01*
G03X16516900Y4529919I-18500J-30666D01*
G01X16426900Y4529919D01*
G03X16408400Y4524770I0J-35814D01*
G03X16389900Y4529919I-18500J-30666D01*
G01X16299900Y4529919D01*
G03X16281400Y4524770I0J-35814D01*
G03X16262900Y4529919I-18500J-30666D01*
G01X16172900Y4529919D01*
G03X16167873Y4529564I0J-35814D01*
G01X16199895Y4561586D01*
G01X16947164Y4561586D01*
G01X16949560Y4559677D01*
G03X17058894Y4610100I43040J50423D01*
G03X16949560Y4660523I-66294J0D01*
G01X16947164Y4658614D01*
G01X16179800Y4658614D01*
G03X16145495Y4644405I0J-48514D01*
G01X16056595Y4555505D01*
G03X16043157Y4529813I34305J-34305D01*
G03X16025209Y4523337I2743J-35709D01*
G01X16025209Y4592095D01*
G03X16020061Y4610595I-35814J0D01*
G03X16025209Y4629095I-30666J18500D01*
G01X16025209Y4719095D01*
G03X16020061Y4737595I-35814J0D01*
G03X16025209Y4756095I-30666J18500D01*
G01X16025209Y4786164D01*
G03X16136300Y4794073I52991J39836D01*
G03X16083416Y4892088I-58100J31927D01*
G01X16080376Y4892433D01*
G01X16034693Y4938116D01*
G02X16025209Y4952466I30830J30685D01*
G01X16025209Y4973095D01*
G03X16020061Y4991595I-35814J0D01*
G03X16024246Y5001845I-30666J18500D01*
G01X16075267Y4950824D01*
G01X16075612Y4947784D01*
G03X16188577Y4906123I66088J5216D01*
G03X16146916Y5019088I-46877J46877D01*
G01X16143876Y5019433D01*
G01X16073909Y5089400D01*
G03X16039605Y5103609I-34305J-34305D01*
G01X16027495Y5103609D01*
G01X16025009Y5103874D01*
G03X16020061Y5118595I-35614J-3779D01*
G03X16025009Y5133317I-30666J18500D01*
G01X16027495Y5133581D01*
G01X16083010Y5133581D01*
G01X16138767Y5077824D01*
G01X16139112Y5074784D01*
G03X16252077Y5033123I66088J5216D01*
G03X16210416Y5146088I-46877J46877D01*
G01X16207376Y5146433D01*
G01X16137409Y5216400D01*
G03X16103105Y5230609I-34305J-34305D01*
G01X16027495Y5230609D01*
G01X16025009Y5230874D01*
G03X16020061Y5245595I-35614J-3779D01*
G03X16025009Y5260317I-30666J18500D01*
G01X16027495Y5260581D01*
G01X16141067Y5260581D01*
G03X16146995Y5260096I6915J48019D01*
G01X16202267Y5204824D01*
G01X16202612Y5201784D01*
G03X16315577Y5160123I66088J5216D01*
G03X16273916Y5273088I-46877J46877D01*
G01X16270876Y5273433D01*
G01X16201405Y5342905D01*
G03X16167100Y5357114I-34305J-34305D01*
G01X16154401Y5357114D01*
G03X16147486Y5357609I-6915J-48019D01*
G01X16027495Y5357609D01*
G01X16025009Y5357874D01*
G03X16020061Y5372595I-35614J-3779D01*
G03X16025009Y5387317I-30666J18500D01*
G01X16027495Y5387581D01*
G01X16235410Y5387581D01*
G01X16278467Y5344524D01*
G01X16278812Y5341484D01*
G03X16391777Y5299823I66088J5216D01*
G03X16350116Y5412788I-46877J46877D01*
G01X16347076Y5413133D01*
G01X16289809Y5470400D01*
G03X16255505Y5484609I-34305J-34305D01*
G01X16027495Y5484609D01*
G01X16025009Y5484874D01*
G03X16020061Y5499595I-35614J-3779D01*
G03X16025209Y5518095I-30666J18500D01*
G01X16025209Y5608095D01*
G03X16020061Y5626595I-35814J0D01*
G03X16025209Y5645095I-30666J18500D01*
G01X16025209Y5735095D01*
G03X16020061Y5753595I-35814J0D01*
G03X16025209Y5772095I-30666J18500D01*
G01X16025209Y5862095D01*
G03X16020061Y5880595I-35814J0D01*
G03X16025209Y5899095I-30666J18500D01*
G01X16025209Y5989095D01*
G03X16020061Y6007595I-35814J0D01*
G03X16025209Y6026095I-30666J18500D01*
G01X16025209Y6116095D01*
G03X16007211Y6147164I-35814J0D01*
G03X15988980Y6152151I-18230J-30827D01*
G01X15854209Y6152151D01*
G01X15785552Y6220808D01*
G03X15760227Y6231298I-25324J-25324D01*
G01X15330929Y6231298D01*
G03X15295115Y6195484I0J-35814D01*
G01X15295115Y6192022D01*
G03X15273486Y6147902I34185J-44120D01*
G01X15273486Y6107902D01*
G03X15329300Y6052088I55814J0D01*
G01X15379300Y6052088D01*
G01X15381819Y6052145D01*
G01X15473610Y6052145D01*
G03X15487800Y6049790I14189J41558D01*
G01X15525600Y6049790D01*
G03X15539790Y6052145I0J43914D01*
G01X15548401Y6052145D01*
G01X15558248Y6042298D01*
G03X15569893Y6034524I25324J25324D01*
G03X15567885Y6022700I33806J-11824D01*
G01X15567885Y5982700D01*
G03X15570422Y5969461I35814J0D01*
G02X15574696Y5956634I-110381J-43913D01*
G03X15567886Y5932600I39004J-24034D01*
G01X15567886Y5912600D01*
G03X15613700Y5866786I45814J0D01*
G01X15653700Y5866786D01*
G01X15654890Y5866806D01*
G02X15710850Y5867736I55960J-1682807D01*
G01X15782246Y5867736D01*
G02X15803923Y5867030I0J-333010D01*
G01X15803781Y5865874D01*
G01X15801296Y5865609D01*
G01X15786595Y5865609D01*
G03X15752291Y5851400I0J-48514D01*
G01X15682324Y5781433D01*
G01X15679284Y5781088D01*
G03X15618580Y5722034I5216J-66088D01*
G03X15665457Y5651500I65920J-7034D01*
G03X15619346Y5575758I19043J-63500D01*
G03X15689804Y5521919I65154J12242D01*
G03X15672783Y5451642I45496J-48219D01*
G03X15668005Y5457205I-39083J-28742D01*
G01X15439405Y5685805D01*
G03X15405100Y5700014I-34305J-34305D01*
G01X15082295Y5700014D01*
G01X15001749Y5780560D01*
G03X15003710Y5793110I-39173J12550D01*
G01X15003710Y5889671D01*
G03X14962576Y5930805I-41134J0D01*
G01X14920016Y5930805D01*
G03X14878882Y5889671I0J-41134D01*
G01X14878882Y5793110D01*
G03X14894102Y5761165I41134J0D01*
G03X14906991Y5738099I47194J11239D01*
G01X15027895Y5617195D01*
G03X15062200Y5602986I34305J34305D01*
G01X15385005Y5602986D01*
G01X15585186Y5402805D01*
G01X15585186Y4813300D01*
G03X15599395Y4778995I48514J0D01*
G01X15739095Y4639295D01*
G03X15773400Y4625086I34305J34305D01*
G01X15801296Y4625086D01*
G02X15803839Y4624809I0J-11811D01*
G03X15808730Y4610595I35557J4287D01*
G03X15803781Y4595874I30666J-18500D01*
G01X15801296Y4595609D01*
G01X15742200Y4595609D01*
G01X15555214Y4782595D01*
G01X15555214Y5359400D01*
G03X15541005Y5393705I-48514J0D01*
G01X15363205Y5571505D01*
G03X15328900Y5585714I-34305J-34305D01*
G01X15006095Y5585714D01*
G01X14811632Y5780177D01*
G03X14813718Y5793110I-39048J12933D01*
G01X14813718Y5889671D01*
G03X14801579Y5918848I-41134J0D01*
G01X14813801Y5918848D01*
G03X14853224Y5935177I0J55753D01*
G01X14885723Y5967677D01*
G03X14898608Y5987805I-39423J39423D01*
G03X14920016Y5981795I21408J35124D01*
G01X14962576Y5981795D01*
G03X15003710Y6022929I0J41134D01*
G01X15003710Y6119490D01*
G03X14994412Y6145537I-41134J0D01*
G02X14992096Y6169768I125581J24231D01*
G01X14992096Y6178804D01*
G03X14977217Y6214725I-50800J0D01*
G01X14945721Y6246221D01*
G03X14909800Y6261100I-35921J-35921D01*
G01X14834214Y6261100D01*
G01X14834214Y6316499D01*
G03X14831678Y6329737I-35814J0D01*
G02X14826914Y6354599I62498J24862D01*
G01X14826914Y6367100D01*
G03X14825629Y6378085I-48527J-111D01*
G01X14825770Y6378085D01*
G03X14840608Y6353772I58162J18813D01*
G01X14925765Y6268615D01*
G03X14969050Y6250686I43285J43285D01*
G01X14999643Y6250686D01*
G01X15004744Y6250520D01*
G01X15008899Y6250144D01*
G01X15015575Y6249096D01*
G03X15103094Y6311900I21225J62804D01*
G03X15015575Y6374704I-66294J0D01*
G01X15008899Y6373656D01*
G01X15004744Y6373280D01*
G01X14999643Y6373114D01*
G01X14994405Y6373114D01*
G01X14947208Y6420312D01*
G01X14947208Y6506556D01*
G03X14970998Y6635596I-14318J69353D01*
G03X14863952Y6559713I-38108J-59687D01*
G01X14856393Y6559713D01*
G03X14845144Y6557900I0J-35814D01*
G03X14833895Y6559713I-11249J-34002D01*
G01X14803895Y6559713D01*
G03X14793888Y6558286I0J-35814D01*
G03X14783882Y6559713I-10006J-34388D01*
G01X14769695Y6559713D01*
G01X14769695Y6559713D01*
G01X14769695Y6566305D01*
G01X14769695Y6566305D01*
G03X14754816Y6602226I-50800J0D01*
G01X14729821Y6627221D01*
G03X14693900Y6642100I-35921J-35921D01*
G01X14643100Y6642100D01*
G03X14607179Y6627221I0J-50800D01*
G01X14582974Y6603016D01*
G03X14568095Y6567095I35921J-35921D01*
G01X14568095Y6567095D01*
G01X14568095Y6559713D01*
G01X14568095Y6559713D01*
G01X14553908Y6559713D01*
G03X14543902Y6558286I0J-35814D01*
G03X14533895Y6559713I-10006J-34388D01*
G01X14503895Y6559713D01*
G03X14493889Y6558286I0J-35814D01*
G03X14483883Y6559713I-10006J-34388D01*
G01X14453883Y6559713D01*
G03X14442634Y6557900I0J-35814D01*
G03X14431385Y6559713I-11249J-34002D01*
G01X14423826Y6559713D01*
G03X14316779Y6635596I-68938J16196D01*
G03X14340569Y6506556I38108J-59687D01*
G01X14340569Y6413899D01*
G01X14340572Y6413442D01*
G01X14320415Y6393285D01*
G03X14313284Y6384718I43285J-43285D01*
G03X14291086Y6376678I416J-35812D01*
G02X14237500Y6357620I-53586J65806D01*
G01X14235757Y6357620D01*
G01X14230656Y6357786D01*
G01X14226501Y6358162D01*
G01X14219825Y6359210D01*
G03X14132306Y6296406I-21225J-62804D01*
G03X14219825Y6233602I66294J0D01*
G01X14226501Y6234650D01*
G01X14230656Y6235026D01*
G01X14235757Y6235192D01*
G01X14237500Y6235192D01*
G02X14291086Y6216134I0J-84864D01*
G03X14313700Y6208091I22614J27771D01*
G01X14413700Y6208091D01*
G03X14449514Y6243905I0J35814D01*
G01X14449514Y6309877D01*
G01X14467586Y6291805D01*
G01X14467586Y6285500D01*
G02X14462530Y6274366I-14788J0D01*
G03X14450285Y6247400I23569J-26966D01*
G01X14450285Y6207400D01*
G03X14486099Y6171586I35814J0D01*
G01X14546099Y6171586D01*
G03X14581913Y6207400I0J35814D01*
G01X14581913Y6212345D01*
G01X14644683Y6149575D01*
G03X14582734Y6110701I-1583J-66275D01*
G03X14594255Y6038478I60366J-27401D01*
G03X14581281Y6030364I12065J-33721D01*
G01X14581281Y6030364D01*
G01X14546170Y6030415D01*
G01X14546170Y6030415D01*
G01X14485946Y6030414D01*
G01X14485946Y6030414D01*
G01X14458201Y6030354D01*
G01X14458201Y6030354D01*
G03X14454256Y6030214I0J-55753D01*
G01X14431332Y6030214D01*
G03X14413733Y6034836I-17598J-31192D01*
G01X14313667Y6034836D01*
G03X14277853Y5999022I0J-35814D01*
G01X14277853Y5893684D01*
G03X14313667Y5857870I35814J0D01*
G01X14345058Y5857870D01*
G01X14314948Y5827760D01*
G03X14312529Y5825195I42656J-42656D01*
G01X14307738Y5820405D01*
G03X14297249Y5795081I25324J-25324D01*
G01X14297249Y5645666D01*
G03X14298614Y5635869I35814J0D01*
G03X14333104Y5609703I34490J9648D01*
G01X14382104Y5609703D01*
G03X14409050Y5621927I0J35814D01*
G03X14418048Y5645666I-26816J23739D01*
G01X14418048Y5759920D01*
G01X14451890Y5793762D01*
G01X14453551Y5793673D01*
G01X14487152Y5760072D01*
G01X14487152Y5645367D01*
G03X14522966Y5609553I35814J0D01*
G01X14572436Y5609553D01*
G03X14608250Y5645367I0J35814D01*
G01X14608250Y5795379D01*
G03X14597760Y5820703I-35814J0D01*
G01X14572025Y5846439D01*
G01X14572025Y5854700D01*
G03X14571742Y5860536I-60325J0D01*
G01X14571742Y5897793D01*
G01X14582531Y5908582D01*
G01X14615358Y5908582D01*
G03X14657261Y5918848I6036J66019D01*
G01X14701029Y5918848D01*
G03X14688890Y5889671I28995J-29177D01*
G01X14688890Y5793110D01*
G03X14703965Y5761283I41134J0D01*
G03X14716999Y5737591I47339J10613D01*
G01X14951695Y5502895D01*
G03X14986000Y5488686I34305J34305D01*
G01X15308805Y5488686D01*
G01X15458186Y5339305D01*
G01X15458186Y5241018D01*
G03X15407114Y5242814I-27686J-60236D01*
G01X15179986Y5242814D01*
G03X15170550Y5244079I-9436J-34549D01*
G01X15116550Y5244079D01*
G03X15113710Y5243967I0J-35814D01*
G01X14996450Y5243967D01*
G03X14960717Y5210563I0J-35814D01*
G03X14960617Y5207885I35714J-2678D01*
G01X14960617Y5128876D01*
G01X14960636Y5127708D01*
G01X14960636Y4992525D01*
G01X14954044Y4985933D01*
G03X14901295Y5028325I-52749J-11623D01*
G01X14768496Y5028325D01*
G01X14766440Y5028286D01*
G01X14761925Y5028212D01*
G03X14758763Y5028020I586J-35809D01*
G01X14753771Y5027495D01*
G03X14749456Y5026772I3748J-35617D01*
G01X14741765Y5024995D01*
G01X14741442Y5024919D01*
G01X14735717Y5023540D01*
G01X14734269Y5023360D01*
G01X14732238Y5023284D01*
G01X14730013Y5023764D01*
G03X14695500Y5050010I-34512J-9567D01*
G01X14641500Y5050010D01*
G03X14605951Y5018549I0J-35814D01*
G03X14592387Y5008996I20740J-43857D01*
G01X14583655Y5000265D01*
G03X14560341Y5008892I-23314J-27186D01*
G01X14390341Y5008892D01*
G03X14354527Y4973078I0J-35814D01*
G01X14354527Y4903079D01*
G03X14367394Y4875582I35814J0D01*
G03X14354527Y4848085I22947J-27497D01*
G01X14354527Y4778085D01*
G03X14390341Y4742271I35814J0D01*
G01X14560341Y4742271D01*
G03X14584937Y4752053I0J35814D01*
G01X14592387Y4744604D01*
G03X14605951Y4735051I34305J34305D01*
G03X14641500Y4703590I35549J4352D01*
G01X14695500Y4703590D01*
G03X14730013Y4729836I0J35814D01*
G01X14732238Y4730316D01*
G01X14734269Y4730240D01*
G01X14735717Y4730060D01*
G01X14741442Y4728681D01*
G01X14741765Y4728605D01*
G01X14749456Y4726828D01*
G03X14753771Y4726105I8063J34894D01*
G01X14758763Y4725580D01*
G03X14761925Y4725388I3748J35617D01*
G01X14766440Y4725314D01*
G01X14768496Y4725275D01*
G01X14854766Y4725275D01*
G01X14796447Y4666956D01*
G03X14783418Y4643289I34305J-34305D01*
G03X14764937Y4611949I17334J-31340D01*
G01X14764937Y4571949D01*
G03X14772888Y4549449I35814J0D01*
G03X14764937Y4526949I27864J-22500D01*
G01X14764937Y4486949D01*
G03X14779151Y4458382I35814J0D01*
G03X14778621Y4451235I47985J-7147D01*
G01X14778416Y4450820D01*
G03X14764321Y4422343I21719J-28476D01*
G01X14764321Y4343334D01*
G03X14767616Y4328330I35814J0D01*
G03X14764321Y4313327I32520J-15004D01*
G01X14764321Y4234317D01*
G03X14773695Y4210161I35814J0D01*
G02X14778621Y4197465I-13896J-12696D01*
G03X14792831Y4163160I48514J0D01*
G01X14793455Y4162535D01*
G01X14793090Y4160585D01*
G03X14777128Y4125832I29851J-34754D01*
G01X14777128Y4105832D01*
G03X14781817Y4085641I45814J0D01*
G03X14772722Y4086553I-9096J-44902D01*
G01X14732722Y4086553D01*
G03X14707803Y4079183I0J-45814D01*
G03X14682383Y4086882I-25419J-38115D01*
G01X14642383Y4086882D01*
G03X14596569Y4041068I0J-45814D01*
G01X14596569Y4021068D01*
G03X14616336Y3983379I45814J0D01*
G01X14616536Y3980969D01*
G01X14616536Y3968517D01*
G03X14629965Y3936098I45847J0D01*
G01X14706910Y3859153D01*
G01X14633385Y3859153D01*
G01X14610938Y3881599D01*
G03X14590007Y3893565I-32419J-32419D01*
G03X14551222Y3914995I-38786J-24384D01*
G01X14531222Y3914995D01*
G03X14485408Y3869181I0J-45814D01*
G01X14485408Y3829181D01*
G03X14492912Y3804055I45814J0D01*
G03X14466222Y3812633I-26691J-37236D01*
G01X14446222Y3812633D01*
G03X14407242Y3790892I0J-45814D01*
G03X14393214Y3781124I20277J-44073D01*
G01X14365333Y3753242D01*
G03X14366015Y3760200I-35132J6958D01*
G01X14366015Y3800200D01*
G03X14330201Y3836014I-35814J0D01*
G01X14270201Y3836014D01*
G03X14263016Y3835286I0J-35814D01*
G03X14264415Y3845200I-34414J9914D01*
G01X14264415Y3885200D01*
G03X14261879Y3898438I-35814J0D01*
G02X14254494Y3926750I110387J43912D01*
G03X14198601Y4028694I-55893J35650D01*
G03X14142709Y3926750I0J-66294D01*
G02X14135324Y3898438I-117771J15600D01*
G03X14132787Y3885200I33278J-13238D01*
G01X14132787Y3845200D01*
G03X14140738Y3822700I35814J0D01*
G03X14132787Y3800200I27864J-22500D01*
G01X14132787Y3760200D01*
G03X14138236Y3741210I35814J0D01*
G02X14148452Y3713300I-61020J-38160D01*
G01X14148256Y3707039D01*
G01X14148236Y3705849D01*
G01X14148236Y3665849D01*
G01X14148256Y3664658D01*
G02X14148686Y3649748I-1682807J-55960D01*
G02X14140363Y3632230I-35123J5950D01*
G01X14138838Y3631639D01*
G02X14112549Y3626413I-26289J63503D01*
G03X14073754Y3610343I0J-54864D01*
G01X14032805Y3569395D01*
G03X14016736Y3530600I38795J-38795D01*
G01X14016736Y3276600D01*
G03X14032805Y3237805I54864J0D01*
G01X14075651Y3194959D01*
G03X14096143Y3182033I38795J38795D01*
G01X14096143Y3146458D01*
G03X14106557Y3136044I10414J0D01*
G01X14385329Y3136044D01*
G03X14395743Y3146458I0J10414D01*
G01X14395743Y3191643D01*
G03X14405959Y3199449I-24089J42111D01*
G01X14490526Y3284017D01*
G03X14504736Y3318322I-34305J34305D01*
G01X14504736Y3593662D01*
G01X14504739Y3594377D01*
G03X14531222Y3585948I26482J37385D01*
G01X14551222Y3585948D01*
G03X14589100Y3605991I0J45814D01*
G03X14593036Y3606388I-2638J45771D01*
G03X14606151Y3541328I62873J-21178D01*
G03X14608268Y3539046I49648J43932D01*
G01X14609952Y3537245D01*
G01X14609952Y3476375D01*
G03X14577285Y3440700I3147J-35675D01*
G01X14577285Y3400700D01*
G03X14585235Y3378200I35814J0D01*
G03X14577285Y3355700I27864J-22500D01*
G01X14577285Y3315700D01*
G03X14579821Y3302462I35814J0D01*
G02X14588235Y3258550I-110387J-43912D01*
G01X14588235Y3232353D01*
G03X14579175Y3177571I54864J-37213D01*
G01X14100329Y5308901D02*
G03X14064515Y5273087I0J-35814D01*
G01X14064515Y5093087D01*
G03X14100329Y5057273I35814J0D01*
G01X14350329Y5057273D01*
G03X14386143Y5093087I0J35814D01*
G01X14386143Y5273087D01*
G03X14350329Y5308901I-35814J0D01*
G01X14309583Y5308901D01*
G02X14292893Y5332671I8581J23770D01*
G03X14273104Y5380446I-67564J0D01*
G01X14170670Y5482880D01*
G03X14122895Y5502669I-47775J-47775D01*
G01X14058405Y5502669D01*
G03X14058405Y5367541I0J-67564D01*
G01X14094909Y5367541D01*
G01X14148954Y5313496D01*
G02X14141074Y5308901I-16461J19175D01*
G01X14100329Y5308901D01*
G01X14417918Y5531383D02*
G03X14382104Y5567197I-35814J0D01*
G01X14333104Y5567197D01*
G03X14297290Y5531383I0J-35814D01*
G01X14297290Y5413883D01*
G03X14333104Y5378069I35814J0D01*
G01X14382104Y5378069D01*
G03X14417918Y5413883I0J35814D01*
G01X14417918Y5531383D01*
G01X14480286Y5231992D02*
G03X14482683Y5219110I35814J0D01*
G01X14482725Y5218652D01*
G01X14482890Y5213551D01*
G01X14482890Y5206057D01*
G01X14482725Y5200956D01*
G01X14482348Y5196801D01*
G01X14481300Y5190125D01*
G03X14544104Y5102606I62804J-21225D01*
G03X14606909Y5190125I0J66294D01*
G01X14605860Y5196801D01*
G01X14605484Y5200956D01*
G01X14605318Y5206057D01*
G01X14605318Y5213551D01*
G01X14605484Y5218652D01*
G01X14605654Y5220527D01*
G03X14615414Y5245100I-26054J24573D01*
G01X14615414Y5537200D01*
G03X14579600Y5573014I-35814J0D01*
G01X14516100Y5573014D01*
G03X14480286Y5537200I0J-35814D01*
G01X14480286Y5268656D01*
G03X14480286Y5232761I63818J-17948D01*
G01X14480286Y5231992D01*
G01X15346286Y6731000D02*
G03X15717914Y6731000I185814J0D01*
G03X15346286Y6731000I-185814J0D01*
G01X14834499Y4852079D02*
G01X14971331Y4852079D01*
G03X14983816Y4854325I0J35814D01*
G01X14943048Y4813557D01*
G03X14901295Y4833304I-41753J-34267D01*
G01X14768496Y4833304D01*
G03X14764230Y4833135I0J-54014D01*
G01X14759671Y4832872D01*
G03X14756623Y4832565I2064J-35754D01*
G01X14751630Y4831845D01*
G03X14747706Y4831053I5112J-35447D01*
G01X14740191Y4829093D01*
G01X14734783Y4827736D01*
G01X14733503Y4827576D01*
G01X14732064Y4827523D01*
G01X14730013Y4827980D01*
G03X14695500Y4854227I-34512J-9567D01*
G01X14641500Y4854227D01*
G03X14624256Y4849802I0J-35814D01*
G03X14593424Y4861801I-31956J-36502D01*
G03X14583288Y4875582I-33083J-13716D01*
G03X14593558Y4889689I-22947J27497D01*
G03X14624353Y4903744I-3480J48389D01*
G03X14641500Y4899373I17146J31443D01*
G01X14695500Y4899373D01*
G03X14714660Y4904929I0J35814D01*
G03X14768496Y4855298I53836J4383D01*
G01X14819660Y4855298D01*
G03X14834499Y4852079I14839J32595D01*
G01X18441151Y3135114D02*
G01X14671239Y3135114D01*
G03X14680312Y3140275I-28140J60025D01*
G01X14688639Y3140275D01*
G03X14727434Y3156345I0J54864D01*
G01X14808893Y3237804D01*
G03X14824962Y3276294I-38795J38795D01*
G03X14837395Y3254995I46738J13006D01*
G01X14856067Y3236324D01*
G01X14856412Y3233284D01*
G03X14916252Y3172501I66088J5216D01*
G03X14986436Y3220975I6248J65999D01*
G01X14986436Y3185714D01*
G03X15022250Y3149900I35814J0D01*
G01X15069561Y3149900D01*
G03X15089877Y3156220I0J35814D01*
G03X15109846Y3150136I19970J29730D01*
G01X15149846Y3150136D01*
G03X15163084Y3152672I0J35814D01*
G02X15202891Y3161015I43912J-110387D01*
G03X15306294Y3215950I37109J54935D01*
G03X15202891Y3270885I-66294J0D01*
G02X15163084Y3279227I4105J118729D01*
G03X15149846Y3281764I-13238J-33278D01*
G01X15109846Y3281764D01*
G03X15105375Y3281484I0J-35814D01*
G01X15105375Y3299609D01*
G03X15105560Y3303248I-35629J3640D01*
G01X15105560Y3357249D01*
G03X15105375Y3360888I-35814J0D01*
G01X15105375Y3462076D01*
G03X15094885Y3487400I-35814J0D01*
G01X15041472Y3540813D01*
G03X15016148Y3551303I-25324J-25324D01*
G01X14963671Y3551303D01*
G01X14963671Y3583309D01*
G01X14963638Y3585048D01*
G01X14963638Y3616856D01*
G03X14987806Y3607472I24168J26430D01*
G01X15006493Y3607472D01*
G02X15014129Y3602125I-11345J-24327D01*
G01X15091973Y3524281D01*
G03X15124392Y3510852I32419J32419D01*
G01X15143177Y3510852D01*
G03X15175294Y3490885I32117J15847D01*
G01X15215294Y3490885D01*
G03X15237794Y3498836I0J35814D01*
G03X15260294Y3490885I22500J27864D01*
G01X15300294Y3490885D01*
G03X15327258Y3503129I0J35814D01*
G02X15338394Y3508185I11136J-9734D01*
G01X15456599Y3508185D01*
G03X15490904Y3522395I0J48514D01*
G01X15895095Y3926586D01*
G01X16564141Y3926586D01*
G03X16556983Y3905104I28656J-21482D01*
G01X16556983Y3851302D01*
G03X16565015Y3828701I35814J0D01*
G01X16565015Y3823439D01*
G03X16564837Y3818990I55575J-4449D01*
G01X16564837Y3818990D01*
G01X16564776Y3783998D01*
G01X16564776Y3743874D01*
G03X16565262Y3737218I45814J0D01*
G02X16567832Y3684057I-548582J-53160D01*
G01X16567832Y3610918D01*
G01X16564593Y3610918D01*
G03X16554179Y3600504I0J-10414D01*
G01X16554179Y3203831D01*
G03X16564593Y3193417I10414J0D01*
G01X16602196Y3193417D01*
G03X16607370Y3194793I0J10414D01*
G03X16663585Y3209275I16215J53407D01*
G03X16743585Y3209274I40000J38925D01*
G03X16801399Y3195305I40000J38926D01*
G03X16804669Y3194779I3270J9887D01*
G01X16842272Y3194779D01*
G03X16852686Y3205193I0J10414D01*
G01X16852686Y3527740D01*
G01X16938564Y3613617D01*
G02X16979979Y3649286I259929J-259928D01*
G03X16994504Y3678085I-21289J28799D01*
G01X16994504Y3771684D01*
G03X16958690Y3807498I-35814J0D01*
G01X16908690Y3807498D01*
G03X16872876Y3771684I0J-35814D01*
G01X16872876Y3733085D01*
G02X16860231Y3692977I-69928J0D01*
G01X16752099Y3584846D01*
G01X16752099Y3589790D01*
G01X16790196Y3627887D01*
G03X16804405Y3662191I-34305J34305D01*
G01X16804405Y3714074D01*
G02X16809462Y3725209I14790J0D01*
G03X16821705Y3752174I-23570J26964D01*
G01X16821705Y3792174D01*
G03X16813917Y3814471I-35814J0D01*
G03X16821767Y3836847I-27964J22375D01*
G01X16821767Y3942266D01*
G03X16767841Y4014908I-65876J7434D01*
G03X16691660Y3966109I-11949J-65208D01*
G01X16666539Y3940988D01*
G01X16646096Y3940988D01*
G01X17013400Y4308291D01*
G01X17024900Y4308291D01*
G03X17043400Y4313439I0J35814D01*
G03X17061900Y4308291I18500J30666D01*
G01X17151900Y4308291D01*
G03X17170400Y4313439I0J35814D01*
G03X17188900Y4308291I18500J30666D01*
G01X17278900Y4308291D01*
G03X17297400Y4313439I0J35814D01*
G03X17315900Y4308291I18500J30666D01*
G01X17405900Y4308291D01*
G03X17426873Y4315074I0J35814D01*
G03X17442900Y4311288I16027J32028D01*
G01X17532900Y4311288D01*
G03X17568714Y4347102I0J35814D01*
G01X17568714Y4472863D01*
G03X17589405Y4466281I20691J29232D01*
G01X17739404Y4466281D01*
G03X17774961Y4497809I0J35814D01*
G02X17777504Y4498086I2543J-11534D01*
G01X18128205Y4498086D01*
G01X18175986Y4450305D01*
G01X18175986Y4343400D01*
G03X18190195Y4309095I48514J0D01*
G01X18276977Y4222314D01*
G03X18311282Y4208104I34305J34305D01*
G01X18314673Y4208104D01*
G02X18321301Y4206173I0J-12342D01*
G03X18360873Y4181300I39571J19041D01*
G01X18398673Y4181300D01*
G03X18438245Y4206173I0J43914D01*
G02X18444053Y4208077I6629J-10411D01*
G02X18456012Y4202791I-1004J-18442D01*
G03X18481149Y4192487I25137J25510D01*
G01X18530336Y4192487D01*
G01X18530336Y4008300D01*
G03X18566150Y3972486I35814J0D01*
G01X18705337Y3972486D01*
G01X18705337Y3399300D01*
G02X18441151Y3135114I-264186J0D01*
G01X15962038Y3543528D02*
G01X15924460Y3543528D01*
G03X15914046Y3533114I0J-10414D01*
G01X15914046Y3204615D01*
G03X15924460Y3194201I10414J0D01*
G01X15962038Y3194201D01*
G03X15972452Y3204615I0J10414D01*
G01X15972452Y3533114D01*
G03X15962038Y3543528I-10414J0D01*
G01X16399847Y3194808D02*
G03X16404878Y3193512I5031J9118D01*
G01X16442482Y3193512D01*
G03X16452896Y3203926I0J10414D01*
G01X16452896Y3600492D01*
G03X16442482Y3610906I-10414J0D01*
G01X16432099Y3610906D01*
G01X16432099Y3726463D01*
G01X16434008Y3728861D01*
G03X16400988Y3835869I-50423J43039D01*
G03X16318307Y3760339I-17404J-63969D01*
G03X16288863Y3760339I-14722J-64639D01*
G03X16223585Y3838194I-65278J11561D01*
G03X16158307Y3760339I0J-66294D01*
G03X16143585Y3761994I-14722J-64639D01*
G03X16128863Y3760339I-0J-66294D01*
G03X16046181Y3835869I-65278J11561D01*
G03X16013162Y3728860I17404J-63969D01*
G01X16015071Y3726464D01*
G01X16015071Y3615788D01*
G01X16004861Y3615788D01*
G03X15994447Y3605374I0J-10414D01*
G01X15994447Y3203327D01*
G03X16004861Y3192913I10414J0D01*
G01X16042464Y3192913D01*
G03X16048108Y3194575I0J10414D01*
G03X16103585Y3209274I15477J53625D01*
G03X16183585Y3209275I40000J38926D01*
G03X16263585Y3209275I40000J38925D01*
G03X16343585Y3209274I40000J38925D01*
G03X16399847Y3194808I40000J38926D01*
G01X16522452Y3611249D02*
G01X16484848Y3611249D01*
G03X16474434Y3600835I0J-10414D01*
G01X16474434Y3204002D01*
G03X16484848Y3193588I10414J0D01*
G01X16522452Y3193588D01*
G03X16532866Y3204002I0J10414D01*
G01X16532866Y3600835D01*
G03X16522452Y3611249I-10414J0D01*
G01X16940682Y3527466D02*
G01X16889044Y3527466D01*
G03X16878630Y3517052I0J-10414D01*
G01X16878630Y3205503D01*
G03X16889044Y3195089I10414J0D01*
G01X16940682Y3195089D01*
G03X16951096Y3205503I0J10414D01*
G01X16951096Y3517052D01*
G03X16940682Y3527466I-10414J0D01*
G01X16937856Y3904463D02*
G01X16937875Y3902941D01*
G01X16937875Y3857663D01*
G03X16973689Y3821849I35814J0D01*
G01X17023689Y3821849D01*
G03X17059503Y3857663I0J35814D01*
G01X17059503Y3902941D01*
G01X17059522Y3904463D01*
G01X17059522Y3988699D01*
G01X17059696Y3993680D01*
G01X17060085Y3997676D01*
G01X17061054Y4003417D01*
G03X16998689Y4092194I-62365J22483D01*
G03X16936324Y4003417I0J-66294D01*
G01X16937293Y3997676D01*
G01X16937682Y3993680D01*
G01X16937856Y3988699D01*
G01X16937856Y3904463D01*
G01X17860886Y3594100D02*
G03X18232514Y3594100I185814J0D01*
G03X17860886Y3594100I-185814J0D01*
G01X14704821Y3629879D02*
G01X14701646Y3633275D01*
G01X14701646Y3647469D01*
G01X14727806Y3647469D01*
G01X14729546Y3647502D01*
G01X14761402Y3647502D01*
G03X14751995Y3623308I26407J-24193D01*
G01X14751995Y3585048D01*
G01X14751962Y3583309D01*
G01X14751962Y3556241D01*
G03X14711286Y3461971I18242J-63781D01*
G03X14706599Y3453364I28813J-21271D01*
G03X14704967Y3457041I-33500J-12664D01*
G02X14701646Y3470799I26831J13758D01*
G01X14701646Y3537245D01*
G01X14703329Y3539046D01*
G03X14705446Y3541328I-47531J46214D01*
G03X14707548Y3626588I-49758J43882D01*
G03X14704821Y3629879I-28889J-21168D01*
G01X14803620Y3683316D02*
G01X14803620Y3703316D01*
G03X14802195Y3713318I-35814J0D01*
G03X14803620Y3723321I-34389J10003D01*
G01X14803620Y3743321D01*
G03X14802199Y3753311I-35814J0D01*
G03X14803620Y3763301I-34393J9990D01*
G01X14803620Y3783301D01*
G03X14802195Y3793303I-35814J0D01*
G03X14803620Y3803306I-34389J10003D01*
G01X14803620Y3807494D01*
G01X14807809Y3807494D01*
G03X14817811Y3808919I0J35814D01*
G03X14827814Y3807494I10003J34389D01*
G01X14847814Y3807494D01*
G03X14857816Y3808919I0J35814D01*
G03X14867819Y3807494I10003J34389D01*
G01X14887819Y3807494D01*
G03X14897821Y3808919I0J35814D01*
G03X14907824Y3807494I10003J34389D01*
G01X14927824Y3807494D01*
G03X14937826Y3808919I0J35814D01*
G03X14947829Y3807494I10003J34389D01*
G01X14961422Y3807494D01*
G03X14951992Y3783275I26383J-24219D01*
G01X14951992Y3763275D01*
G03X14953413Y3753285I35814J0D01*
G03X14951992Y3743296I34393J-9990D01*
G01X14951992Y3723296D01*
G03X14953417Y3713293I35814J0D01*
G03X14951992Y3703291I34389J-10003D01*
G01X14951992Y3683291D01*
G03X14953417Y3673288I35814J0D01*
G03X14951992Y3663286I34389J-10003D01*
G01X14951992Y3649738D01*
G03X14927824Y3659122I-24168J-26430D01*
G01X14907824Y3659122D01*
G03X14897821Y3657697I0J-35814D01*
G03X14887819Y3659122I-10003J-34389D01*
G01X14867819Y3659122D01*
G03X14857816Y3657697I0J-35814D01*
G03X14847814Y3659122I-10003J-34389D01*
G01X14827814Y3659122D01*
G03X14817811Y3657697I0J-35814D01*
G03X14807809Y3659122I-10003J-34389D01*
G01X14794213Y3659122D01*
G03X14803620Y3683316I-26407J24194D01*
G01X14999212Y4105907D02*
G01X14999212Y4125907D01*
G03X14983250Y4160660I-45814J0D01*
G02X14981997Y4170621I65925J13346D01*
G03X14989949Y4197235I-40562J26615D01*
G02X14995227Y4211138I20950J0D01*
G03X15004250Y4234905I-26792J23767D01*
G01X15004250Y4313914D01*
G03X15000955Y4328918I-35814J0D01*
G03X15004250Y4343921I-32520J15004D01*
G01X15004250Y4422931D01*
G03X14989949Y4451563I-35814J0D01*
G03X14988646Y4462634I-48514J-98D01*
G03X14998165Y4486949I-26295J24315D01*
G01X14998165Y4526949D01*
G03X14995737Y4539910I-35814J0D01*
G03X15013950Y4536135I18213J42038D01*
G01X15053950Y4536135D01*
G03X15081541Y4545375I0J45814D01*
G03X15105551Y4536135I24010J26574D01*
G01X15165551Y4536135D01*
G03X15178789Y4538671I0J35814D01*
G02X15200053Y4543338I24862J-62498D01*
G01X15497795Y4245595D01*
G03X15532100Y4231386I34305J34305D01*
G01X15732477Y4231386D01*
G01X15372305Y3871214D01*
G01X15338394Y3871214D01*
G02X15328757Y3875980I0J12125D01*
G03X15300294Y3890057I-28463J-21737D01*
G01X15260294Y3890057D01*
G03X15237794Y3882107I0J-35814D01*
G03X15215294Y3890057I-22500J-27864D01*
G01X15175294Y3890057D01*
G03X15143177Y3870091I0J-35814D01*
G01X15139944Y3870091D01*
G03X15107525Y3856662I0J-45847D01*
G01X15069985Y3819122D01*
G01X15027806Y3819122D01*
G01X15026066Y3819089D01*
G01X14994662Y3819089D01*
G03X15004093Y3843308I-26383J24219D01*
G01X15004093Y3862915D01*
G01X15004237Y3863191D01*
G01X15115536Y3974491D01*
G01X15144992Y3974491D01*
G03X15180806Y4010305I0J35814D01*
G01X15180806Y4050978D01*
G03X15173043Y4073245I-35814J0D01*
G03X15180787Y4095488I-28070J22243D01*
G01X15180787Y4135488D01*
G03X15180661Y4138492I-35814J0D01*
G01X15180661Y4152709D01*
G01X15205577Y4177626D01*
G03X15210879Y4275774I-41777J51474D01*
G03X15112689Y4271320I-47079J-46674D01*
G01X15059863Y4218494D01*
G03X15049373Y4193170I25324J-25324D01*
G01X15049373Y4139398D01*
G03X15049159Y4135488I35600J-3910D01*
G01X15049159Y4095488D01*
G03X15050231Y4086792I35814J0D01*
G01X15048029Y4086792D01*
G03X15043618Y4087005I-4411J-45601D01*
G01X15003618Y4087005D01*
G03X14999207Y4086792I0J-45814D01*
G01X14995034Y4086792D01*
G03X14999212Y4105907I-41636J19115D01*
G01X15078443Y4959190D02*
G01X15078443Y5060440D01*
G01X15111765Y5093763D01*
G03X15116550Y5093442I4785J35493D01*
G01X15170550Y5093442D01*
G03X15175461Y5093781I0J35814D01*
G01X15289871Y5093781D01*
G01X15341676Y5041976D01*
G03X15367000Y5031486I25324J25324D01*
G01X15405049Y5031486D01*
G03X15458186Y5032464I25451J61214D01*
G01X15458186Y4762500D01*
G03X15472395Y4728195I48514J0D01*
G01X15687800Y4512791D01*
G03X15722105Y4498581I34305J34305D01*
G01X15801296Y4498581D01*
G01X15803781Y4498317D01*
G03X15839396Y4466281I35614J3779D01*
G01X15989395Y4466281D01*
G03X16010086Y4472863I0J35814D01*
G01X16010086Y4344105D01*
G03X16013706Y4328414I35814J0D01*
G01X15552195Y4328414D01*
G01X15254356Y4626253D01*
G03X15220051Y4640463I-34305J-34305D01*
G01X15203651Y4640463D01*
G02X15188380Y4642219I0J67262D01*
G02X15186914Y4650049I20169J7829D01*
G01X15186914Y4704305D01*
G01X15199909Y4717300D01*
G01X15201322Y4718556D01*
G01X15202585Y4719480D01*
G01X15209222Y4723503D01*
G01X15212417Y4725275D01*
G01X15330504Y4725275D01*
G03X15373638Y4811801I0J54014D01*
G03X15373647Y4876813I-43134J32512D01*
G03X15373647Y4941811I-43143J32499D01*
G03X15330504Y5028325I-43143J32499D01*
G01X15197705Y5028325D01*
G03X15174470Y5023072I0J-54014D01*
G01X15173542Y5022929D01*
G01X15171199Y5022809D01*
G03X15138106Y5008615I1212J-48499D01*
G01X15076196Y4946705D01*
G03X15078443Y4959190I-33567J12485D01*
G01X15682214Y5422900D02*
G03X15680144Y5436921I-48514J0D01*
G03X15752001Y5409544I55156J36779D01*
G03X15801388Y5468484I-16701J64156D01*
G01X15801733Y5471524D01*
G01X15803582Y5473372D01*
G01X15803582Y5391095D01*
G03X15808730Y5372595I35814J0D01*
G03X15803582Y5354095I30666J-18500D01*
G01X15803582Y5264095D01*
G03X15808730Y5245595I35814J0D01*
G03X15803582Y5227095I30666J-18500D01*
G01X15803582Y5137095D01*
G03X15808730Y5118595I35814J0D01*
G03X15803582Y5100095I30666J-18500D01*
G01X15803582Y5010095D01*
G03X15808730Y4991595I35814J0D01*
G03X15803582Y4973095I30666J-18500D01*
G01X15803582Y4883095D01*
G03X15808730Y4864595I35814J0D01*
G03X15803582Y4846095I30666J-18500D01*
G01X15803582Y4756095D01*
G03X15808730Y4737595I35814J0D01*
G03X15803731Y4722368I30666J-18500D01*
G01X15801296Y4722114D01*
G01X15793495Y4722114D01*
G01X15682214Y4833395D01*
G01X15682214Y5422900D01*
G01X18530336Y4348300D02*
G01X18530336Y4334115D01*
G01X18481149Y4334115D01*
G03X18446071Y4305526I0J-35814D01*
G01X18443951Y4305167D01*
G02X18438245Y4307063I922J12307D01*
G03X18427109Y4321487I-39571J-19041D01*
G02X18426423Y4324365I47034J12736D01*
G02X18430472Y4330136I13783J-5365D01*
G03X18442715Y4357100I-23570J26964D01*
G01X18442715Y4397100D01*
G03X18434765Y4419600I-35814J0D01*
G03X18442715Y4442100I-27864J22500D01*
G01X18442715Y4482100D01*
G03X18421547Y4514783I-35814J0D01*
G03X18411206Y4530103I-44646J-18984D01*
G01X18379833Y4561476D01*
G01X18379488Y4564516D01*
G03X18266523Y4606177I-66088J-5216D01*
G03X18308184Y4493212I46877J-46877D01*
G01X18311224Y4492867D01*
G01X18312396Y4491694D01*
G03X18311087Y4482100I34505J-9594D01*
G01X18311087Y4442100D01*
G03X18319038Y4419600I35814J0D01*
G03X18311087Y4397100I27864J-22500D01*
G01X18311087Y4357100D01*
G03X18323331Y4330136I35814J0D01*
G02X18328003Y4322347I-9734J-11136D01*
G02X18327542Y4316615I-183529J11875D01*
G03X18324252Y4312258I33330J-28592D01*
G01X18273014Y4363495D01*
G01X18273014Y4470400D01*
G03X18258805Y4504705I-48514J0D01*
G01X18182605Y4580905D01*
G03X18148300Y4595114I-34305J-34305D01*
G01X17777504Y4595114D01*
G01X17775069Y4595368D01*
G03X17770070Y4610595I-35664J-3273D01*
G03X17775218Y4629095I-30666J18500D01*
G01X17775218Y4719095D01*
G03X17770070Y4737595I-35814J0D01*
G03X17775218Y4756095I-30666J18500D01*
G01X17775218Y4846095D01*
G03X17770070Y4864595I-35814J0D01*
G03X17775218Y4883095I-30666J18500D01*
G01X17775218Y4973095D01*
G03X17770070Y4991595I-35814J0D01*
G03X17775019Y5006317I-30666J18500D01*
G01X17777504Y5006581D01*
G01X18064210Y5006581D01*
G01X18523443Y4547347D01*
G03X18557748Y4533138I34305J34305D01*
G01X18572453Y4533138D01*
G02X18575896Y4532625I0J-11811D01*
G03X18610553Y4505838I34658J9027D01*
G01X18680553Y4505838D01*
G03X18705337Y4515799I0J35814D01*
G01X18705337Y4384114D01*
G01X18566150Y4384114D01*
G03X18530336Y4348300I0J-35814D01*
G01X17961864Y6334714D02*
G01X18119353Y6492203D01*
G02X18183862Y6531686I114738J-115023D01*
G01X18234436Y6531686D01*
G01X18024325Y6321575D01*
G03X18004536Y6273800I47775J-47775D01*
G01X18004536Y5831886D01*
G01X17929814Y5757164D01*
G01X17849790Y5757164D01*
G03X17866370Y5769320I-31195J59931D01*
G01X17942075Y5845025D01*
G03X17961864Y5892800I-47775J47775D01*
G01X17961864Y6334714D01*
G04 Copper End*

G04 PolygonModel Start*
G36*
G01X14516100Y5537200D02*
G01X14516100Y5231992D01*
G01X14516508Y5232400D01*
G01X14566900Y5232400D01*
G01X14579600Y5245100D01*
G01X14579600Y5537200D01*
G01X14516100Y5537200D01*
G37*
G36*
G01X14313667Y5893684D02*
G01X14413792Y5893684D01*
G01X14429954Y5909846D01*
G01X14457472Y5909846D01*
G01X14457472Y5879171D01*
G01X14417153Y5879171D01*
G01X14333063Y5795081D01*
G01X14333063Y5645666D01*
G01X14382234Y5645666D01*
G01X14382234Y5774755D01*
G01X14437512Y5830033D01*
G01X14467840Y5830033D01*
G01X14522966Y5774907D01*
G01X14522966Y5645367D01*
G01X14572436Y5645367D01*
G01X14572436Y5795379D01*
G01X14535928Y5831887D01*
G01X14535928Y5912628D01*
G01X14567696Y5944396D01*
G01X14621160Y5944396D01*
G01X14621160Y6004757D01*
G01X14606319Y6004757D01*
G01X14595962Y5994400D01*
G01X14418355Y5994400D01*
G01X14413733Y5999022D01*
G01X14313667Y5999022D01*
G01X14313667Y5893684D01*
G37*
G36*
G01X14996450Y5208153D02*
G01X15170688Y5208153D01*
G01X15171841Y5207000D01*
G01X15415129Y5207000D01*
G01X15430500Y5191629D01*
G01X15430500Y5067300D01*
G01X15367000Y5067300D01*
G01X15304705Y5129595D01*
G01X15096948Y5129595D01*
G01X15042629Y5075275D01*
G01X15042629Y4959190D01*
G01X14971331Y4887893D01*
G01X14834499Y4887893D01*
G01X14834499Y4930194D01*
G01X14949006Y4930194D01*
G01X14996450Y4977639D01*
G01X14996450Y5208153D01*
G37*
G36*
G01X15142459Y4250441D02*
G01X15185101Y4207799D01*
G01X15144847Y4167544D01*
G01X15144847Y4095362D01*
G01X15085187Y4095362D01*
G01X15085187Y4193170D01*
G01X15142459Y4250441D01*
G37*
G36*
G01X15144992Y4050978D02*
G01X14993513Y4050978D01*
G01X14993513Y3968849D01*
G01X14947818Y3923154D01*
G01X14947818Y3843308D01*
G01X14968279Y3843308D01*
G01X14968279Y3877882D01*
G01X15100702Y4010305D01*
G01X15144992Y4010305D01*
G01X15144992Y4050978D01*
G37*
G36*
G01X15330929Y6087959D02*
G01X15563236Y6087959D01*
G01X15583572Y6067623D01*
G01X15736276Y6067623D01*
G01X15777951Y6025948D01*
G01X15988980Y6025948D01*
G01X15988980Y6116337D01*
G01X15839374Y6116337D01*
G01X15760227Y6195484D01*
G01X15330929Y6195484D01*
G01X15330929Y6087959D01*
G37*
G36*
G01X16725900Y3949700D02*
G01X16681304Y3905104D01*
G01X16592797Y3905104D01*
G01X16592797Y3851302D01*
G01X16600829Y3843270D01*
G01X16600829Y3746500D01*
G01X16643214Y3746500D01*
G01X16643214Y3812997D01*
G01X16667063Y3836847D01*
G01X16785953Y3836847D01*
G01X16785953Y3946807D01*
G01X16783060Y3949700D01*
G01X16725900Y3949700D01*
G37*
G36*
G01X15069561Y3185714D02*
G01X15069561Y3462076D01*
G01X15016148Y3515489D01*
G01X14943319Y3515489D01*
G01X14928208Y3530600D01*
G01X14867744Y3530600D01*
G01X14867744Y3520070D01*
G01X14918062Y3469752D01*
G01X14994673Y3469752D01*
G01X15022287Y3442138D01*
G01X15022287Y3388768D01*
G01X14990581Y3357061D01*
G01X14990581Y3303447D01*
G01X15022250Y3271778D01*
G01X15022250Y3185714D01*
G01X15069561Y3185714D01*
G37*
G36*
G01X14727809Y3663321D02*
G01X14782197Y3663321D01*
G01X14793678Y3674803D01*
G01X14793678Y3649101D01*
G01X14787898Y3643321D01*
G01X14727809Y3643321D01*
G01X14727809Y3663321D01*
G37*
G36*
G01X15027808Y3823290D02*
G01X14967943Y3823290D01*
G01X14962315Y3817662D01*
G01X14962315Y3793755D01*
G01X14971850Y3803290D01*
G01X15027808Y3803290D01*
G01X15027808Y3823290D01*
G37*
G36*
G01X14967793Y3583311D02*
G01X14967793Y3643335D01*
G01X14961975Y3649152D01*
G01X14937540Y3649152D01*
G01X14947900Y3638792D01*
G01X14947900Y3583311D01*
G01X14967793Y3583311D01*
G37*

G04 TearDrop Start*
G36*
G01X15456450Y6144158D02*
G01X15436450Y6106058D01*
G03X15379300Y6087902I0J-99025D01*
G01X15399300Y6147902D01*
G03X15456450Y6144158I57150J434314D01*
G37*
G36*
G01X15553792Y6144158D02*
G01X15553792Y6106058D01*
G03X15533700Y6093704I0J-22514D01*
G01X15533700Y6156513D01*
G03X15553792Y6144158I20091J10159D01*
G37*
G36*
G01X15422550Y6106058D02*
G01X15422550Y6144158D01*
G03X15479700Y6156513I0J138360D01*
G01X15479700Y6093704D01*
G03X15422550Y6106058I-57150J-126006D01*
G37*
G36*
G01X15614649Y5999750D02*
G01X15652749Y5999750D01*
G01X15652749Y5999750D01*
G03X15653700Y5942600I1719010J29D01*
G01X15613700Y5942600D01*
G03X15614649Y5999750I-1719144J57121D01*
G37*
G36*
G01X15710850Y5941650D02*
G01X15710850Y5903550D01*
G03X15653700Y5902600I-0J-1719551D01*
G01X15653700Y5942600D01*
G03X15710850Y5941650I57150J1718601D01*
G37*
G36*
G01X14428167Y5830189D02*
G01X14428167Y5879211D01*
G03X14501700Y5884700I0J495287D01*
G01X14501700Y5824700D01*
G03X14428167Y5830189I-73533J-489798D01*
G37*
G36*
G01X14491761Y5934517D02*
G01X14531639Y5934517D01*
G01X14531639Y5934517D01*
G01X14531700Y5874700D01*
G01X14491700Y5874700D01*
G01X14491761Y5934517D01*
G37*
G36*
G01X14525054Y5387404D02*
G01X14563154Y5387404D01*
G03X14564104Y5361994I340335J0D01*
G01X14524104Y5361994D01*
G03X14525054Y5387404I-339385J25411D01*
G37*
G36*
G01X14556804Y5283894D02*
G01X14531404Y5283894D01*
G03X14524104Y5321994I-103076J0D01*
G01X14564104Y5321994D01*
G03X14556804Y5283894I95776J-38100D01*
G37*
G36*
G01X18314673Y4243918D02*
G01X18314673Y4269318D01*
G03X18352773Y4288023I0J48156D01*
G01X18352773Y4225214D01*
G03X18314673Y4243918I-38100J-29451D01*
G37*
G36*
G01X18364201Y4334223D02*
G01X18389601Y4334223D01*
G03X18398673Y4296123I84542J0D01*
G01X18360873Y4296123D01*
G03X18364201Y4334223I-216398J38100D01*
G37*
G36*
G01X18444873Y4269318D02*
G01X18444873Y4243918D01*
G03X18406773Y4225214I0J-48156D01*
G01X18406773Y4288023D01*
G03X18444873Y4269318I38100J29451D01*
G37*
G36*
G01X16695826Y3898113D02*
G01X16695826Y3858235D01*
G03X16672103Y3851174I0J-43381D01*
G01X16672103Y3905174D01*
G03X16695826Y3898113I23723J36320D01*
G37*
G36*
G01X16652537Y3830998D02*
G01X16612659Y3830998D01*
G03X16593094Y3851174I-20185J0D01*
G01X16672103Y3851174D01*
G03X16652537Y3830998I619J-20175D01*
G37*
G36*
G01X16643524Y3674057D02*
G01X16603646Y3684057D01*
G03X16600590Y3743874I-586966J0D01*
G01X16630590Y3733874D01*
G03X16643524Y3674057I144788J0D01*
G37*
G36*
G01X16600651Y3818990D02*
G01X16640529Y3818990D01*
G01X16640590Y3783874D01*
G01X16640590Y3783874D01*
G01X16600590Y3783874D01*
G01X16600590Y3783874D01*
G01X16600651Y3818990D01*
G37*
G36*
G01X14586462Y3661795D02*
G01X14586462Y3641729D01*
G03X14561222Y3631762I0J-36942D01*
G01X14561222Y3671762D01*
G03X14586462Y3661795I25240J26975D01*
G37*
G36*
G01X14468922Y3593662D02*
G01X14443522Y3593662D01*
G03X14436222Y3631762I-103076J0D01*
G01X14476221Y3631762D01*
G03X14468922Y3593662I95776J-38100D01*
G37*
G36*
G01X14579600Y3756533D02*
G01X14579600Y3736467D01*
G03X14561222Y3726819I0J-22329D01*
G01X14561222Y3766819D01*
G03X14579600Y3756533I18378J11276D01*
G37*
G36*
G01X14427519Y3734119D02*
G01X14427519Y3759519D01*
G03X14436222Y3766819I0J8837D01*
G01X14436222Y3726819D01*
G03X14427519Y3734119I-8703J-1537D01*
G37*
G36*
G01X15023200Y3414399D02*
G01X15061300Y3414399D01*
G03X15069746Y3357249I197570J0D01*
G01X14994625Y3357249D01*
G03X15023200Y3414399I-42863J57150D01*
G37*
G36*
G01X15061300Y3246098D02*
G01X15023200Y3246098D01*
G03X14994625Y3303248I-71438J0D01*
G01X15069746Y3303248D01*
G03X15061300Y3246098I189124J-57150D01*
G37*
G36*
G01X15061300Y3367399D02*
G01X15023200Y3367399D01*
G03X15022250Y3424549I-1719551J0D01*
G01X15062250Y3424549D01*
G03X15061300Y3367399I1718601J-57150D01*
G37*
G36*
G01X15009723Y3454588D02*
G01X15005794Y3486894D01*
G03X15032250Y3474549I30203J30203D01*
G01X15022250Y3424549D01*
G03X15009723Y3454588I-42771J-205D01*
G37*
G36*
G01X15008773Y3493638D02*
G01X15032962Y3497827D01*
G03X15052250Y3474549I133807J91240D01*
G01X15022250Y3464549D01*
G03X15008773Y3493638I-46394J-3827D01*
G37*
G36*
G01X14112549Y3552499D02*
G01X14112549Y3590599D01*
G03X14152537Y3598549I0J104543D01*
G01X14152537Y3544548D01*
G03X14112549Y3552499I-39988J-96593D01*
G37*
G36*
G01X14185000Y3655699D02*
G01X14223100Y3655699D01*
G03X14231546Y3598549I197570J0D01*
G01X14156425Y3598549D01*
G03X14185000Y3655699I-42863J57150D01*
G37*
G36*
G01X14313759Y3506448D02*
G01X14288359Y3506448D01*
G03X14269309Y3544548I-47625J0D01*
G01X14332809Y3544548D01*
G03X14313759Y3506448I28575J-38100D01*
G37*
G36*
G01X14341149Y3584249D02*
G01X14341149Y3558849D01*
G03X14340563Y3544548I174350J-14300D01*
G01X14340563Y3598549D01*
G03X14341149Y3584249I174936J0D01*
G37*
G36*
G01X14288359Y3618641D02*
G01X14313759Y3618641D01*
G03X14332809Y3598549I20121J0D01*
G01X14269309Y3598549D01*
G03X14288359Y3618641I-1071J20093D01*
G37*
G36*
G01X14276350Y3722650D02*
G01X14301750Y3722650D01*
G03X14309050Y3705849I22985J0D01*
G01X14269050Y3705849D01*
G03X14276350Y3722650I-15685J16802D01*
G37*
G36*
G01X14301750Y3630650D02*
G01X14276350Y3630650D01*
G03X14269050Y3665849I-88510J0D01*
G01X14309050Y3665849D01*
G03X14301750Y3630650I81211J-35199D01*
G37*
G36*
G01X14185000Y3762999D02*
G01X14223100Y3762999D01*
G03X14224050Y3705849I1719551J-0D01*
G01X14184050Y3705849D01*
G03X14185000Y3762999I-1718601J57150D01*
G37*
G36*
G01X14223100Y3608699D02*
G01X14185000Y3608699D01*
G03X14184050Y3665849I-1719551J0D01*
G01X14224050Y3665849D01*
G03X14223100Y3608699I1718601J-57150D01*
G37*
G36*
G01X14578519Y3859214D02*
G01X14578519Y3839148D01*
G03X14561222Y3829181I0J-19994D01*
G01X14561222Y3869181D01*
G03X14578519Y3859214I17298J10027D01*
G37*
G36*
G01X14672416Y3980969D02*
G01X14652350Y3980969D01*
G03X14642383Y4011068I-50431J0D01*
G01X14682383Y4011068D01*
G03X14672416Y3980969I40464J-30099D01*
G37*
G36*
G01X14626692Y4961992D02*
G01X14626692Y4987392D01*
G03X14641500Y5006442I-4849J19050D01*
G01X14641500Y4942942D01*
G03X14626692Y4961992I-19658J0D01*
G37*
G36*
G01X14733600Y4987392D02*
G01X14733600Y4961992D01*
G03X14695500Y4942942I0J-47625D01*
G01X14695500Y5006442D01*
G03X14733600Y4987392I38100J28575D01*
G37*
G36*
G01X14794669Y3990120D02*
G01X14760480Y3995931D01*
G03X14732722Y4010739I-38214J-38214D01*
G01X14782722Y4020739D01*
G03X14794669Y3990120I45209J-0D01*
G37*
G36*
G01X14852975Y3991158D02*
G01X14832909Y3991158D01*
G03X14822942Y4010832I-24400J0D01*
G01X14862942Y4010832D01*
G03X14852975Y3991158I14433J-19674D01*
G37*
G36*
G01X14830242Y4173932D02*
G01X14855642Y4173932D01*
G03X14862942Y4135832I103076J0D01*
G01X14822942Y4135832D01*
G03X14830242Y4173932I-95776J38100D01*
G37*
G36*
G01X14839835Y4197465D02*
G01X14814435Y4197465D01*
G03X14800135Y4234317I-54637J0D01*
G01X14854136Y4234317D01*
G03X14839835Y4197465I40336J-36853D01*
G37*
G36*
G01X14814435Y4451235D02*
G01X14839835Y4451235D01*
G03X14854136Y4422343I36337J0D01*
G01X14800135Y4422343D01*
G03X14814435Y4451235I-22036J28892D01*
G37*
G36*
G01X14626692Y4766208D02*
G01X14626692Y4791608D01*
G03X14641500Y4810658I-4849J19050D01*
G01X14641500Y4747158D01*
G03X14626692Y4766208I-19658J0D01*
G37*
G36*
G01X14733600Y4791608D02*
G01X14733600Y4766208D01*
G03X14695500Y4747158I0J-47625D01*
G01X14695500Y4810658D01*
G03X14733600Y4791608I38100J28575D01*
G37*
G36*
G01X14943431Y3980808D02*
G01X14923365Y3980808D01*
G03X14913398Y4010907I-50431J0D01*
G01X14953398Y4010907D01*
G03X14943431Y3980808I40464J-30099D01*
G37*
G36*
G01X14920698Y4174007D02*
G01X14946098Y4174007D01*
G03X14953398Y4135907I103076J0D01*
G01X14913398Y4135907D01*
G03X14920698Y4174007I-95776J38100D01*
G37*
G36*
G01X14954135Y4197235D02*
G01X14928735Y4197235D01*
G03X14914435Y4234905I-56764J0D01*
G01X14968436Y4234905D01*
G03X14954135Y4197235I42464J-37669D01*
G37*
G36*
G01X14928735Y4451465D02*
G01X14954135Y4451465D01*
G03X14968436Y4422931I35618J0D01*
G01X14914435Y4422931D01*
G03X14928735Y4451465I-21317J28534D01*
G37*
G36*
G01X15033651Y3981092D02*
G01X15013585Y3981092D01*
G03X15003618Y4011191I-50431J0D01*
G01X15043618Y4011191D01*
G03X15033651Y3981092I40464J-30099D01*
G37*
G36*
G01X15081718Y4043891D02*
G01X15081718Y4018491D01*
G03X15043618Y4011191I0J-103076D01*
G01X15043618Y4051191D01*
G03X15081718Y4043891I38100J95776D01*
G37*
G36*
G01X15021250Y4650049D02*
G01X15046650Y4650049D01*
G03X15053950Y4611949I103076J0D01*
G01X15013950Y4611949D01*
G03X15021250Y4650049I-95776J38100D01*
G37*
G36*
G01X15042481Y5071726D02*
G01X15004381Y5071726D01*
G03X14996431Y5128876I-209387J0D01*
G01X15050431Y5128876D01*
G03X15042481Y5071726I201436J-57150D01*
G37*
G36*
G01X15107581Y5187431D02*
G01X15107581Y5149331D01*
G03X15050431Y5128876I0J-90066D01*
G01X15050431Y5207885D01*
G03X15107581Y5187431I57150J69611D01*
G37*
G36*
G01X15059400Y5149331D02*
G01X15059400Y5187431D01*
G03X15116550Y5208265I0J88799D01*
G01X15116550Y5129256D01*
G03X15059400Y5149331I-57150J-71313D01*
G37*
G36*
G01X15227700Y5199739D02*
G01X15227700Y5161639D01*
G03X15170550Y5133064I0J-71438D01*
G01X15170550Y5208265D01*
G03X15227700Y5199739I57150J187264D01*
G37*
G36*
G01X15173329Y5161639D02*
G01X15173329Y5199739D01*
G03X15230479Y5200689I0J1719551D01*
G01X15230479Y5160689D01*
G03X15173329Y5161639I-57150J-1718601D01*
G37*
G36*
G01X15327628Y5200311D02*
G01X15327636Y5162210D01*
G03X15270479Y5160689I-1J-1074347D01*
G01X15270479Y5200689D01*
G01X15270479Y5200689D01*
G01X15327628Y5200311D01*
G37*
G36*
G01X15418299Y5199889D02*
G01X15418307Y5161789D01*
G03X15361152Y5160782I2J-1623271D01*
G01X15361152Y5200782D01*
G01X15361152Y5200782D01*
G03X15418299Y5199889I69275J2604055D01*
G37*
G36*
G01X15264010Y5162507D02*
G01X15264001Y5200607D01*
G01X15264001Y5200607D01*
G01X15321152Y5200782D01*
G01X15321152Y5200782D01*
G01X15321152Y5160782D01*
G03X15264010Y5162507I-62356J-1118528D01*
G37*
G36*
G01X14764004Y5771896D02*
G01X14738604Y5771896D01*
G03X14730024Y5787790I-19011J0D01*
G01X14772584Y5787790D01*
G03X14764004Y5771896I10431J-15894D01*
G37*
G36*
G01X14953996Y5772404D02*
G01X14928596Y5772404D01*
G03X14920016Y5787790I-18085J0D01*
G01X14962576Y5787790D01*
G03X14953996Y5772404I9505J-15386D01*
G37*
G36*
G01X14926310Y6169768D02*
G01X14956282Y6169768D01*
G03X14962576Y6124810I163712J0D01*
G01X14920016Y6124810D01*
G03X14926310Y6169768I-157417J44958D01*
G37*
G36*
G01X14866239Y6007100D02*
G01X14826361Y6007100D01*
G03X14825020Y6017609I-41847J0D01*
G01X14867580Y6017609D01*
G03X14866239Y6007100I40506J-10509D01*
G37*
G36*
G01X14693270Y6151636D02*
G01X14735744Y6151550D01*
G03X14772584Y6124810I102579J102579D01*
G01X14724704Y6119490D01*
G03X14693270Y6151636I-1449344J-1385769D01*
G37*
G36*
G01X14237500Y6271006D02*
G01X14237500Y6321806D01*
G03X14313700Y6348907I0J120678D01*
G01X14313700Y6243905D01*
G03X14237500Y6271006I-76200J-93577D01*
G37*
G36*
G01X14338300Y6350000D02*
G01X14389100Y6350000D01*
G03X14413700Y6348907I24600J276165D01*
G01X14313700Y6348907D01*
G03X14338300Y6350000I0J277258D01*
G37*
G36*
G01X14429994Y5966333D02*
G01X14429994Y5926455D01*
G03X14413700Y5896547I19302J-29909D01*
G01X14413700Y5996242D01*
G03X14429994Y5966333I35596J0D01*
G37*
G36*
G01X15206996Y3235000D02*
G01X15206996Y3196900D01*
G03X15149846Y3185950I0J-154614D01*
G01X15149846Y3245950D01*
G03X15206996Y3235000I57150J143664D01*
G37*
G36*
G01X15023200Y3303100D02*
G01X15061300Y3303100D01*
G03X15064846Y3245950I462328J-0D01*
G01X15024846Y3245950D01*
G03X15023200Y3303100I-993018J-0D01*
G37*
G36*
G01X14223100Y3703050D02*
G01X14185000Y3703050D01*
G03X14168601Y3760200I-107784J0D01*
G01X14228601Y3760200D01*
G03X14223100Y3703050I294110J-57150D01*
G37*
G36*
G01X14179551Y3942350D02*
G01X14217651Y3942350D01*
G03X14228601Y3885200I154614J0D01*
G01X14168601Y3885200D01*
G03X14179551Y3942350I-143664J57150D01*
G37*
G36*
G01X14312900Y3733800D02*
G01X14287500Y3733800D01*
G03X14270201Y3760200I-28793J1D01*
G01X14330201Y3760200D01*
G03X14312900Y3733800I11493J-26401D01*
G37*
G36*
G01X15095923Y4180273D02*
G01X15134023Y4180273D01*
G03X15144973Y4135488I97060J0D01*
G01X15084973Y4135488D01*
G03X15095923Y4180273I-86110J44785D01*
G37*
G36*
G01X15046873Y4018491D02*
G01X15046873Y4043891D01*
G03X15084973Y4050488I0J113329D01*
G01X15084973Y4010488D01*
G03X15046873Y4018491I-38100J-86684D01*
G37*
G36*
G01X14566646Y5390896D02*
G01X14528546Y5390896D01*
G03X14523096Y5413883I-51206J0D01*
G01X14572096Y5413883D01*
G03X14566646Y5390896I45756J-22987D01*
G37*
G36*
G01X18632853Y4824047D02*
G01X18658253Y4824047D01*
G03X18677303Y4801662I22677J0D01*
G01X18613803Y4801662D01*
G03X18632853Y4824047I-3627J22385D01*
G37*
G36*
G01X18572453Y4568952D02*
G01X18572453Y4594352D01*
G03X18610553Y4613402I0J47625D01*
G01X18610553Y4549902D01*
G03X18572453Y4568952I-38100J-28575D01*
G37*
G36*
G01X14370171Y3246454D02*
G01X14370171Y3221054D01*
G03X14332071Y3202004I0J-47625D01*
G01X14332071Y3265504D01*
G03X14370171Y3246454I38100J28575D01*
G37*
G36*
G01X14223971Y3414043D02*
G01X14223971Y3439443D01*
G03X14262071Y3458493I0J47625D01*
G01X14262071Y3394993D01*
G03X14223971Y3414043I-38100J-28575D01*
G37*
G36*
G01X14288359Y3499843D02*
G01X14313759Y3499843D01*
G03X14332071Y3461743I48791J0D01*
G01X14269309Y3461743D01*
G03X14288359Y3499843I-28575J38100D01*
G37*
G36*
G01X14269129Y3439443D02*
G01X14269129Y3414043D01*
G03X14231029Y3394993I0J-47625D01*
G01X14231029Y3458493D01*
G03X14269129Y3439443I38100J28575D01*
G37*
G36*
G01X14114446Y3214704D02*
G01X14114446Y3252804D01*
G03X14161030Y3268754I0J76001D01*
G01X14161030Y3198754D01*
G03X14114446Y3214704I-46584J-60051D01*
G37*
G36*
G01X16913240Y3638942D02*
G01X16887542Y3669640D01*
G03X16908690Y3733085I-84594J63446D01*
G01X16958690Y3678085D01*
G03X16913240Y3638942I239803J-324396D01*
G37*
G36*
G01X15591200Y6068650D02*
G01X15591200Y6106750D01*
G03X15603699Y6107700I0J82700D01*
G01X15603699Y6067700D01*
G03X15591200Y6068650I-12499J-81750D01*
G37*
G36*
G01X15720849Y6106750D02*
G01X15720849Y6068650D01*
G03X15663699Y6067700I-0J-1719551D01*
G01X15663699Y6107700D01*
G03X15720849Y6106750I57150J1718601D01*
G37*
G36*
G01X15652750Y5925550D02*
G01X15614650Y5925550D01*
G03X15603699Y5982700I-154609J-3D01*
G01X15663699Y5982700D01*
G03X15652750Y5925550I143670J-57148D01*
G37*
G36*
G01X18389601Y4319000D02*
G01X18364201Y4319000D01*
G03X18346901Y4357100I-50604J0D01*
G01X18406901Y4357100D01*
G03X18389601Y4319000I33304J-38100D01*
G37*
G36*
G01X18364201Y4495799D02*
G01X18389601Y4495799D01*
G03X18406901Y4482100I17300J4075D01*
G01X18346901Y4482100D01*
G03X18364201Y4495799I0J17773D01*
G37*
G36*
G01X18649953Y4832347D02*
G01X18624553Y4832347D01*
G03X18617253Y4844858I-14372J0D01*
G01X18657253Y4844858D01*
G03X18649953Y4832347I7072J-12512D01*
G37*
G36*
G01X16768591Y3714074D02*
G01X16743191Y3714074D01*
G03X16725891Y3752174I-50604J0D01*
G01X16785891Y3752174D01*
G03X16768591Y3714074I33304J-38100D01*
G37*
G36*
G01X16736841Y3934324D02*
G01X16774941Y3934324D01*
G03X16785891Y3877174I154614J0D01*
G01X16725891Y3877174D01*
G03X16736841Y3934324I-143664J57150D01*
G37*
G36*
G01X14760067Y3470799D02*
G01X14780133Y3470799D01*
G03X14795183Y3440700I37624J0D01*
G01X14745018Y3440700D01*
G03X14760067Y3470799I-22574J30099D01*
G37*
G36*
G01X14789149Y3276599D02*
G01X14751049Y3276599D01*
G03X14740099Y3315700I-75289J0D01*
G01X14800099Y3315700D01*
G03X14789149Y3276599I64339J-39101D01*
G37*
G36*
G01X14645766Y3470799D02*
G01X14665832Y3470799D01*
G03X14673099Y3440700I65967J0D01*
G01X14630716Y3440700D01*
G03X14645766Y3470799I-22574J30099D01*
G37*
G36*
G01X14662149Y3258550D02*
G01X14624049Y3258550D01*
G03X14613099Y3315700I-154614J0D01*
G01X14673099Y3315700D01*
G03X14662149Y3258550I143664J-57150D01*
G37*
G36*
G01X14884400Y3289300D02*
G01X14859000Y3289300D01*
G03X14841701Y3315700I-28794J0D01*
G01X14901701Y3315700D01*
G03X14884400Y3289300I11491J-26400D01*
G37*
G36*
G01X14861667Y3467100D02*
G01X14881733Y3467100D01*
G03X14896783Y3440700I30681J1D01*
G01X14846618Y3440700D01*
G03X14861667Y3467100I-15630J26399D01*
G37*
G36*
G01X15338394Y3569399D02*
G01X15338394Y3543999D01*
G03X15300294Y3526699I0J-50604D01*
G01X15300294Y3586699D01*
G03X15338394Y3569399I38100J33304D01*
G37*
G36*
G01X15145195Y3546666D02*
G01X15145195Y3566732D01*
G03X15175294Y3581782I0J37624D01*
G01X15175294Y3531617D01*
G03X15145195Y3546666I-30099J-22574D01*
G37*
G36*
G01X15338394Y3658682D02*
G01X15338394Y3633282D01*
G03X15300294Y3615982I0J-50604D01*
G01X15300294Y3675982D01*
G03X15338394Y3658682I38100J33304D01*
G37*
G36*
G01X15150018Y3635949D02*
G01X15150018Y3656015D01*
G03X15175294Y3671065I0J28751D01*
G01X15175294Y3620900D01*
G03X15150018Y3635949I-25276J-13701D01*
G37*
G36*
G01X15338394Y3747882D02*
G01X15338394Y3722482D01*
G03X15300294Y3705182I0J-50604D01*
G01X15300294Y3765182D01*
G03X15338394Y3747882I38100J33304D01*
G37*
G36*
G01X15145195Y3723263D02*
G01X15145195Y3743329D01*
G03X15175294Y3758378I0J37624D01*
G01X15175294Y3708213D01*
G03X15145195Y3723263I-30099J-22574D01*
G37*
G36*
G01X15338394Y3835400D02*
G01X15338394Y3810000D01*
G03X15300294Y3794244I0J-53942D01*
G01X15300294Y3854243D01*
G03X15338394Y3835400I38100J29096D01*
G37*
G36*
G01X15145195Y3814211D02*
G01X15145195Y3834277D01*
G03X15175294Y3849326I0J37624D01*
G01X15175294Y3799161D01*
G03X15145195Y3814211I-30099J-22574D01*
G37*
G36*
G01X14843451Y4454851D02*
G01X14818051Y4454851D01*
G03X14800751Y4486949I-38426J0D01*
G01X14860751Y4486949D01*
G03X14843451Y4454851I21126J-32097D01*
G37*
G36*
G01X14818051Y4632651D02*
G01X14843451Y4632651D01*
G03X14860751Y4611949I21037J0D01*
G01X14800751Y4611949D01*
G03X14818051Y4632651I-3738J20703D01*
G37*
G36*
G01X14945051Y4460549D02*
G01X14919651Y4460549D01*
G03X14902351Y4486949I-28793J0D01*
G01X14962351Y4486949D01*
G03X14945051Y4460549I11493J-26400D01*
G37*
G36*
G01X14919651Y4650049D02*
G01X14945051Y4650049D01*
G03X14962351Y4611949I50604J0D01*
G01X14902351Y4611949D01*
G03X14919651Y4650049I-33304J38100D01*
G37*
G36*
G01X15203651Y4604649D02*
G01X15203651Y4579249D01*
G03X15165551Y4571949I0J-103076D01*
G01X15165551Y4611949D01*
G03X15203651Y4604649I38100J95776D01*
G37*
G36*
G01X15125700Y4650049D02*
G01X15151100Y4650049D01*
G03X15165551Y4611949I57450J0D01*
G01X15106650Y4611949D01*
G03X15125700Y4650049I-28575J38100D01*
G37*
G36*
G01X14458201Y5954662D02*
G01X14458201Y5994540D01*
G01X14486103Y5994601D01*
G01X14486103Y5994601D01*
G01X14486103Y5954601D01*
G01X14458201Y5954662D01*
G37*
G36*
G01X14531639Y5894784D02*
G01X14491761Y5894784D01*
G03X14486103Y5954601I-318969J2D01*
G01X14546097Y5954601D01*
G03X14531639Y5894784I116513J-59818D01*
G37*
G36*
G01X14605914Y5994540D02*
G01X14605914Y5954662D01*
G01X14605914Y5954662D01*
G01X14546097Y5954601D01*
G01X14546097Y5954601D01*
G01X14546097Y5994601D01*
G01X14546097Y5994601D01*
G01X14605914Y5994540D01*
G37*
G36*
G01X14757710Y3873275D02*
G01X14757710Y3893341D01*
G03X14787809Y3908390I0J37624D01*
G01X14787809Y3858225D01*
G03X14757710Y3873275I-30099J-22574D01*
G37*
G36*
G01X14909856Y3953407D02*
G01X14929922Y3953407D01*
G03X14927824Y3923308I214854J-30099D01*
G01X14907824Y3923308D01*
G03X14909856Y3953407I-221905J30099D01*
G37*
G36*
G01X14994559Y3934227D02*
G01X14983665Y3894955D01*
G03X14967829Y3868225I44305J-44305D01*
G01X14967829Y3918390D01*
G03X14994559Y3934227I-17575J60141D01*
G37*
G36*
G01X15078724Y3616556D02*
G01X15039453Y3627449D01*
G03X15012723Y3643286I-44305J-44305D01*
G01X15062888Y3643286D01*
G03X15078724Y3616556I60141J17575D01*
G37*
G36*
G01X15175329Y4743368D02*
G01X15161784Y4765745D01*
G01X15168061Y4772916D01*
G01X15173988Y4780581D01*
G01X15180175Y4787935D01*
G01X15183557Y4791245D01*
G01X15187234Y4794176D01*
G01X15208176Y4764403D01*
G01X15200054Y4759372D01*
G01X15191247Y4754487D01*
G01X15182692Y4749301D01*
G01X15178803Y4746456D01*
G01X15175329Y4743368D01*
G37*
G36*
G01X15169413Y4831613D02*
G01X15169413Y4857013D01*
G01X15174586Y4857250D01*
G01X15179445Y4857873D01*
G01X15187911Y4859764D01*
G01X15194202Y4861654D01*
G01X15197705Y4862514D01*
G01X15197705Y4826113D01*
G01X15194202Y4826973D01*
G01X15187911Y4828863D01*
G01X15179445Y4830754D01*
G01X15174586Y4831377D01*
G01X15169413Y4831613D01*
G37*
G36*
G01X15170912Y4896612D02*
G01X15170912Y4922012D01*
G01X15175805Y4922248D01*
G01X15180393Y4922872D01*
G01X15188380Y4924762D01*
G01X15194331Y4926653D01*
G01X15197705Y4927512D01*
G01X15197705Y4891112D01*
G01X15194331Y4891971D01*
G01X15188380Y4893862D01*
G01X15180393Y4895752D01*
G01X15175805Y4896376D01*
G01X15170912Y4896612D01*
G37*
G36*
G01X15172411Y4961611D02*
G01X15172411Y4987011D01*
G01X15177025Y4987247D01*
G01X15181341Y4987870D01*
G01X15188848Y4989761D01*
G01X15194460Y4991651D01*
G01X15197705Y4992511D01*
G01X15197705Y4956110D01*
G01X15194460Y4956970D01*
G01X15188848Y4958861D01*
G01X15181341Y4960751D01*
G01X15177025Y4961374D01*
G01X15172411Y4961611D01*
G37*
G36*
G01X14730777Y4766208D02*
G01X14730015Y4791608D01*
G01X14736396Y4791844D01*
G01X14741390Y4792470D01*
G01X14749067Y4794396D01*
G01X14756742Y4796397D01*
G01X14761736Y4797117D01*
G01X14768115Y4797486D01*
G01X14768877Y4761093D01*
G01X14762511Y4761197D01*
G01X14757520Y4761723D01*
G01X14749829Y4763500D01*
G01X14742137Y4765352D01*
G01X14737145Y4765972D01*
G01X14730777Y4766208D01*
G37*
G36*
G01X14939395Y4857013D02*
G01X14939395Y4831613D01*
G01X14932393Y4831377D01*
G01X14925762Y4830754D01*
G01X14914154Y4828863D01*
G01X14905640Y4826973D01*
G01X14901295Y4826113D01*
G01X14901295Y4862514D01*
G01X14905640Y4861654D01*
G01X14914154Y4859764D01*
G01X14925762Y4857873D01*
G01X14932393Y4857250D01*
G01X14939395Y4857013D01*
G37*
G36*
G01X14730015Y4961992D02*
G01X14730777Y4987392D01*
G01X14737145Y4987628D01*
G01X14742137Y4988248D01*
G01X14749829Y4990100D01*
G01X14757520Y4991877D01*
G01X14762511Y4992403D01*
G01X14768877Y4992507D01*
G01X14768115Y4956114D01*
G01X14761736Y4956483D01*
G01X14756742Y4957203D01*
G01X14749067Y4959204D01*
G01X14741390Y4961130D01*
G01X14736396Y4961756D01*
G01X14730015Y4961992D01*
G37*
G36*
G01X16763646Y3537485D02*
G01X16803524Y3537485D01*
G01X16803585Y3508200D01*
G01X16763585Y3508200D01*
G01X16763646Y3537485D01*
G37*
G36*
G01X16690885Y3546300D02*
G01X16716285Y3546300D01*
G01X16716599Y3539298D01*
G01X16717426Y3532667D01*
G01X16719935Y3521059D01*
G01X16722444Y3512546D01*
G01X16723585Y3508200D01*
G01X16683585Y3508200D01*
G01X16684726Y3512546D01*
G01X16687235Y3521059D01*
G01X16689744Y3532667D01*
G01X16690571Y3539298D01*
G01X16690885Y3546300D01*
G37*
G36*
G01X16603646Y3568017D02*
G01X16643524Y3568017D01*
G01X16643585Y3508200D01*
G01X16603585Y3508200D01*
G01X16603646Y3568017D01*
G37*
G36*
G01X16370885Y3546300D02*
G01X16396285Y3546300D01*
G01X16396599Y3539298D01*
G01X16397426Y3532667D01*
G01X16399935Y3521059D01*
G01X16402444Y3512546D01*
G01X16403585Y3508200D01*
G01X16363585Y3508200D01*
G01X16364726Y3512546D01*
G01X16367235Y3521059D01*
G01X16369744Y3532667D01*
G01X16370571Y3539298D01*
G01X16370885Y3546300D01*
G37*
G36*
G01X16290885Y3546300D02*
G01X16316285Y3546300D01*
G01X16316599Y3539298D01*
G01X16317426Y3532667D01*
G01X16319935Y3521059D01*
G01X16322444Y3512546D01*
G01X16323585Y3508200D01*
G01X16283585Y3508200D01*
G01X16284726Y3512546D01*
G01X16287235Y3521059D01*
G01X16289744Y3532667D01*
G01X16290571Y3539298D01*
G01X16290885Y3546300D01*
G37*
G36*
G01X16210885Y3546300D02*
G01X16236285Y3546300D01*
G01X16236599Y3539298D01*
G01X16237426Y3532667D01*
G01X16239935Y3521059D01*
G01X16242444Y3512546D01*
G01X16243585Y3508200D01*
G01X16203585Y3508200D01*
G01X16204726Y3512546D01*
G01X16207235Y3521059D01*
G01X16209744Y3532667D01*
G01X16210571Y3539298D01*
G01X16210885Y3546300D01*
G37*
G36*
G01X16130885Y3546300D02*
G01X16156285Y3546300D01*
G01X16156599Y3539298D01*
G01X16157426Y3532667D01*
G01X16159935Y3521059D01*
G01X16162444Y3512546D01*
G01X16163585Y3508200D01*
G01X16123585Y3508200D01*
G01X16124726Y3512546D01*
G01X16127235Y3521059D01*
G01X16129744Y3532667D01*
G01X16130571Y3539298D01*
G01X16130885Y3546300D01*
G37*
G36*
G01X16050885Y3546300D02*
G01X16076285Y3546300D01*
G01X16076599Y3539298D01*
G01X16077426Y3532667D01*
G01X16079935Y3521059D01*
G01X16082444Y3512546D01*
G01X16083585Y3508200D01*
G01X16043585Y3508200D01*
G01X16044726Y3512546D01*
G01X16047235Y3521059D01*
G01X16049744Y3532667D01*
G01X16050571Y3539298D01*
G01X16050885Y3546300D01*
G37*
G36*
G01X14503400Y6285500D02*
G01X14528800Y6285500D01*
G03X14546099Y6247400I50607J0D01*
G01X14486099Y6247400D01*
G03X14503400Y6285500I-33301J38100D01*
G37*
G36*
G01X14765700Y6354599D02*
G01X14791100Y6354599D01*
G03X14798400Y6316499I103076J0D01*
G01X14758400Y6316499D01*
G03X14765700Y6354599I-95776J38100D01*
G37*
G36*
G01X14909293Y6397057D02*
G01X14858493Y6397057D01*
G03X14856393Y6413899I-68570J0D01*
G01X14911394Y6413899D01*
G03X14909293Y6397057I66469J-16842D01*
G37*
G36*
G01X14782800Y6375799D02*
G01X14757400Y6375799D01*
G03X14753882Y6413899I-208077J0D01*
G01X14783882Y6413899D01*
G03X14782800Y6375799I670239J-38100D01*
G37*
G36*
G01X14703909Y6566305D02*
G01X14733881Y6566305D01*
G01X14733881Y6566305D01*
G01X14733895Y6523899D01*
G01X14733895Y6523899D01*
G01X14703895Y6523899D01*
G01X14703895Y6523899D01*
G01X14703909Y6566305D01*
G37*
G36*
G01X14733881Y6368941D02*
G01X14703909Y6368941D01*
G01X14703909Y6368941D01*
G01X14703895Y6413899D01*
G01X14703895Y6413899D01*
G01X14733895Y6413899D01*
G01X14733895Y6413899D01*
G01X14733881Y6368941D01*
G37*
G36*
G01X14683894Y6375808D02*
G01X14653922Y6375808D01*
G01X14653908Y6413899D01*
G01X14653908Y6413899D01*
G01X14683908Y6413899D01*
G01X14683908Y6413899D01*
G01X14683894Y6375808D01*
G37*
G36*
G01X14603909Y6567095D02*
G01X14633881Y6567095D01*
G01X14633881Y6567095D01*
G01X14633895Y6523899D01*
G01X14633895Y6523899D01*
G01X14603895Y6523899D01*
G01X14603895Y6523899D01*
G01X14603909Y6567095D01*
G37*
G36*
G01X14583894Y6373392D02*
G01X14553922Y6373392D01*
G01X14553922Y6373392D01*
G01X14553908Y6413899D01*
G01X14553908Y6413899D01*
G01X14583908Y6413899D01*
G01X14583908Y6413899D01*
G01X14583894Y6373392D01*
G37*
G36*
G01X14481583Y6375799D02*
G01X14456183Y6375799D01*
G03X14453883Y6413899I-316723J0D01*
G01X14483883Y6413899D01*
G03X14481583Y6375799I314423J-38100D01*
G37*
G36*
G01X14429284Y6390184D02*
G01X14378484Y6390184D01*
G03X14376383Y6413899I-134915J0D01*
G01X14431385Y6413899D01*
G03X14429284Y6390184I132814J-23715D01*
G37*
G36*
G01X15782246Y6068650D02*
G01X15782246Y6106750D01*
G03X15839396Y6116095I0J179422D01*
G01X15839396Y6040075D01*
G03X15782246Y6068650I-57150J-42863D01*
G37*
G36*
G01X15782246Y5903550D02*
G01X15782246Y5941650D01*
G03X15839396Y5970225I0J71438D01*
G01X15839396Y5899095D01*
G03X15782246Y5903550I-57150J-364370D01*
G37*
G36*
G01X15801296Y5804395D02*
G01X15801296Y5829795D01*
G03X15839396Y5848845I0J47625D01*
G01X15839396Y5785345D01*
G03X15801296Y5804395I-38100J-28575D01*
G37*
G36*
G01X15801296Y5677395D02*
G01X15801296Y5702795D01*
G03X15839396Y5721845I0J47625D01*
G01X15839396Y5658345D01*
G03X15801296Y5677395I-38100J-28575D01*
G37*
G36*
G01X15824695Y5550395D02*
G01X15824695Y5575795D01*
G03X15839396Y5594845I-4993J19050D01*
G01X15839396Y5531345D01*
G03X15824695Y5550395I-19694J0D01*
G37*
G36*
G01X16027495Y5448795D02*
G01X16027495Y5423395D01*
G03X15989395Y5404345I0J-47625D01*
G01X15989395Y5467845D01*
G03X16027495Y5448795I38100J28575D01*
G37*
G36*
G01X16027495Y5321795D02*
G01X16027495Y5296395D01*
G03X15989395Y5277345I0J-47625D01*
G01X15989395Y5340845D01*
G03X16027495Y5321795I38100J28575D01*
G37*
G36*
G01X16027495Y5194795D02*
G01X16027495Y5169395D01*
G03X15989395Y5150345I0J-47625D01*
G01X15989395Y5213845D01*
G03X16027495Y5194795I38100J28575D01*
G37*
G36*
G01X16027495Y5067795D02*
G01X16027495Y5042395D01*
G03X15989395Y5023345I0J-47625D01*
G01X15989395Y5086845D01*
G03X16027495Y5067795I38100J28575D01*
G37*
G36*
G01X16009441Y4912719D02*
G01X16023211Y4863029D01*
G03X15989395Y4883095I-56227J-56228D01*
G01X15989395Y4946555D01*
G03X16009441Y4912719I76128J22246D01*
G37*
G36*
G01X15801296Y4660900D02*
G01X15801296Y4686300D01*
G03X15839396Y4705350I0J47625D01*
G01X15839396Y4641850D01*
G03X15801296Y4660900I-38100J-28575D01*
G37*
G36*
G01X15801296Y4534395D02*
G01X15801296Y4559795D01*
G03X15839396Y4578845I0J47625D01*
G01X15839396Y4515345D01*
G03X15801296Y4534395I-38100J-28575D01*
G37*
G36*
G01X16078200Y4521200D02*
G01X16103600Y4521200D01*
G03X16122650Y4494105I28794J0D01*
G01X16059150Y4494105D01*
G03X16078200Y4521200I-9744J27095D01*
G37*
G36*
G01X16357600Y4343400D02*
G01X16332200Y4343400D01*
G03X16313150Y4344105I-19050J-257077D01*
G01X16376650Y4344105D01*
G03X16357600Y4343400I-0J-257782D01*
G37*
G36*
G01X16611600Y4343400D02*
G01X16586200Y4343400D01*
G03X16567150Y4344105I-19050J-257077D01*
G01X16630650Y4344105D01*
G03X16611600Y4343400I-0J-257782D01*
G37*
G36*
G01X16738600Y4343400D02*
G01X16713200Y4343400D01*
G03X16694150Y4344105I-19050J-257077D01*
G01X16757650Y4344105D01*
G03X16738600Y4343400I-0J-257782D01*
G37*
G36*
G01X16865600Y4343400D02*
G01X16840200Y4343400D01*
G03X16821150Y4344105I-19050J-257077D01*
G01X16884650Y4344105D01*
G03X16865600Y4343400I-0J-257782D01*
G37*
G36*
G01X16992600Y4343400D02*
G01X16967200Y4343400D01*
G03X16948150Y4344105I-19050J-257077D01*
G01X17011650Y4344105D01*
G03X16992600Y4343400I-0J-257782D01*
G37*
G36*
G01X17777504Y4559300D02*
G01X17777504Y4533900D01*
G03X17739404Y4514850I0J-47625D01*
G01X17739404Y4578350D01*
G03X17777504Y4559300I38100J28575D01*
G37*
G36*
G01X17777504Y5067795D02*
G01X17777504Y5042395D01*
G03X17739404Y5023345I0J-47625D01*
G01X17739404Y5086845D01*
G03X17777504Y5067795I38100J28575D01*
G37*
G36*
G01X17834654Y5721350D02*
G01X17834654Y5657850D01*
G03X17739404Y5645095I0J-362036D01*
G01X17739404Y5735095D01*
G03X17834654Y5721350I95250J323153D01*
G37*
G36*
G01X17818595Y5848845D02*
G01X17818595Y5785345D01*
G03X17739404Y5772095I0J-243275D01*
G01X17739404Y5862095D01*
G03X17818595Y5848845I79191J230025D01*
G37*
G36*
G01X18443049Y4243918D02*
G01X18443049Y4269318D01*
G03X18481149Y4288368I0J47625D01*
G01X18481149Y4228301D01*
G03X18443049Y4243918I-38100J-38666D01*
G37*
G36*
G01X14590079Y4950779D02*
G01X14590079Y4925379D01*
G03X14560341Y4906329I0J-32736D01*
G01X14560341Y4969829D01*
G03X14590079Y4950779I29738J13686D01*
G37*
G36*
G01X14592300Y4826000D02*
G01X14592300Y4800600D01*
G03X14560341Y4781550I0J-36333D01*
G01X14560341Y4845050D01*
G03X14592300Y4826000I31959J17283D01*
G37*
G36*
G01X14193579Y5332671D02*
G01X14257079Y5332671D01*
G03X14304704Y5273087I61086J0D01*
G01X14145954Y5273087D01*
G03X14193579Y5332671I-13461J59584D01*
G37*
G36*
G01X18093886Y6517385D02*
G01X17983898Y6497199D01*
G03X18048300Y6567500I-770503J770501D01*
G01X18178475Y6567500D01*
G03X18093886Y6517385I55616J-190320D01*
G37*
G36*
G01X18389025Y6545824D02*
G01X18296499Y6543100D01*
G01X18299940Y6546951D01*
G01X18303051Y6551256D01*
G01X18305829Y6555959D01*
G01X18308270Y6561005D01*
G01X18310373Y6566339D01*
G01X18312133Y6571907D01*
G01X18314617Y6583521D01*
G01X18315699Y6595406D01*
G01X18315357Y6607122D01*
G01X18314645Y6612779D01*
G01X18313569Y6618228D01*
G01X18312125Y6623414D01*
G01X18310311Y6628282D01*
G01X18452709Y6581135D01*
G01X18445653Y6577335D01*
G01X18437532Y6573384D01*
G01X18419709Y6564981D01*
G01X18410813Y6560505D01*
G01X18402465Y6555827D01*
G01X18395068Y6550938D01*
G01X18389025Y6545824D01*
G37*
G36*
G01X15000224Y6286500D02*
G01X15000224Y6337300D01*
G01X15006942Y6337518D01*
G01X15013297Y6338094D01*
G01X15024418Y6339840D01*
G01X15032585Y6341586D01*
G01X15036800Y6342380D01*
G01X15036800Y6281420D01*
G01X15032585Y6282214D01*
G01X15024418Y6283960D01*
G01X15013297Y6285706D01*
G01X15006942Y6286282D01*
G01X15000224Y6286500D01*
G37*
G36*
G01X14235176Y6321806D02*
G01X14235176Y6271006D01*
G01X14228458Y6270788D01*
G01X14222103Y6270212D01*
G01X14210983Y6268466D01*
G01X14202815Y6266720D01*
G01X14198600Y6265926D01*
G01X14198600Y6326886D01*
G01X14202815Y6326092D01*
G01X14210983Y6324346D01*
G01X14222103Y6322600D01*
G01X14228458Y6322024D01*
G01X14235176Y6321806D01*
G37*
G36*
G01X16076285Y3730403D02*
G01X16050885Y3730403D01*
G01X16050657Y3733289D01*
G01X16050012Y3736167D01*
G01X16047710Y3741791D01*
G01X16044456Y3747055D01*
G01X16040725Y3751739D01*
G01X16086445Y3751739D01*
G01X16082715Y3747055D01*
G01X16079460Y3741791D01*
G01X16077158Y3736167D01*
G01X16076513Y3733289D01*
G01X16076285Y3730403D01*
G37*
G36*
G01X16156285Y3654203D02*
G01X16130885Y3654203D01*
G01X16130657Y3657089D01*
G01X16130012Y3659967D01*
G01X16127710Y3665591D01*
G01X16124456Y3670855D01*
G01X16120725Y3675539D01*
G01X16166445Y3675539D01*
G01X16162714Y3670855D01*
G01X16159460Y3665591D01*
G01X16157158Y3659967D01*
G01X16156513Y3657089D01*
G01X16156285Y3654203D01*
G37*
G36*
G01X16236285Y3730403D02*
G01X16210885Y3730403D01*
G01X16210657Y3733289D01*
G01X16210012Y3736167D01*
G01X16207710Y3741791D01*
G01X16204456Y3747055D01*
G01X16200725Y3751739D01*
G01X16246445Y3751739D01*
G01X16242714Y3747055D01*
G01X16239460Y3741791D01*
G01X16237158Y3736167D01*
G01X16236513Y3733289D01*
G01X16236285Y3730403D01*
G37*
G36*
G01X16316285Y3654203D02*
G01X16290885Y3654203D01*
G01X16290657Y3657089D01*
G01X16290012Y3659967D01*
G01X16287710Y3665591D01*
G01X16284456Y3670855D01*
G01X16280725Y3675539D01*
G01X16326445Y3675539D01*
G01X16322714Y3670855D01*
G01X16319460Y3665591D01*
G01X16317158Y3659967D01*
G01X16316513Y3657089D01*
G01X16316285Y3654203D01*
G37*
G36*
G01X16396285Y3730403D02*
G01X16370885Y3730403D01*
G01X16370657Y3733289D01*
G01X16370012Y3736167D01*
G01X16367710Y3741791D01*
G01X16364456Y3747055D01*
G01X16360725Y3751739D01*
G01X16406445Y3751739D01*
G01X16402714Y3747055D01*
G01X16399460Y3741791D01*
G01X16397158Y3736167D01*
G01X16396513Y3733289D01*
G01X16396285Y3730403D01*
G37*
G36*
G01X16774941Y3908203D02*
G01X16736841Y3908203D01*
G01X16737037Y3914229D01*
G01X16737047Y3919669D01*
G01X16736710Y3922228D01*
G01X16736001Y3924710D01*
G01X16734811Y3927139D01*
G01X16733031Y3929539D01*
G01X16778751Y3929539D01*
G01X16776972Y3927139D01*
G01X16775782Y3924710D01*
G01X16775073Y3922228D01*
G01X16774736Y3919669D01*
G01X16774745Y3914229D01*
G01X16774941Y3908203D01*
G37*
G36*
G01X17023708Y3989324D02*
G01X16973670Y3989324D01*
G01X16973435Y3996042D01*
G01X16972816Y4002397D01*
G01X16970939Y4013518D01*
G01X16969062Y4021685D01*
G01X16968209Y4025900D01*
G01X17029169Y4025900D01*
G01X17028315Y4021685D01*
G01X17026438Y4013518D01*
G01X17024561Y4002397D01*
G01X17023942Y3996042D01*
G01X17023708Y3989324D01*
G37*
G36*
G01X14884177Y3258862D02*
G01X14902138Y3276823D01*
G01X14904340Y3274944D01*
G01X14906831Y3273365D01*
G01X14912435Y3271015D01*
G01X14918459Y3269594D01*
G01X14924409Y3268920D01*
G01X14892080Y3236591D01*
G01X14891406Y3242541D01*
G01X14889985Y3248565D01*
G01X14887635Y3254169D01*
G01X14886056Y3256660D01*
G01X14884177Y3258862D01*
G37*
G36*
G01X14780133Y3451003D02*
G01X14760067Y3451003D01*
G01X14759779Y3454406D01*
G01X14758965Y3457405D01*
G01X14757699Y3460098D01*
G01X14756059Y3462580D01*
G01X14751950Y3467301D01*
G01X14747240Y3472339D01*
G01X14792960Y3472339D01*
G01X14788250Y3467301D01*
G01X14784141Y3462580D01*
G01X14782501Y3460098D01*
G01X14781235Y3457405D01*
G01X14780421Y3454406D01*
G01X14780133Y3451003D01*
G37*
G36*
G01X14790714Y3527303D02*
G01X14804903Y3513114D01*
G01X14802771Y3510575D01*
G01X14801411Y3508063D01*
G01X14800663Y3505526D01*
G01X14800368Y3502911D01*
G01X14800497Y3497229D01*
G01X14800520Y3490591D01*
G01X14768191Y3522920D01*
G01X14774829Y3522897D01*
G01X14780511Y3522768D01*
G01X14783126Y3523063D01*
G01X14785663Y3523811D01*
G01X14788175Y3525171D01*
G01X14790714Y3527303D01*
G37*
G36*
G01X14684595Y3214189D02*
G01X14684595Y3176089D01*
G01X14678570Y3176285D01*
G01X14673130Y3176295D01*
G01X14670571Y3175958D01*
G01X14668089Y3175249D01*
G01X14665659Y3174059D01*
G01X14663259Y3172279D01*
G01X14663259Y3217999D01*
G01X14665659Y3216220D01*
G01X14668089Y3215030D01*
G01X14670571Y3214321D01*
G01X14673130Y3213984D01*
G01X14678570Y3213993D01*
G01X14684595Y3214189D01*
G37*
G36*
G01X14624049Y3236636D02*
G01X14662149Y3236636D01*
G01X14661953Y3230610D01*
G01X14661943Y3225170D01*
G01X14662280Y3222612D01*
G01X14662989Y3220129D01*
G01X14664179Y3217700D01*
G01X14665959Y3215300D01*
G01X14620239Y3215300D01*
G01X14622018Y3217700D01*
G01X14623208Y3220129D01*
G01X14623917Y3222612D01*
G01X14624254Y3225170D01*
G01X14624245Y3230610D01*
G01X14624049Y3236636D01*
G37*
G36*
G01X14217651Y3920903D02*
G01X14179551Y3920903D01*
G01X14179747Y3926929D01*
G01X14179757Y3932369D01*
G01X14179420Y3934928D01*
G01X14178711Y3937410D01*
G01X14177521Y3939839D01*
G01X14175741Y3942239D01*
G01X14221461Y3942239D01*
G01X14219682Y3939839D01*
G01X14218492Y3937410D01*
G01X14217783Y3934928D01*
G01X14217446Y3932369D01*
G01X14217455Y3926929D01*
G01X14217651Y3920903D01*
G37*
G36*
G01X18351723Y4538938D02*
G01X18333762Y4520977D01*
G01X18331560Y4522856D01*
G01X18329069Y4524435D01*
G01X18323465Y4526785D01*
G01X18317441Y4528206D01*
G01X18311491Y4528880D01*
G01X18343820Y4561209D01*
G01X18344494Y4555259D01*
G01X18345915Y4549235D01*
G01X18348265Y4543631D01*
G01X18349844Y4541140D01*
G01X18351723Y4538938D01*
G37*
G36*
G01X14579897Y5954662D02*
G01X14579897Y5994540D01*
G01X14586082Y5994158D01*
G01X14591410Y5993765D01*
G01X14593888Y5993917D01*
G01X14596315Y5994490D01*
G01X14598745Y5995624D01*
G01X14601233Y5997461D01*
G01X14601233Y5951741D01*
G01X14598745Y5953578D01*
G01X14596315Y5954712D01*
G01X14593888Y5955285D01*
G01X14591410Y5955436D01*
G01X14586082Y5955043D01*
G01X14579897Y5954662D01*
G37*
G36*
G01X14662890Y5994540D02*
G01X14662890Y5954662D01*
G01X14656705Y5955043D01*
G01X14651377Y5955436D01*
G01X14648899Y5955285D01*
G01X14646472Y5954712D01*
G01X14644042Y5953578D01*
G01X14641554Y5951741D01*
G01X14641554Y5997461D01*
G01X14644042Y5995624D01*
G01X14646472Y5994490D01*
G01X14648899Y5993917D01*
G01X14651377Y5993765D01*
G01X14656705Y5994158D01*
G01X14662890Y5994540D01*
G37*
G36*
G01X15388915Y5161925D02*
G01X15389092Y5200025D01*
G01X15395117Y5199801D01*
G01X15400557Y5199766D01*
G01X15403117Y5200091D01*
G01X15405603Y5200789D01*
G01X15408038Y5201967D01*
G01X15410446Y5203735D01*
G01X15410233Y5158016D01*
G01X15407842Y5159807D01*
G01X15405418Y5161008D01*
G01X15402939Y5161729D01*
G01X15400382Y5162077D01*
G01X15394942Y5162093D01*
G01X15388915Y5161925D01*
G37*
G36*
G01X14518704Y5205476D02*
G01X14569504Y5205476D01*
G01X14569722Y5198758D01*
G01X14570298Y5192403D01*
G01X14572044Y5181283D01*
G01X14573791Y5173115D01*
G01X14574584Y5168900D01*
G01X14513624Y5168900D01*
G01X14514418Y5173115D01*
G01X14516164Y5181283D01*
G01X14517911Y5192403D01*
G01X14518486Y5198758D01*
G01X14518704Y5205476D01*
G37*
G36*
G01X14569504Y5214133D02*
G01X14518704Y5214133D01*
G01X14518486Y5220851D01*
G01X14517911Y5227206D01*
G01X14516164Y5238326D01*
G01X14514418Y5246494D01*
G01X14513624Y5250709D01*
G01X14574584Y5250709D01*
G01X14573791Y5246494D01*
G01X14572044Y5238326D01*
G01X14570298Y5227206D01*
G01X14569722Y5220851D01*
G01X14569504Y5214133D01*
G37*
G36*
G01X14531404Y5292205D02*
G01X14556804Y5292205D01*
G01X14557032Y5289320D01*
G01X14557677Y5286441D01*
G01X14559979Y5280817D01*
G01X14563234Y5275553D01*
G01X14566964Y5270869D01*
G01X14521244Y5270869D01*
G01X14524975Y5275553D01*
G01X14528229Y5280817D01*
G01X14530531Y5286441D01*
G01X14531176Y5289320D01*
G01X14531404Y5292205D01*
G37*
G36*
G01X15147928Y4186287D02*
G01X15120987Y4213228D01*
G01X15125387Y4217350D01*
G01X15129240Y4221190D01*
G01X15130811Y4223237D01*
G01X15132065Y4225494D01*
G01X15132941Y4228054D01*
G01X15133380Y4231009D01*
G01X15165709Y4198680D01*
G01X15162754Y4198241D01*
G01X15160194Y4197365D01*
G01X15157937Y4196111D01*
G01X15155890Y4194540D01*
G01X15152050Y4190687D01*
G01X15147928Y4186287D01*
G37*
G36*
G01X15704862Y5753323D02*
G01X15722823Y5735362D01*
G01X15720944Y5733160D01*
G01X15719365Y5730669D01*
G01X15717015Y5725065D01*
G01X15715594Y5719041D01*
G01X15714920Y5713091D01*
G01X15682591Y5745420D01*
G01X15688541Y5746094D01*
G01X15694565Y5747515D01*
G01X15700169Y5749865D01*
G01X15702660Y5751444D01*
G01X15704862Y5753323D01*
G37*
G36*
G01X15704862Y5626323D02*
G01X15722823Y5608362D01*
G01X15720944Y5606160D01*
G01X15719365Y5603669D01*
G01X15717015Y5598065D01*
G01X15715594Y5592041D01*
G01X15714920Y5586091D01*
G01X15682591Y5618420D01*
G01X15688541Y5619094D01*
G01X15694565Y5620515D01*
G01X15700169Y5622865D01*
G01X15702660Y5624444D01*
G01X15704862Y5626323D01*
G37*
G36*
G01X15755662Y5512023D02*
G01X15773623Y5494062D01*
G01X15771744Y5491860D01*
G01X15770165Y5489369D01*
G01X15767815Y5483765D01*
G01X15766394Y5477741D01*
G01X15765720Y5471791D01*
G01X15733391Y5504120D01*
G01X15739341Y5504794D01*
G01X15745365Y5506215D01*
G01X15750969Y5508565D01*
G01X15753460Y5510144D01*
G01X15755662Y5512023D01*
G37*
G36*
G01X16306577Y5367062D02*
G01X16324538Y5385023D01*
G01X16326740Y5383144D01*
G01X16329231Y5381565D01*
G01X16334835Y5379215D01*
G01X16340859Y5377794D01*
G01X16346809Y5377120D01*
G01X16314480Y5344791D01*
G01X16313806Y5350741D01*
G01X16312385Y5356765D01*
G01X16310035Y5362369D01*
G01X16308456Y5364860D01*
G01X16306577Y5367062D01*
G37*
G36*
G01X16230377Y5227362D02*
G01X16248338Y5245323D01*
G01X16250540Y5243444D01*
G01X16253031Y5241865D01*
G01X16258635Y5239515D01*
G01X16264659Y5238094D01*
G01X16270609Y5237420D01*
G01X16238280Y5205091D01*
G01X16237606Y5211041D01*
G01X16236185Y5217065D01*
G01X16233835Y5222669D01*
G01X16232256Y5225160D01*
G01X16230377Y5227362D01*
G37*
G36*
G01X16166877Y5100362D02*
G01X16184838Y5118323D01*
G01X16187040Y5116444D01*
G01X16189531Y5114865D01*
G01X16195135Y5112515D01*
G01X16201159Y5111094D01*
G01X16207109Y5110420D01*
G01X16174780Y5078091D01*
G01X16174106Y5084041D01*
G01X16172685Y5090065D01*
G01X16170335Y5095669D01*
G01X16168756Y5098160D01*
G01X16166877Y5100362D01*
G37*
G36*
G01X16103377Y4973362D02*
G01X16121338Y4991323D01*
G01X16123540Y4989444D01*
G01X16126031Y4987865D01*
G01X16131635Y4985515D01*
G01X16137659Y4984094D01*
G01X16143609Y4983420D01*
G01X16111280Y4951091D01*
G01X16110606Y4957041D01*
G01X16109185Y4963065D01*
G01X16106835Y4968669D01*
G01X16105256Y4971160D01*
G01X16103377Y4973362D01*
G37*
G36*
G01X16039877Y4846362D02*
G01X16057838Y4864323D01*
G01X16060040Y4862444D01*
G01X16062531Y4860865D01*
G01X16068135Y4858515D01*
G01X16074159Y4857094D01*
G01X16080109Y4856420D01*
G01X16047780Y4824091D01*
G01X16047106Y4830041D01*
G01X16045685Y4836065D01*
G01X16043335Y4841669D01*
G01X16041756Y4844160D01*
G01X16039877Y4846362D01*
G37*
G36*
G01X15198503Y3196900D02*
G01X15198503Y3235000D01*
G01X15204529Y3234804D01*
G01X15209969Y3234795D01*
G01X15212528Y3235131D01*
G01X15215010Y3235840D01*
G01X15217439Y3237030D01*
G01X15219839Y3238810D01*
G01X15219839Y3193090D01*
G01X15217439Y3194869D01*
G01X15215010Y3196059D01*
G01X15212528Y3196768D01*
G01X15209969Y3197105D01*
G01X15204529Y3197096D01*
G01X15198503Y3196900D01*
G37*
G36*
G01X16951103Y4597400D02*
G01X16951103Y4622800D01*
G01X16953989Y4623028D01*
G01X16956867Y4623673D01*
G01X16962491Y4625975D01*
G01X16967755Y4629229D01*
G01X16972439Y4632960D01*
G01X16972439Y4587240D01*
G01X16967755Y4590971D01*
G01X16962491Y4594225D01*
G01X16956867Y4596527D01*
G01X16953989Y4597172D01*
G01X16951103Y4597400D01*
G37*
G36*
G01X14665832Y3543763D02*
G01X14645766Y3543763D01*
G01X14645478Y3547166D01*
G01X14644663Y3550165D01*
G01X14643398Y3552858D01*
G01X14641757Y3555340D01*
G01X14637649Y3560061D01*
G01X14632939Y3565099D01*
G01X14678659Y3565099D01*
G01X14673949Y3560061D01*
G01X14669840Y3555340D01*
G01X14668199Y3552858D01*
G01X14666934Y3550165D01*
G01X14666120Y3547166D01*
G01X14665832Y3543763D01*
G37*
G36*
G01X14645766Y3626757D02*
G01X14665832Y3626757D01*
G01X14666120Y3623354D01*
G01X14666934Y3620355D01*
G01X14668199Y3617662D01*
G01X14669840Y3615180D01*
G01X14673949Y3610459D01*
G01X14678659Y3605421D01*
G01X14632939Y3605421D01*
G01X14637649Y3610459D01*
G01X14641757Y3615180D01*
G01X14643398Y3617662D01*
G01X14644663Y3620355D01*
G01X14645478Y3623354D01*
G01X14645766Y3626757D01*
G37*
G36*
G01X15392400Y4930997D02*
G01X15417800Y4930997D01*
G01X15418028Y4928111D01*
G01X15418673Y4925233D01*
G01X15420975Y4919609D01*
G01X15424230Y4914345D01*
G01X15427960Y4909661D01*
G01X15382240Y4909661D01*
G01X15385971Y4914345D01*
G01X15389225Y4919609D01*
G01X15391527Y4925233D01*
G01X15392172Y4928111D01*
G01X15392400Y4930997D01*
G37*
G36*
G01X14602897Y6360597D02*
G02X14583894Y6409572I53609J48975D01*
G01X14568908Y6373392D01*
G01X14602897Y6360597D01*
G37*
G04 TearDrop End*

G04 Pad Start*
G54D11*
G01X18046700Y3594100D03*
G01X15532100Y6731000D03*
G54D12*
G01X15354300Y6127902D03*
G01X15354300Y5987898D03*
G54D13*
G01X15506700Y6125108D03*
G01X15506700Y6016092D03*
G54D14*
G01X15633700Y5922600D03*
G01X15633700Y5837600D03*
G54D16*
G01X14596700Y5854700D03*
G01X14511700Y5854700D03*
G54D17*
G01X14459104Y5341994D03*
G01X14544104Y5341994D03*
G54D13*
G01X18379773Y4256618D03*
G01X18379773Y4147602D03*
G54D18*
G01X16632598Y3878174D03*
G01X16523582Y3878174D03*
G54D17*
G01X16535590Y3763874D03*
G01X16620590Y3763874D03*
G54D16*
G01X14541222Y3651762D03*
G01X14456222Y3651762D03*
G01X14541222Y3746819D03*
G01X14456222Y3746819D03*
G54D19*
G01X15030242Y3330249D03*
G01X15139259Y3330249D03*
G54D16*
G01X15127250Y3444549D03*
G01X15042250Y3444549D03*
G54D19*
G01X14192042Y3571549D03*
G01X14301059Y3571549D03*
G54D16*
G01X14289050Y3685849D03*
G01X14204050Y3685849D03*
G01X14541222Y3849181D03*
G01X14456222Y3849181D03*
G54D20*
G01X14662383Y4031068D03*
G01X14662383Y4116068D03*
G54D21*
G01X14668500Y4974692D03*
G01X14668500Y5083708D03*
G54D20*
G01X14752722Y4030739D03*
G01X14752722Y4115739D03*
G01X14842942Y4030832D03*
G01X14842942Y4115832D03*
G54D21*
G01X14827135Y4273822D03*
G01X14827135Y4382839D03*
G01X14668500Y4669892D03*
G01X14668500Y4778908D03*
G54D20*
G01X14933398Y4030907D03*
G01X14933398Y4115907D03*
G54D21*
G01X14941435Y4274409D03*
G01X14941435Y4383426D03*
G54D20*
G01X15023618Y4031191D03*
G01X15023618Y4116191D03*
G54D14*
G01X15033950Y4591949D03*
G01X15033950Y4506949D03*
G54D21*
G01X15023431Y5168381D03*
G01X15023431Y5277397D03*
G01X15143550Y5168761D03*
G01X15143550Y5277778D03*
G54D20*
G01X15250479Y5180689D03*
G01X15250479Y5265689D03*
G54D14*
G01X15341152Y5265782D03*
G01X15341152Y5180782D03*
G54D22*
G01X14751304Y5841390D03*
G01X14846300Y5841390D03*
G01X14941296Y5841390D03*
G01X14941296Y6071210D03*
G01X14846300Y6071210D03*
G01X14751304Y6071210D03*
G54D23*
G01X14363700Y6296406D03*
G01X14363700Y5946394D03*
G54D24*
G01X15129846Y3215950D03*
G01X15044846Y3215950D03*
G54D25*
G01X14198601Y3780200D03*
G01X14198601Y3865200D03*
G01X14300201Y3780200D03*
G01X14300201Y3865200D03*
G54D26*
G01X15114973Y4115488D03*
G01X15114973Y4030488D03*
G54D27*
G01X14547596Y5703367D03*
G01X14452600Y5703367D03*
G01X14357604Y5703367D03*
G54D28*
G01X14357604Y5472633D03*
G01X14547596Y5472633D03*
G54D29*
G01X18645553Y4761662D03*
G01X18645553Y4581652D03*
G54D30*
G01X14297071Y3233754D03*
G01X14297071Y3426743D03*
G01X14196030Y3426743D03*
G01X14196030Y3233754D03*
G54D31*
G01X16998689Y3904463D03*
G01X16868691Y3904463D03*
G01X16933690Y3724885D03*
G54D26*
G01X15633699Y6087700D03*
G01X15633699Y6002700D03*
G54D25*
G01X18376901Y4377100D03*
G01X18376901Y4462100D03*
G54D24*
G01X18637253Y4874858D03*
G01X18552253Y4874858D03*
G54D25*
G01X16755891Y3772174D03*
G01X16755891Y3857174D03*
G54D26*
G01X14770099Y3420700D03*
G01X14770099Y3335700D03*
G01X14643099Y3420700D03*
G01X14643099Y3335700D03*
G54D25*
G01X14871701Y3335700D03*
G01X14871701Y3420700D03*
G54D24*
G01X15280294Y3556699D03*
G01X15195294Y3556699D03*
G01X15280294Y3645982D03*
G01X15195294Y3645982D03*
G01X15280294Y3735182D03*
G01X15195294Y3735182D03*
G01X15280294Y3824244D03*
G01X15195294Y3824244D03*
G54D25*
G01X14830751Y4506949D03*
G01X14830751Y4591949D03*
G01X14932351Y4506949D03*
G01X14932351Y4591949D03*
G01X15135551Y4506949D03*
G01X15135551Y4591949D03*
G54D32*
G01X14516100Y5974601D03*
G54D33*
G01X14516100Y6039599D03*
G54D34*
G01X14877819Y3733296D03*
G54D35*
G01X14727806Y3653311D03*
G01X14727806Y3693316D03*
G01X14727806Y3733321D03*
G01X14727806Y3773301D03*
G01X14727806Y3813306D03*
G54D36*
G01X14797809Y3883308D03*
G01X14837814Y3883308D03*
G01X14877819Y3883308D03*
G01X14917824Y3883308D03*
G01X14957829Y3883308D03*
G54D37*
G01X15027806Y3813280D03*
G01X15027806Y3773275D03*
G01X15027806Y3733296D03*
G01X15027806Y3693291D03*
G01X15027806Y3653286D03*
G54D36*
G01X14957829Y3583309D03*
G01X14917824Y3583309D03*
G01X14877819Y3583309D03*
G01X14837814Y3583309D03*
G01X14797809Y3583309D03*
G54D38*
G01X15264105Y4779289D03*
G01X15264105Y4844313D03*
G01X15264105Y4909312D03*
G01X15264105Y4974311D03*
G01X14834895Y4779289D03*
G01X14834895Y4844313D03*
G01X14834895Y4909312D03*
G01X14834895Y4974311D03*
G54D39*
G01X16863585Y3378200D03*
G01X16783585Y3378200D03*
G01X16703585Y3378200D03*
G01X16623585Y3378200D03*
G01X16543585Y3378200D03*
G01X16463585Y3378200D03*
G01X16383585Y3378200D03*
G01X16303585Y3378200D03*
G01X16223585Y3378200D03*
G01X16143585Y3378200D03*
G01X16063585Y3378200D03*
G01X15983585Y3378200D03*
G54D26*
G01X14516099Y6227400D03*
G01X14516099Y6142400D03*
G54D40*
G01X14778400Y6286499D03*
G01X14863400Y6286499D03*
G54D41*
G01X14963903Y6468899D03*
G01X14883893Y6468899D03*
G54D42*
G01X14818895Y6468899D03*
G01X14768882Y6468899D03*
G01X14718895Y6468899D03*
G01X14668908Y6468899D03*
G01X14618895Y6468899D03*
G01X14568908Y6468899D03*
G01X14518895Y6468899D03*
G01X14468883Y6468899D03*
G54D41*
G01X14403884Y6468899D03*
G01X14323899Y6468899D03*
G54D43*
G01X15076400Y6523890D03*
G01X14211403Y6523890D03*
G54D44*
G01X15076400Y6943904D03*
G01X14211403Y6943904D03*
G54D45*
G01X15914395Y6198095D03*
G01X15914395Y6071095D03*
G01X15914395Y5944095D03*
G01X15914395Y5817095D03*
G01X15914395Y5690095D03*
G01X15914395Y5563095D03*
G01X15914395Y5436095D03*
G01X15914395Y5309095D03*
G01X15914395Y5182095D03*
G01X15914395Y5055095D03*
G01X15914395Y4928095D03*
G01X15914395Y4801095D03*
G01X15914395Y4674095D03*
G01X15914395Y4547095D03*
G54D46*
G01X16090900Y4419105D03*
G01X16217900Y4419105D03*
G01X16344900Y4419105D03*
G01X16471900Y4419105D03*
G01X16598900Y4419105D03*
G01X16725900Y4419105D03*
G01X16852900Y4419105D03*
G01X16979900Y4419105D03*
G01X17106900Y4419105D03*
G01X17233900Y4419105D03*
G01X17360900Y4419105D03*
G01X17487900Y4422102D03*
G54D47*
G01X17664405Y4547095D03*
G01X17664405Y4674095D03*
G01X17664405Y4801095D03*
G01X17664405Y4928095D03*
G01X17664405Y5055095D03*
G01X17664405Y5182095D03*
G01X17664405Y5309095D03*
G01X17664405Y5436095D03*
G01X17664405Y5563095D03*
G01X17664405Y5690095D03*
G01X17664405Y5817095D03*
G01X17664405Y5944095D03*
G01X17664405Y6071095D03*
G01X17664405Y6198095D03*
G54D48*
G01X16779392Y5286083D03*
G01X16639388Y5286083D03*
G01X16499383Y5286083D03*
G01X16499383Y5566093D03*
G01X16639388Y5566093D03*
G01X16779392Y5566093D03*
G01X16779392Y5426088D03*
G01X16499383Y5426088D03*
G01X16639388Y5426088D03*
G54D49*
G01X18511149Y4263301D03*
G01X18511149Y4093299D03*
G54D50*
G01X18623646Y3945801D03*
G01X18623646Y4410799D03*
G54D51*
G01X14475341Y4938079D03*
G01X14475341Y4813085D03*
G54D52*
G01X14225329Y5183087D03*
G01X14225329Y4568077D03*
G54D53*
G01X18148300Y6667500D03*
G54D54*
G01X18402300Y6667500D03*
G04 Pad End*

G04 Via Start*
G54D55*
G01X15036800Y6311900D03*
G01X14198600Y6296406D03*
G01X16063585Y3771900D03*
G01X16143585Y3695700D03*
G01X16223585Y3771900D03*
G01X16303585Y3695700D03*
G01X16383585Y3771900D03*
G01X16755891Y3949700D03*
G01X16998689Y4025900D03*
G01X14922500Y3238500D03*
G01X14770100Y3492500D03*
G01X14643099Y3195139D03*
G01X14198601Y3962400D03*
G01X18313400Y4559300D03*
G01X14621394Y5974601D03*
G01X15430500Y5180782D03*
G01X14544104Y5168900D03*
G01X14544104Y5250709D03*
G01X15430500Y5092700D03*
G01X14643100Y6083300D03*
G01X14058405Y5435105D03*
G01X15163800Y4229100D03*
G01X15684500Y5715000D03*
G01X15684500Y5588000D03*
G01X15735300Y5473700D03*
G01X15735300Y6159500D03*
G01X15659955Y6159500D03*
G01X16344900Y5346700D03*
G01X16268700Y5207000D03*
G01X16205200Y5080000D03*
G01X16141700Y4953000D03*
G01X16078200Y4826000D03*
G01X15240000Y3215950D03*
G01X16992600Y4610100D03*
G01X14655799Y3585260D03*
G01X18478500Y5715000D03*
G01X18478500Y5626100D03*
G01X18008600Y6946900D03*
G01X18135600Y6946900D03*
G01X18275300Y6946900D03*
G01X18427700Y5054600D03*
G01X18427700Y4953000D03*
G01X18338800Y5003800D03*
G01X17932400Y4864100D03*
G01X17932400Y4737100D03*
G01X18402300Y3822700D03*
G01X18402300Y3733800D03*
G01X18402300Y3644900D03*
G01X18402300Y3556000D03*
G01X17805400Y3251200D03*
G01X17894300Y3251200D03*
G01X17983200Y3251200D03*
G01X18072100Y3251200D03*
G01X17284700Y3251200D03*
G01X17373600Y3251200D03*
G01X17462500Y3251200D03*
G01X17551400Y3251200D03*
G01X17335500Y5130800D03*
G01X17335500Y5041900D03*
G01X17335500Y4953000D03*
G01X17335500Y4864100D03*
G01X17208500Y5130800D03*
G01X17208500Y5041900D03*
G01X17208500Y4953000D03*
G01X17208500Y4864100D03*
G01X15506700Y3251200D03*
G01X15595600Y3251200D03*
G01X15684500Y3251200D03*
G01X15773400Y3251200D03*
G01X13881100Y3949700D03*
G01X13881100Y3860800D03*
G01X13881100Y3771900D03*
G01X13881100Y3683000D03*
G01X13881100Y4406900D03*
G01X13881100Y4318000D03*
G01X13881100Y4229100D03*
G01X13881100Y4140200D03*
G01X15405100Y4889500D03*
G01X18097500Y5613400D03*
G01X18034000Y5549900D03*
G01X18228707Y6060181D03*
G01X15401539Y6994704D03*
G01X15490439Y6994704D03*
G01X15579339Y6994704D03*
G01X15668239Y6994704D03*
G01X15722600Y6350000D03*
G01X15722600Y6438900D03*
G01X15722600Y6527800D03*
G01X16662400Y6121400D03*
G01X16751300Y6121400D03*
G01X16840200Y6121400D03*
G01X16929100Y6121400D03*
G01X13881100Y6235700D03*
G01X13881100Y6324600D03*
G01X13881100Y6413500D03*
G01X13881100Y6502400D03*
G01X13881100Y5715000D03*
G01X13881100Y5803900D03*
G01X13881100Y5892800D03*
G01X13881100Y5981700D03*
G01X14744700Y5461000D03*
G01X15570200Y4457700D03*
G01X15506700Y4521200D03*
G01X15367000Y4140200D03*
G01X15367000Y4038600D03*
G01X14744700Y5562600D03*
G01X18072100Y6400800D03*
G04 Via End*

G04 Track Start*
G54D56*
G01X14403884Y6468899D02*
G01X14403884Y6390184D01*
G01X14363700Y6350000D01*
G01X14363700Y6296406D01*
G54D57*
G01X14468883Y6468899D02*
G01X14468883Y6359117D01*
G01X14516100Y6311900D01*
G01X14516100Y6227401D01*
G54D58*
G01X14718895Y6468899D02*
G01X14718895Y6566305D01*
G01X14693900Y6591300D01*
G01X14643100Y6591300D01*
G01X14618895Y6567095D01*
G01X14618895Y6468899D01*
G01X14568908Y6468899D02*
G01X14568908Y6373392D01*
G01X14668908Y6375808D02*
G01X14668908Y6468899D01*
G54D56*
G01X14883893Y6468899D02*
G01X14883893Y6397057D01*
G54D57*
G01X14768882Y6468899D02*
G01X14770100Y6467681D01*
G01X14770100Y6375400D01*
G01X14778400Y6367100D01*
G01X14778400Y6286499D01*
G54D58*
G01X14941296Y6178804D02*
G01X14941296Y6071210D01*
G01X14568908Y6373392D02*
G01X14568908Y6297192D01*
G01X14751304Y6114796D01*
G01X14751304Y6071210D01*
G01X14909800Y6210300D02*
G01X14941296Y6178804D01*
G01X14718895Y6468899D02*
G01X14718895Y6236105D01*
G01X14744700Y6210300D01*
G01X14909800Y6210300D01*
G01X14643100Y6350000D02*
G01X14668908Y6375808D01*
G01X14592300Y6350000D02*
G01X14643100Y6350000D01*
G01X14568908Y6373392D02*
G01X14592300Y6350000D01*
G54D56*
G01X14969050Y6311900D02*
G01X15036800Y6311900D01*
G01X14883893Y6397057D02*
G01X14969050Y6311900D01*
G01X14363700Y6296406D02*
G01X14198600Y6296406D01*
G54D57*
G01X18645553Y4761662D02*
G01X18645553Y4824047D01*
G01X18637253Y4832347D01*
G01X18637253Y4874858D01*
G01X17664405Y5055095D02*
G01X18084305Y5055095D01*
G01X18557748Y4581652D01*
G01X18645553Y4581652D01*
G01X18376901Y4377100D02*
G01X18376901Y4259490D01*
G01X18379773Y4256618D01*
G01X18504466Y4256618D01*
G01X18511149Y4263301D01*
G01X18379773Y4256618D02*
G01X18311282Y4256618D01*
G01X18224500Y4343400D01*
G01X18224500Y4470400D01*
G01X18148300Y4546600D01*
G01X17664900Y4546600D01*
G01X17664405Y4547095D01*
G01X15392400Y3822700D02*
G01X15281838Y3822700D01*
G01X15280294Y3824244D01*
G01X15280294Y3735182D02*
G01X15406482Y3735182D01*
G01X15431582Y3645982D02*
G01X15280294Y3645982D01*
G01X15280294Y3556699D02*
G01X15456599Y3556699D01*
G01X16755891Y3772174D02*
G01X16755891Y3662191D01*
G01X16703585Y3609885D02*
G01X16703585Y3378200D01*
G01X16755891Y3662191D02*
G01X16703585Y3609885D01*
G54D59*
G01X16783585Y3378200D02*
G01X16783585Y3537485D01*
G01X16933690Y3687590D01*
G01X16933690Y3724885D01*
G54D57*
G01X16383585Y3378200D02*
G01X16383585Y3771900D01*
G01X16303585Y3378200D02*
G01X16303585Y3695700D01*
G01X16223585Y3378200D02*
G01X16223585Y3771900D01*
G01X16143585Y3378200D02*
G01X16143585Y3695700D01*
G01X16063585Y3378200D02*
G01X16063585Y3771900D01*
G54D59*
G01X16623585Y3378200D02*
G01X16623585Y3760879D01*
G01X16620590Y3763874D01*
G01X16620590Y3818990D01*
G01X16632598Y3830998D02*
G01X16632598Y3878174D01*
G01X16620590Y3818990D02*
G01X16632598Y3830998D01*
G01X16632598Y3878174D02*
G01X16695826Y3878174D01*
G01X16716826Y3857174D01*
G01X16755891Y3857174D01*
G54D60*
G01X16755891Y3857174D02*
G01X16755891Y3949700D01*
G54D61*
G01X16998689Y3904463D02*
G01X16998689Y4025900D01*
G54D60*
G01X15042250Y3215950D02*
G01X15042250Y3318240D01*
G01X15030242Y3330249D01*
G54D62*
G01X14917824Y3583309D02*
G01X14917824Y3522576D01*
G01X14935200Y3505200D01*
G01X15011400Y3505200D01*
G54D60*
G01X15030242Y3330249D02*
G01X15042250Y3342257D01*
G01X15042250Y3444549D01*
G54D62*
G01X15011400Y3505200D02*
G01X15042250Y3474350D01*
G01X15042250Y3444549D01*
G01X14998700Y3479800D02*
G01X15033951Y3444549D01*
G01X15042250Y3444549D01*
G01X14877819Y3583309D02*
G01X14877819Y3524481D01*
G01X14922500Y3479800D01*
G01X14998700Y3479800D01*
G01X14837814Y3583309D02*
G01X14837814Y3500986D01*
G01X14797809Y3583309D02*
G01X14797809Y3520209D01*
G01X14727806Y3693316D02*
G01X14678298Y3693316D01*
G01X14727806Y3733321D02*
G01X14668021Y3733321D01*
G01X14586462Y3651762D02*
G01X14541222Y3651762D01*
G01X14668021Y3733321D02*
G01X14586462Y3651762D01*
G01X14541541Y3746500D02*
G01X14541222Y3746819D01*
G01X14727806Y3773301D02*
G01X14606401Y3773301D01*
G01X14579600Y3746500D01*
G01X14541541Y3746500D01*
G01X14727806Y3813306D02*
G01X14614394Y3813306D01*
G01X14578519Y3849181D01*
G01X14541222Y3849181D01*
G01X15027806Y3653286D02*
G01X15124392Y3556699D01*
G01X15195294Y3556699D01*
G01X15027806Y3693291D02*
G01X15102709Y3693291D01*
G01X15150018Y3645982D01*
G01X15195294Y3645982D01*
G01X15027806Y3733296D02*
G01X15193408Y3733296D01*
G01X15195294Y3735182D01*
G01X15027806Y3773275D02*
G01X15088975Y3773275D01*
G01X15139944Y3824244D02*
G01X15195294Y3824244D01*
G01X15088975Y3773275D02*
G01X15139944Y3824244D01*
G01X14957829Y3883308D02*
G01X15023618Y3949098D01*
G01X15023618Y4031191D01*
G54D57*
G01X15023618Y4031191D02*
G01X15114269Y4031191D01*
G01X15114973Y4030488D01*
G54D62*
G01X14917824Y3883308D02*
G01X14919889Y3885373D01*
G01X14919889Y3959789D01*
G01X14933398Y3973298D01*
G01X14933398Y4030907D01*
G01X14877819Y3883308D02*
G01X14877819Y3956281D01*
G01X14842942Y3991158D02*
G01X14842942Y4030832D01*
G01X14877819Y3956281D02*
G01X14842942Y3991158D01*
G01X14837814Y3883308D02*
G01X14837814Y3932786D01*
G01X14752722Y4017878D02*
G01X14752722Y4030739D01*
G01X14837814Y3932786D02*
G01X14752722Y4017878D01*
G01X14797809Y3883308D02*
G01X14747592Y3883308D01*
G01X14662383Y3968517D01*
G01X14662383Y4031068D01*
G54D57*
G01X14456222Y3651762D02*
G01X14456222Y3318322D01*
G01X14371654Y3233754D02*
G01X14297071Y3233754D01*
G01X14456222Y3318322D02*
G01X14371654Y3233754D01*
G01X14297071Y3426743D02*
G01X14301059Y3430731D01*
G01X14301059Y3571549D01*
G01X14297071Y3426743D02*
G01X14196030Y3426743D01*
G01X14301059Y3571549D02*
G01X14301059Y3618641D01*
G01X14289050Y3630650D02*
G01X14289050Y3685849D01*
G01X14301059Y3618641D02*
G01X14289050Y3630650D01*
G01X14289050Y3685849D02*
G01X14289050Y3722650D01*
G01X14300200Y3733800D01*
G01X14300201Y3780200D01*
G54D60*
G01X14198601Y3780200D02*
G01X14204050Y3774751D01*
G01X14204050Y3685849D01*
G01X14204050Y3583557D01*
G01X14192042Y3571549D01*
G01X14112549Y3571549D01*
G01X14071600Y3530600D01*
G01X14071600Y3276600D01*
G01X14114446Y3233754D01*
G01X14196030Y3233754D01*
G54D57*
G01X14456222Y3746819D02*
G01X14427519Y3746819D01*
G01X14376400Y3695700D01*
G01X14376400Y3606800D01*
G01X14341149Y3571549D01*
G01X14301059Y3571549D01*
G54D62*
G01X14837814Y3500986D02*
G01X14871700Y3467100D01*
G01X14871701Y3433400D01*
G01X14859001Y3420700D01*
G54D57*
G01X14871700Y3335699D02*
G01X14871700Y3289300D01*
G01X14922500Y3238500D01*
G54D62*
G01X14797809Y3520209D02*
G01X14770100Y3492500D01*
G01X14770100Y3420701D01*
G54D60*
G01X14688639Y3195139D02*
G01X14770099Y3276599D01*
G01X14770099Y3335700D01*
G01X14643099Y3335700D02*
G01X14643099Y3195139D01*
G01X14688639Y3195139D01*
G01X14198601Y3865200D02*
G01X14198601Y3962400D01*
G54D57*
G01X18376901Y4462100D02*
G01X18376901Y4495799D01*
G01X18313400Y4559300D01*
G54D60*
G01X15914395Y6071095D02*
G01X15897791Y6087700D01*
G01X15633699Y6087700D01*
G01X15591200Y6087700D01*
G01X15553792Y6125108D02*
G01X15506700Y6125108D01*
G01X15591200Y6087700D02*
G01X15553792Y6125108D01*
G01X15506700Y6125108D02*
G01X15357094Y6125108D01*
G01X15354300Y6127902D01*
G54D59*
G01X14363700Y5946394D02*
G01X14429994Y5946394D01*
G01X14458201Y5974601D02*
G01X14516100Y5974601D01*
G01X14429994Y5946394D02*
G01X14458201Y5974601D01*
G01X14813801Y5974601D02*
G01X14846300Y6007100D01*
G01X14846300Y6071210D01*
G54D63*
G01X14511700Y5854700D02*
G01X14511700Y5821000D01*
G01X14547596Y5785104D02*
G01X14547596Y5703367D01*
G01X14511700Y5821000D02*
G01X14547596Y5785104D01*
G01X14511700Y5854700D02*
G01X14427200Y5854700D01*
G01X14357604Y5785104D02*
G01X14357604Y5703367D01*
G01X14427200Y5854700D02*
G01X14357604Y5785104D01*
G54D59*
G01X14511701Y5970201D02*
G01X14511700Y5854700D01*
G01X14516100Y5974601D02*
G01X14511701Y5970201D01*
G54D57*
G01X14941296Y5841390D02*
G01X14941296Y5772404D01*
G01X15062200Y5651500D02*
G01X15405100Y5651500D01*
G01X15913900Y4673600D02*
G01X15914395Y4674095D01*
G01X14941296Y5772404D02*
G01X15062200Y5651500D01*
G01X15914395Y4547095D02*
G01X15722105Y4547095D01*
G01X14751304Y5771896D02*
G01X14751304Y5841390D01*
G54D59*
G01X14516100Y5974601D02*
G01X14621394Y5974601D01*
G01X14813801Y5974601D01*
G54D60*
G01X15023431Y5168381D02*
G01X15143170Y5168381D01*
G01X15251405Y5181615D02*
G01X15250479Y5180689D01*
G01X15143550Y5168761D02*
G01X15155478Y5180689D01*
G01X15250479Y5180689D01*
G01X15023431Y5168381D02*
G01X15023431Y4977731D01*
G01X14955012Y4909312D02*
G01X14834895Y4909312D01*
G01X15023431Y4977731D02*
G01X14955012Y4909312D01*
G01X14547596Y5472633D02*
G01X14547596Y5390896D01*
G01X14544104Y5387404D01*
G01X14544104Y5341994D01*
G54D57*
G01X14544104Y5341994D02*
G01X14544104Y5250709D01*
G54D56*
G01X14544104Y5250709D02*
G01X14544104Y5168900D01*
G54D57*
G01X14933398Y4115907D02*
G01X14933398Y4189198D01*
G01X14941435Y4197235D02*
G01X14941435Y4274409D01*
G01X14933398Y4189198D02*
G01X14941435Y4197235D01*
G01X14827135Y4273822D02*
G01X14827135Y4197465D01*
G01X14842942Y4181658D02*
G01X14842942Y4115832D01*
G01X14827135Y4197465D02*
G01X14842942Y4181658D01*
G01X14941435Y4383426D02*
G01X14941435Y4451465D01*
G01X14932351Y4460549D02*
G01X14932351Y4506949D01*
G01X14941435Y4451465D02*
G01X14932351Y4460549D01*
G01X14830751Y4506949D02*
G01X14830751Y4454851D01*
G01X14827135Y4451235D01*
G01X14827135Y4382839D01*
G01X14830751Y4591949D02*
G01X14830751Y4632651D01*
G01X15172411Y4974311D01*
G01X15264105Y4974311D01*
G01X15264105Y4909312D02*
G01X15170912Y4909312D01*
G01X14932351Y4670751D01*
G01X14932351Y4591949D01*
G01X15264105Y4844313D02*
G01X15169413Y4844313D01*
G01X15033950Y4708850D01*
G01X15033950Y4591949D01*
G01X15264105Y4779289D02*
G01X15193289Y4779289D01*
G01X15138400Y4724400D01*
G01X15138400Y4594797D01*
G01X15135551Y4591949D01*
G54D60*
G01X15114973Y4115488D02*
G01X15114973Y4180273D01*
G01X15163800Y4229100D01*
G54D57*
G01X15914395Y5817095D02*
G01X15786595Y5817095D01*
G01X15684500Y5715000D01*
G01X15914395Y5690095D02*
G01X15786595Y5690095D01*
G01X15684500Y5588000D01*
G01X15914395Y5563095D02*
G01X15824695Y5563095D01*
G01X15735300Y5473700D01*
G54D60*
G01X15633699Y6002700D02*
G01X15633700Y5922600D01*
G01X15892900Y5922600D01*
G01X15914395Y5944095D01*
G54D57*
G01X15914395Y4928095D02*
G01X15976105Y4928095D01*
G01X16078200Y4826000D01*
G01X15914395Y5055095D02*
G01X16039605Y5055095D01*
G01X16141700Y4953000D01*
G01X15914395Y5182095D02*
G01X16103105Y5182095D01*
G01X16205200Y5080000D01*
G01X16147486Y5309095D02*
G01X15914395Y5309095D01*
G01X15914395Y5436095D02*
G01X16255505Y5436095D01*
G01X16344900Y5346700D01*
G01X16268700Y5207000D02*
G01X16167100Y5308600D01*
G01X16147982Y5308600D01*
G01X16147486Y5309095D01*
G54D60*
G01X15129846Y3215950D02*
G01X15240000Y3215950D01*
G54D57*
G01X16090900Y4419105D02*
G01X16090900Y4521200D01*
G01X16179800Y4610100D01*
G01X16992600Y4610100D01*
G01X15456599Y3556699D02*
G01X15875000Y3975100D01*
G01X15836900Y4051300D02*
G01X15431582Y3645982D01*
G01X15406482Y3735182D02*
G01X15798800Y4127500D01*
G01X15773400Y4203700D02*
G01X15392400Y3822700D01*
G01X16344900Y4419105D02*
G01X16344900Y4343400D01*
G01X16281400Y4279900D01*
G01X15532100Y4279900D01*
G01X15220051Y4591949D02*
G01X15135551Y4591949D01*
G01X15532100Y4279900D02*
G01X15220051Y4591949D01*
G54D62*
G01X14678298Y3693316D02*
G01X14655799Y3670816D01*
G01X14655799Y3585260D01*
G01X14655799Y3420700D01*
G54D57*
G01X14834895Y4844313D02*
G01X14978913Y4844313D01*
G01X15163800Y5029200D02*
G01X15354300Y5029200D01*
G01X15405100Y4978400D01*
G01X15405100Y4889500D01*
G01X14978913Y4844313D02*
G01X15163800Y5029200D01*
G01X14986000Y5537200D02*
G01X14751304Y5771896D01*
G01X15328900Y5537200D02*
G01X14986000Y5537200D01*
G01X15722105Y4547095D02*
G01X15506700Y4762500D01*
G01X15506700Y5359400D01*
G01X15328900Y5537200D01*
G01X15405100Y5651500D02*
G01X15633700Y5422900D01*
G01X15633700Y4813300D01*
G01X15773400Y4673600D01*
G01X15913900Y4673600D01*
G01X14668500Y4974692D02*
G01X14834514Y4974692D01*
G01X14834895Y4974311D01*
G01X14834895Y4779289D02*
G01X14834514Y4778908D01*
G01X14668500Y4778908D01*
G01X16598900Y4419105D02*
G01X16598900Y4343400D01*
G01X16459200Y4203700D01*
G01X15773400Y4203700D01*
G01X15798800Y4127500D02*
G01X16510000Y4127500D01*
G01X16725900Y4343400D01*
G01X16725900Y4419105D01*
G01X16852900Y4419105D02*
G01X16852900Y4343400D01*
G01X16560800Y4051300D01*
G01X15836900Y4051300D01*
G01X15875000Y3975100D02*
G01X16611600Y3975100D01*
G01X16979900Y4343400D01*
G01X16979900Y4419105D01*
G01X14668500Y4778908D02*
G01X14626692Y4778908D01*
G01X14592300Y4813300D01*
G01X14475556Y4813300D01*
G01X14475341Y4813085D01*
G01X14475341Y4938079D02*
G01X14590079Y4938079D01*
G01X14626692Y4974692D02*
G01X14668500Y4974692D01*
G01X14590079Y4938079D02*
G01X14626692Y4974692D01*
G54D60*
G01X15430500Y5180782D02*
G01X15251405Y5181615D01*
G54D64*
G01X14058405Y5435105D02*
G01X14122895Y5435105D01*
G01X14225329Y5332671D01*
G01X14225329Y5183087D01*
G01X17664405Y5817095D02*
G01X17818595Y5817095D01*
G01X17894300Y5892800D01*
G01X17894300Y6362700D01*
G01X18148300Y6616700D02*
G01X18148300Y6667500D01*
G01X17894300Y6362700D02*
G01X18148300Y6616700D01*
G01X18072100Y5803900D02*
G01X17957800Y5689600D01*
G01X17664900Y5689600D01*
G01X17664405Y5690095D01*
G01X18402300Y6667500D02*
G01X18402300Y6604000D01*
G01X18072100Y6273800D01*
G01X18072100Y5803900D01*
G04 Track End*

M02*

